<svg width="74" height="40" viewBox="0 0 74 40" fill="none" xmlns="http://www.w3.org/2000/svg">
<g clip-path="url(#clip0_186_8757)">
<path d="M33.1382 15.9988C32.501 15.1794 31.6511 14.7697 30.6155 14.7697C29.7921 14.7697 29.1283 15.0702 28.6237 15.6437C28.1192 16.2173 27.8537 16.9547 27.8537 17.8832C27.8537 18.8118 28.1192 19.5765 28.6237 20.1773C29.1283 20.7509 29.7656 21.0513 30.5624 21.0513C31.7308 21.0513 32.6071 20.587 33.1914 19.6857L35.4221 21.2425C34.944 22.0617 34.2802 22.6899 33.4039 23.1542C32.554 23.5912 31.545 23.837 30.403 23.837C29.2611 23.837 28.252 23.5912 27.4022 23.0996C26.5257 22.608 25.8619 21.9252 25.3573 21.024C24.8793 20.1226 24.6404 19.0849 24.6404 17.9379C24.6404 16.7634 24.8793 15.7257 25.3573 14.8244C25.8619 13.9231 26.5257 13.213 27.4022 12.7214C28.2785 12.2025 29.3141 11.9567 30.4561 11.9567C31.545 11.9567 32.501 12.1752 33.3508 12.6122C34.2005 13.0219 34.8644 13.6227 35.3689 14.4147L33.1382 15.9988Z" fill="#808080"/>
<path d="M37.5466 6.27588H40.7865V23.673H37.5466V6.27588Z" fill="#808080"/>
<path d="M44.053 12.0387H47.2928V23.7005H44.053V12.0387Z" fill="#808080"/>
<path d="M57.9683 15.9988C57.3311 15.1794 56.4811 14.7697 55.4456 14.7697C54.6224 14.7697 53.9584 15.0702 53.4538 15.6437C52.9492 16.2173 52.6837 16.9547 52.6837 17.8832C52.6837 18.8118 52.9492 19.5765 53.4538 20.1773C53.9584 20.7509 54.5958 21.0513 55.3924 21.0513C56.5608 21.0513 57.4372 20.587 58.0215 19.6857L60.2521 21.2425C59.7741 22.0617 59.1103 22.6899 58.234 23.1542C57.384 23.5912 56.375 23.837 55.2331 23.837C54.0912 23.837 53.0821 23.5912 52.2323 23.0996C51.356 22.608 50.692 21.9252 50.1874 21.024C49.7094 20.1226 49.4705 19.0849 49.4705 17.9379C49.4705 16.7634 49.7094 15.7257 50.1874 14.8244C50.692 13.9231 51.356 13.213 52.2323 12.7214C53.1086 12.2025 54.1444 11.9567 55.2862 11.9567C56.375 11.9567 57.3311 12.1752 58.1808 12.6122C59.0306 13.0219 59.6944 13.6227 60.199 14.4147L57.9683 15.9988Z" fill="#808080"/>
<path d="M69.8124 23.673L67.0772 18.9209L65.6166 20.5049V23.673H62.3767V6.08472H65.6166V16.4356L69.7593 12.0385H73.4506L69.3079 16.5449L73.6364 23.7003H69.8124V23.673Z" fill="#808080"/>
<path d="M46.921 6.71276C46.6024 6.35771 46.1774 6.19385 45.6464 6.19385C45.1418 6.19385 44.7169 6.35771 44.3716 6.71276C44.0529 7.0678 43.8936 7.50478 43.8936 8.05099C43.8936 8.59721 44.0529 9.03418 44.3716 9.38922C44.7169 9.74427 45.1418 9.90814 45.6464 9.90814C46.1774 9.90814 46.5758 9.74427 46.921 9.38922C47.2662 9.03418 47.4256 8.59721 47.4256 8.05099C47.4256 7.50478 47.2397 7.04049 46.921 6.71276Z" fill="#80C6C6"/>
<path d="M22.3301 18.5638C22.3301 18.5365 22.3035 18.5365 22.3035 18.5092C22.3035 18.5092 22.3035 18.4818 22.2771 18.4818C22.1708 18.2087 22.038 17.9902 21.8521 17.7991C21.8521 17.7991 21.8521 17.7991 21.8256 17.7718C21.7991 17.7444 21.7725 17.7171 21.746 17.6898C21.5334 17.4713 21.2414 17.2528 20.8431 17.0617C20.6305 16.9524 20.4711 16.9252 20.4711 16.9252C20.3119 16.8979 20.1525 16.8705 19.9931 16.8705C19.8073 16.8705 19.6214 16.8705 19.4621 16.8979C19.4356 16.8979 19.409 16.8979 19.409 16.8979C19.3824 16.8979 19.3293 16.8979 19.3027 16.9252C18.4795 17.089 17.9218 17.5806 17.6032 17.9902C17.5766 18.0176 17.5501 18.0449 17.5501 18.0449C17.5235 18.0722 17.4704 18.1269 17.4438 18.154C17.0455 18.5638 16.6206 18.8915 16.2754 19.1373C15.8769 19.3831 15.4255 19.6289 14.8944 19.8473C14.8944 19.8473 14.8944 19.8473 14.8679 19.8473C14.4695 20.0113 14.0181 20.1478 13.5666 20.2571C12.2388 20.5574 10.9907 20.4482 9.95499 20.1751C9.84878 20.1478 9.716 20.0931 9.60977 20.066C9.50354 20.0386 9.39731 19.984 9.2911 19.9566C9.21144 19.9293 9.13176 19.902 9.07864 19.8747C8.94586 19.8202 8.81308 19.7655 8.68031 19.6835C8.68031 19.6835 8.65376 19.6835 8.65376 19.6562C7.5384 19.1099 6.6886 18.3727 6.13092 17.7444C5.38734 16.8705 4.85623 15.9147 4.59067 14.986C3.92676 12.8012 4.29855 10.944 4.29855 10.944C4.29855 10.944 5.22802 4.52597 12.2123 4.38942C14.2836 4.44405 15.8769 5.39992 16.5675 5.89151C12.5575 10.0155 7.27284 15.3684 7.27284 15.3684C7.27284 15.3684 8.09608 17.1437 10.433 17.9902C11.2031 17.2255 22.3301 5.8369 22.3301 5.8369C22.3301 5.8369 21.2679 3.95244 19.7808 2.86C18.9841 2.14992 16.9127 0.56589 13.6197 0.101605C7.61806 -0.690412 1.4836 3.18774 0.1558 10.3432C-0.879887 17.0617 3.34253 23.4252 10.0081 24.6269C14.0978 25.3915 19.4621 23.5344 22.4363 18.8369C22.4098 18.8096 22.3832 18.7276 22.3301 18.5638Z" fill="#00747B"/>
<path d="M2.27197 33.6899H1.06247V33.2017H2.27197C2.50621 33.2017 2.69588 33.1644 2.84098 33.0898C2.98607 33.0151 3.09178 32.9114 3.15812 32.7788C3.22652 32.6461 3.26073 32.4948 3.26073 32.3249C3.26073 32.1695 3.22652 32.0232 3.15812 31.8864C3.09178 31.7496 2.98607 31.6398 2.84098 31.5569C2.69588 31.4719 2.50621 31.4295 2.27197 31.4295H1.20238V35.4652H0.602295V30.9382H2.27197C2.614 30.9382 2.90316 30.9972 3.13946 31.1154C3.37577 31.2336 3.55507 31.3972 3.67737 31.6066C3.79966 31.8139 3.86081 32.0513 3.86081 32.3186C3.86081 32.6088 3.79966 32.8566 3.67737 33.0618C3.55507 33.267 3.37577 33.4235 3.13946 33.5313C2.90316 33.6369 2.614 33.6899 2.27197 33.6899ZM4.84595 33.8204V33.7488C4.84595 33.5064 4.88119 33.2815 4.95168 33.0742C5.02215 32.8649 5.12372 32.6835 5.25638 32.5301C5.38904 32.3746 5.54969 32.2543 5.73832 32.1695C5.92694 32.0823 6.13838 32.0388 6.37261 32.0388C6.60891 32.0388 6.82139 32.0823 7.01001 32.1695C7.20072 32.2543 7.36239 32.3746 7.49505 32.5301C7.62978 32.6835 7.7324 32.8649 7.80287 33.0742C7.87336 33.2815 7.90859 33.5064 7.90859 33.7488V33.8204C7.90859 34.0629 7.87336 34.2879 7.80287 34.4951C7.7324 34.7024 7.62978 34.8838 7.49505 35.0392C7.36239 35.1927 7.20175 35.3128 7.01311 35.4C6.82656 35.4849 6.61513 35.5275 6.37882 35.5275C6.14252 35.5275 5.93006 35.4849 5.74143 35.4C5.55279 35.3128 5.39111 35.1927 5.25638 35.0392C5.12372 34.8838 5.02215 34.7024 4.95168 34.4951C4.88119 34.2879 4.84595 34.0629 4.84595 33.8204ZM5.42117 33.7488V33.8204C5.42117 33.9884 5.44087 34.1469 5.48024 34.2962C5.51963 34.4433 5.5787 34.5739 5.65748 34.6879C5.73832 34.802 5.83885 34.892 5.95908 34.9585C6.0793 35.0227 6.21922 35.0548 6.37882 35.0548C6.53636 35.0548 6.67421 35.0227 6.79236 34.9585C6.91259 34.892 7.01209 34.802 7.09085 34.6879C7.16962 34.5739 7.2287 34.4433 7.26807 34.2962C7.30954 34.1469 7.33027 33.9884 7.33027 33.8204V33.7488C7.33027 33.583 7.30954 33.4266 7.26807 33.2794C7.2287 33.1302 7.16858 32.9986 7.08774 32.8846C7.00898 32.7684 6.90948 32.6772 6.78925 32.611C6.6711 32.5446 6.53221 32.5114 6.37261 32.5114C6.21507 32.5114 6.0762 32.5446 5.95597 32.611C5.83781 32.6772 5.73832 32.7684 5.65748 32.8846C5.5787 32.9986 5.51963 33.1302 5.48024 33.2794C5.44087 33.4266 5.42117 33.583 5.42117 33.7488ZM9.99131 34.8682L10.8557 32.1011H11.235L11.1604 32.6513L10.2805 35.4652H9.91047L9.99131 34.8682ZM9.40988 32.1011L10.1468 34.8994L10.1996 35.4652H9.81097L8.83465 32.1011H9.40988ZM12.0621 34.8775L12.7648 32.1011H13.3369L12.3606 35.4652H11.975L12.0621 34.8775ZM11.319 32.1011L12.1647 34.8217L12.2611 35.4652H11.8942L10.9894 32.6452L10.9148 32.1011H11.319ZM15.8332 35.5275C15.599 35.5275 15.3865 35.4881 15.1957 35.4093C15.0071 35.3284 14.8444 35.2154 14.7076 35.0704C14.5728 34.9253 14.4692 34.7533 14.3967 34.5542C14.3241 34.3553 14.2878 34.1375 14.2878 33.9012V33.7707C14.2878 33.4971 14.3282 33.2536 14.4091 33.04C14.4899 32.8244 14.5998 32.642 14.7387 32.4928C14.8776 32.3435 15.0351 32.2305 15.2113 32.1539C15.3875 32.0771 15.5698 32.0388 15.7585 32.0388C15.999 32.0388 16.2063 32.0803 16.3803 32.1632C16.5565 32.2461 16.7007 32.3621 16.8126 32.5114C16.9245 32.6586 17.0074 32.8327 17.0613 33.0337C17.1152 33.2328 17.1422 33.4504 17.1422 33.6867V33.9449H14.6298V33.4753H16.5669V33.4317C16.5587 33.2826 16.5275 33.1374 16.4736 32.9965C16.4219 32.8556 16.339 32.7394 16.2249 32.6482C16.1109 32.5571 15.9555 32.5114 15.7585 32.5114C15.628 32.5114 15.5077 32.5394 15.3979 32.5954C15.288 32.6493 15.1937 32.7301 15.1149 32.8378C15.0361 32.9456 14.975 33.0772 14.9314 33.2328C14.8879 33.3882 14.8661 33.5675 14.8661 33.7707V33.9012C14.8661 34.0609 14.8879 34.2111 14.9314 34.352C14.977 34.491 15.0423 34.6133 15.1273 34.7191C15.2144 34.8247 15.3191 34.9076 15.4414 34.9678C15.5657 35.0279 15.7068 35.0578 15.8642 35.0578C16.0674 35.0578 16.2394 35.0165 16.3803 34.9336C16.5213 34.8507 16.6446 34.7397 16.7504 34.6009L17.0987 34.8775C17.026 34.9875 16.9338 35.092 16.8219 35.1916C16.71 35.2911 16.5721 35.3719 16.4083 35.4342C16.2466 35.4963 16.0549 35.5275 15.8332 35.5275ZM18.8984 32.6296V35.4652H18.3231V32.1011H18.8828L18.8984 32.6296ZM19.9494 32.0823L19.9461 32.6171C19.8985 32.6067 19.8529 32.6006 19.8094 32.5985C19.768 32.5943 19.7202 32.5922 19.6663 32.5922C19.5338 32.5922 19.4165 32.613 19.315 32.6545C19.2135 32.6959 19.1274 32.7539 19.057 32.8285C18.9865 32.9032 18.9306 32.9924 18.889 33.096C18.8497 33.1975 18.8237 33.3095 18.8113 33.4317L18.6497 33.525C18.6497 33.322 18.6694 33.1311 18.7087 32.953C18.7501 32.7746 18.8133 32.6171 18.8984 32.4803C18.9834 32.3415 19.0912 32.2337 19.2217 32.1569C19.3544 32.0782 19.512 32.0388 19.6944 32.0388C19.7358 32.0388 19.7836 32.044 19.8374 32.0543C19.8913 32.0626 19.9286 32.072 19.9494 32.0823ZM22.3243 35.5275C22.0901 35.5275 21.8776 35.4881 21.6869 35.4093C21.4982 35.3284 21.3356 35.2154 21.1987 35.0704C21.064 34.9253 20.9604 34.7533 20.8878 34.5542C20.8153 34.3553 20.779 34.1375 20.779 33.9012V33.7707C20.779 33.4971 20.8194 33.2536 20.9002 33.04C20.9811 32.8244 21.0909 32.642 21.2298 32.4928C21.3687 32.3435 21.5263 32.2305 21.7025 32.1539C21.8787 32.0771 22.0611 32.0388 22.2497 32.0388C22.4901 32.0388 22.6974 32.0803 22.8715 32.1632C23.0477 32.2461 23.1918 32.3621 23.3037 32.5114C23.4156 32.6586 23.4985 32.8327 23.5524 33.0337C23.6063 33.2328 23.6333 33.4504 23.6333 33.6867V33.9449H21.121V33.4753H23.0581V33.4317C23.0498 33.2826 23.0187 33.1374 22.9648 32.9965C22.913 32.8556 22.8301 32.7394 22.7161 32.6482C22.602 32.5571 22.4466 32.5114 22.2497 32.5114C22.1191 32.5114 21.9988 32.5394 21.8891 32.5954C21.7791 32.6493 21.6848 32.7301 21.606 32.8378C21.5272 32.9456 21.4661 33.0772 21.4226 33.2328C21.3791 33.3882 21.3573 33.5675 21.3573 33.7707V33.9012C21.3573 34.0609 21.3791 34.2111 21.4226 34.352C21.4683 34.491 21.5335 34.6133 21.6185 34.7191C21.7055 34.8247 21.8103 34.9076 21.9326 34.9678C22.0568 35.0279 22.1979 35.0578 22.3555 35.0578C22.5585 35.0578 22.7306 35.0165 22.8715 34.9336C23.0126 34.8507 23.1358 34.7397 23.2416 34.6009L23.5898 34.8775C23.5173 34.9875 23.4249 35.092 23.313 35.1916C23.2011 35.2911 23.0632 35.3719 22.8996 35.4342C22.7379 35.4963 22.5462 35.5275 22.3243 35.5275ZM26.9349 34.8124V30.6895H27.5132V35.4652H26.9846L26.9349 34.8124ZM24.6713 33.8204V33.7551C24.6713 33.4982 24.7023 33.2649 24.7646 33.0556C24.8289 32.8441 24.919 32.6627 25.0352 32.5114C25.1532 32.3601 25.2932 32.244 25.4549 32.1632C25.6187 32.0803 25.801 32.0388 26.002 32.0388C26.2135 32.0388 26.3981 32.0762 26.5555 32.1507C26.7152 32.2233 26.8498 32.3301 26.9597 32.471C27.0716 32.6099 27.1597 32.7778 27.224 32.9746C27.2883 33.1716 27.3329 33.3945 27.3578 33.6432V33.9293C27.3349 34.1759 27.2904 34.3977 27.224 34.5946C27.1597 34.7916 27.0716 34.9595 26.9597 35.0983C26.8498 35.2372 26.7152 35.344 26.5555 35.4186C26.3959 35.4911 26.2094 35.5275 25.9959 35.5275C25.799 35.5275 25.6187 35.4849 25.4549 35.4C25.2932 35.3149 25.1532 35.1957 25.0352 35.0424C24.919 34.889 24.8289 34.7087 24.7646 34.5014C24.7023 34.292 24.6713 34.065 24.6713 33.8204ZM25.2497 33.7551V33.8204C25.2497 33.9884 25.2661 34.1458 25.2994 34.293C25.3345 34.4401 25.3884 34.5698 25.4611 34.6817C25.5336 34.7936 25.6258 34.8817 25.7378 34.9459C25.8497 35.0082 25.9834 35.0392 26.1388 35.0392C26.3297 35.0392 26.4862 34.9989 26.6084 34.918C26.7327 34.8371 26.8323 34.7304 26.9069 34.5977C26.9816 34.465 27.0396 34.3211 27.081 34.1655V33.4162C27.0561 33.3023 27.0199 33.1924 26.9721 33.0867C26.9266 32.9789 26.8665 32.8835 26.7918 32.8006C26.7193 32.7156 26.6291 32.6482 26.5213 32.5985C26.4156 32.5487 26.2903 32.5238 26.1451 32.5238C25.9875 32.5238 25.8518 32.5571 25.7378 32.6233C25.6258 32.6876 25.5336 32.7768 25.4611 32.8908C25.3884 33.0027 25.3345 33.1333 25.2994 33.2826C25.2661 33.4298 25.2497 33.5872 25.2497 33.7551ZM31.0039 30.6895H31.5822V34.8124L31.5324 35.4652H31.0039V30.6895ZM33.8552 33.7551V33.8204C33.8552 34.065 33.8261 34.292 33.768 34.5014C33.71 34.7087 33.6251 34.889 33.513 35.0424C33.4011 35.1957 33.2643 35.3149 33.1026 35.4C32.941 35.4849 32.7555 35.5275 32.5462 35.5275C32.3326 35.5275 32.1451 35.4911 31.9832 35.4186C31.8237 35.344 31.6891 35.2372 31.5791 35.0983C31.4692 34.9595 31.3811 34.7916 31.3149 34.5946C31.2506 34.3977 31.206 34.1759 31.1811 33.9293V33.6432C31.206 33.3945 31.2506 33.1716 31.3149 32.9746C31.3811 32.7778 31.4692 32.6099 31.5791 32.471C31.6891 32.3301 31.8237 32.2233 31.9832 32.1507C32.1429 32.0762 32.3284 32.0388 32.5399 32.0388C32.7513 32.0388 32.939 32.0803 33.1026 32.1632C33.2665 32.244 33.4032 32.3601 33.513 32.5114C33.6251 32.6627 33.71 32.8441 33.768 33.0556C33.8261 33.2649 33.8552 33.4982 33.8552 33.7551ZM33.2768 33.8204V33.7551C33.2768 33.5872 33.2613 33.4298 33.2301 33.2826C33.199 33.1333 33.1494 33.0027 33.081 32.8908C33.0126 32.7768 32.9223 32.6876 32.8104 32.6233C32.6985 32.5571 32.5607 32.5238 32.3968 32.5238C32.2518 32.5238 32.1254 32.5487 32.0176 32.5985C31.9118 32.6482 31.8216 32.7156 31.7471 32.8006C31.6724 32.8835 31.6112 32.9789 31.5636 33.0867C31.5179 33.1924 31.4837 33.3023 31.461 33.4162V34.1655C31.4941 34.3107 31.548 34.4505 31.6226 34.5853C31.6993 34.718 31.801 34.8269 31.9274 34.9117C32.0559 34.9968 32.2144 35.0392 32.4031 35.0392C32.5585 35.0392 32.6912 35.0082 32.8011 34.9459C32.913 34.8817 33.0031 34.7936 33.0715 34.6817C33.142 34.5698 33.1939 34.4401 33.2271 34.293C33.2602 34.1458 33.2768 33.9884 33.2768 33.8204ZM36 35.1169L36.9359 32.1011H37.5515L36.2022 35.9844C36.171 36.0675 36.1295 36.1565 36.0778 36.2519C36.028 36.3493 35.9637 36.4415 35.8849 36.5285C35.8061 36.6157 35.7109 36.6861 35.599 36.74C35.4891 36.796 35.3574 36.824 35.204 36.824C35.1584 36.824 35.1003 36.8177 35.03 36.8053C34.9594 36.793 34.9097 36.7826 34.8807 36.7742L34.8776 36.3078C34.8941 36.3099 34.92 36.312 34.9553 36.314C34.9926 36.3182 35.0185 36.3203 35.033 36.3203C35.1636 36.3203 35.2745 36.3027 35.3657 36.2675C35.457 36.2342 35.5336 36.1772 35.5958 36.0965C35.66 36.0177 35.715 35.9088 35.7607 35.7699L36 35.1169ZM35.3129 32.1011L36.1866 34.7128L36.3358 35.3191L35.9223 35.5305L34.6848 32.1011H35.3129Z" fill="#7F7F7F"/>
<path d="M56.5615 29.4985C55.4828 29.4985 54.5487 30.2084 54.1706 31.2067C54.1484 31.2621 54.0817 31.473 54.0817 31.473L52.5693 37.9954H56.0388C57.2287 37.9954 58.2406 37.1414 58.5186 35.9876L60.031 29.4985H56.5615Z" fill="#16B14B"/>
<path d="M50.79 27.6128C49.6335 27.6128 48.6548 28.4003 48.3435 29.4653C48.3213 29.5429 48.299 29.6316 48.288 29.7093L45.9304 39.8702H49.3999C50.5898 39.8702 51.5796 39.0494 51.8687 37.9401L54.2596 27.6128H50.79Z" fill="#F27227"/>
<path d="M44.151 29.4985C43.0279 29.4985 42.0716 30.2638 41.7269 31.3177C41.7157 31.3398 41.7157 31.362 41.7046 31.3843L41.649 31.6061L40.1699 37.9844H43.7174C44.7737 37.9844 45.6856 37.2855 46.0415 36.2983L46.1861 35.6882L47.6206 29.4985H44.151Z" fill="#1169B0"/>
<path d="M43.5061 31.6174L43.4505 31.6284C43.2058 31.6284 42.9723 31.7173 42.7611 31.8947C42.5609 32.0611 42.4163 32.2608 42.3717 32.4382L41.5823 35.8881H41.6267C41.8714 35.8881 42.116 35.7994 42.3273 35.6219C42.5386 35.4445 42.6832 35.2336 42.7388 34.9896L42.9166 34.2464H44.4957C44.7404 34.2464 44.985 34.1576 45.1963 33.9802C45.4076 33.8026 45.5522 33.5919 45.6078 33.3478L45.6189 33.3035H43.1391L43.3059 32.5936H45.4522C45.6968 32.5936 45.9304 32.5048 46.1417 32.3383C46.353 32.1609 46.4864 31.9501 46.542 31.7061L46.5531 31.6617L43.5061 31.6174Z" fill="white"/>
<path d="M52.269 31.8281C52.1356 31.695 51.9577 31.6174 51.7353 31.6174H48.6994L47.7319 35.8548V35.866H47.7764C48.0322 35.866 48.2657 35.7771 48.477 35.5997C48.6883 35.4222 48.8328 35.2115 48.8884 34.9674L49.0664 34.2132H51.1681C51.4128 34.2132 51.6351 34.1799 51.8464 34.0135C52.0577 33.847 52.2135 33.5696 52.269 33.3145L52.458 32.5271C52.4692 32.4605 52.4803 32.4049 52.4803 32.3383C52.4803 32.1388 52.4136 31.9612 52.269 31.8281ZM51.3238 33.2703H49.2777L49.4444 32.5603H51.4906L51.3238 33.2703Z" fill="white"/>
<path d="M58.4407 31.8281C58.3072 31.695 58.1292 31.6174 57.9179 31.6174H56.5836H56.4946H54.7153L54.7042 31.6507C54.693 31.7173 54.6819 31.7838 54.6819 31.8393C54.6819 32.05 54.7488 32.2164 54.8822 32.3606C55.0156 32.4938 55.1935 32.5713 55.4159 32.5713H56.0831L55.3158 35.877H55.3604C55.6049 35.877 55.8497 35.7883 56.0608 35.6107C56.2721 35.4333 56.4167 35.2225 56.4723 34.9785L57.0283 32.5713H58.6074L58.6185 32.538C58.6297 32.4715 58.6408 32.4049 58.6408 32.3495C58.6408 32.1388 58.5741 31.9612 58.4407 31.8281Z" fill="white"/>
<path d="M59.0635 37.2524C59.0635 36.853 59.3971 36.5203 59.7975 36.5203C60.1978 36.5203 60.5314 36.853 60.5314 37.2524C60.5314 37.6518 60.1978 37.9844 59.7975 37.9844C59.3861 37.9844 59.0635 37.6628 59.0635 37.2524ZM60.3534 37.2524C60.3534 36.9086 60.1088 36.6644 59.7975 36.6644C59.4861 36.6644 59.2415 36.9086 59.2415 37.2524C59.2415 37.5962 59.4861 37.8403 59.7975 37.8403C60.0977 37.8403 60.3534 37.5962 60.3534 37.2524ZM59.5084 36.842H59.8197C60.0198 36.842 60.1311 36.9086 60.1311 37.086C60.1311 37.2302 60.0532 37.2968 59.9087 37.3078L60.1311 37.6739H59.9754L59.7641 37.319H59.6751V37.6739H59.5195V36.842H59.5084ZM59.6641 37.197H59.7975C59.8864 37.197 59.9642 37.1858 59.9642 37.0748C59.9642 36.975 59.8752 36.964 59.7975 36.964H59.6641V37.197Z" fill="#1169B0"/>
<path d="M64.2681 35.4115C64.0456 35.7441 63.7232 35.8996 63.3117 35.8996C62.9003 35.8996 62.5888 35.7331 62.3554 35.4115C62.1441 35.1119 62.0439 34.7125 62.0439 34.2135C62.0439 33.7142 62.1441 33.3148 62.3554 33.0154C62.5777 32.6938 62.9003 32.5273 63.3117 32.5273C63.7232 32.5273 64.0345 32.6938 64.2681 33.0154C64.4794 33.3148 64.5794 33.7142 64.5794 34.2135C64.5794 34.7125 64.4794 35.1008 64.2681 35.4115ZM63.8789 33.326C63.7453 33.093 63.5563 32.9822 63.3229 32.9822C63.0893 32.9822 62.9003 33.093 62.7557 33.326C62.6334 33.5478 62.5667 33.8473 62.5667 34.2135C62.5667 34.5794 62.6334 34.8789 62.7557 35.1008C62.8891 35.3338 63.0781 35.4447 63.3229 35.4447C63.5563 35.4447 63.7453 35.3338 63.8789 35.1008C64.0012 34.8789 64.0679 34.5794 64.0679 34.2135C64.0679 33.8473 64.0123 33.5478 63.8789 33.326Z" fill="#1268B1"/>
<path d="M66.3922 35.8435V34.2239C66.3922 33.9133 66.2255 33.758 65.8807 33.758C65.7027 33.758 65.5471 33.7803 65.4358 33.8357V35.8546H64.9465V33.5362C65.2245 33.4253 65.536 33.3698 65.8807 33.3698C66.5591 33.3698 66.8926 33.636 66.8926 34.1795V35.8546H66.3922V35.8435Z" fill="#1268B1"/>
<path d="M67.3374 35.8438V32.2941H67.8379V35.8438H67.3374Z" fill="#1268B1"/>
<path d="M68.7499 32.893C68.6942 32.9484 68.6274 32.9707 68.5386 32.9707C68.4607 32.9707 68.3829 32.9484 68.3273 32.893C68.2716 32.8375 68.2383 32.771 68.2383 32.6933C68.2383 32.6157 68.2716 32.5491 68.3273 32.4936C68.3829 32.4382 68.4496 32.416 68.5386 32.416C68.6163 32.416 68.6942 32.4382 68.7499 32.4936C68.8055 32.5491 68.8387 32.6157 68.8387 32.6933C68.8387 32.771 68.8055 32.8375 68.7499 32.893ZM68.2939 35.8436V33.4032H68.7943V35.8436H68.2939Z" fill="#1268B1"/>
<path d="M70.6847 35.8435V34.2239C70.6847 33.9133 70.5179 33.758 70.1732 33.758C69.9952 33.758 69.8395 33.7803 69.7283 33.8357V35.8546H69.239V33.5362C69.517 33.4253 69.8285 33.3698 70.1732 33.3698C70.8515 33.3698 71.1851 33.636 71.1851 34.1795V35.8546H70.6847V35.8435Z" fill="#1268B1"/>
<path d="M73.6314 34.6233L72.0079 34.8453C72.0634 35.289 72.308 35.4997 72.7529 35.4997C73.0198 35.4997 73.2422 35.4554 73.4312 35.3556L73.5758 35.7217C73.3534 35.8325 73.0753 35.8879 72.7195 35.8879C72.3415 35.8879 72.0411 35.7771 71.8298 35.5441C71.6186 35.3223 71.5186 35.0116 71.5186 34.6233C71.5186 34.2462 71.6186 33.9467 71.8077 33.7139C72.0079 33.4809 72.2747 33.3588 72.6195 33.3588C72.9308 33.3588 73.1755 33.4586 73.3645 33.6473C73.5424 33.8359 73.6314 34.1021 73.6314 34.4238C73.6425 34.5125 73.6314 34.5791 73.6314 34.6233ZM73.1644 34.3572C73.1644 33.9357 72.9753 33.7249 72.6195 33.7249C72.4305 33.7249 72.2747 33.7914 72.1634 33.9357C72.0411 34.0798 71.9856 34.2684 71.9856 34.5237L73.1644 34.3572Z" fill="#1268B1"/>
</g>
<defs>
<clipPath id="clip0_186_8757">
<rect width="73.7405" height="40" fill="white"/>
</clipPath>
</defs>
</svg>
