<svg width="12" height="14" viewBox="0 0 12 14" fill="none" xmlns="http://www.w3.org/2000/svg">
<path id="Vector" d="M11.9432 10.2984C11.9432 10.2838 11.929 10.2838 11.929 10.2692C11.929 10.2692 11.929 10.2546 11.9148 10.2546C11.858 10.1085 11.787 9.99164 11.6875 9.88941C11.6875 9.88941 11.6875 9.88941 11.6734 9.87479C11.6592 9.86018 11.645 9.84556 11.6308 9.83094C11.5171 9.7141 11.3609 9.59725 11.1478 9.49501C11.0342 9.43655 10.9489 9.42201 10.9489 9.42201C10.8638 9.4074 10.7785 9.39278 10.6933 9.39278C10.5939 9.39278 10.4944 9.39278 10.4093 9.4074C10.3951 9.4074 10.3808 9.4074 10.3808 9.4074C10.3666 9.4074 10.3382 9.4074 10.324 9.42201C9.88372 9.50963 9.58543 9.77256 9.41502 9.99164C9.40081 10.0063 9.3866 10.0209 9.3866 10.0209C9.37239 10.0355 9.34398 10.0647 9.32977 10.0793C9.11673 10.2984 8.88948 10.4737 8.70485 10.6051C8.49173 10.7366 8.25028 10.8681 7.96624 10.9849C7.96624 10.9849 7.96624 10.9849 7.95204 10.9849C7.73899 11.0726 7.49752 11.1456 7.25606 11.2041C6.54589 11.3647 5.87833 11.3063 5.3244 11.1602C5.26759 11.1456 5.19657 11.1164 5.13975 11.1018C5.08294 11.0872 5.02612 11.058 4.96931 11.0434C4.92671 11.0288 4.88409 11.0141 4.85568 10.9995C4.78467 10.9704 4.71365 10.9411 4.64263 10.8973C4.64263 10.8973 4.62843 10.8973 4.62843 10.8827C4.03189 10.5905 3.57737 10.1962 3.2791 9.86018C2.8814 9.39278 2.59734 8.88153 2.45531 8.38487C2.10022 7.2163 2.29907 6.22301 2.29907 6.22301C2.29907 6.22301 2.79619 2.79033 6.53169 2.7173C7.63956 2.74651 8.49173 3.25776 8.86106 3.52068C6.71634 5.72637 3.88985 8.58937 3.88985 8.58937C3.88985 8.58937 4.33016 9.53886 5.58006 9.99164C5.99196 9.58263 11.9432 3.49148 11.9432 3.49148C11.9432 3.49148 11.3751 2.48358 10.5797 1.89929C10.1536 1.51951 9.04569 0.672293 7.28447 0.423972C4.07449 0.000364214 0.793501 2.07458 0.0833293 5.90165C-0.470605 9.49501 1.78774 12.8985 5.3528 13.5412C7.54014 13.9502 10.4093 12.9569 12 10.4445C11.9858 10.4299 11.9716 10.386 11.9432 10.2984Z" fill="#00747B"/>
</svg>
