<svg width="80" height="80" viewBox="0 0 80 80" fill="none" xmlns="http://www.w3.org/2000/svg">
<g id="material-symbols:error-circle-rounded-outline">
<path id="Vector" d="M40.0001 56.6667C40.9445 56.6667 41.7367 56.3467 42.3767 55.7067C43.0145 55.0689 43.3334 54.2778 43.3334 53.3333C43.3334 52.3889 43.0145 51.5967 42.3767 50.9567C41.7367 50.3189 40.9445 50 40.0001 50C39.0556 50 38.2645 50.3189 37.6267 50.9567C36.9867 51.5967 36.6667 52.3889 36.6667 53.3333C36.6667 54.2778 36.9867 55.0689 37.6267 55.7067C38.2645 56.3467 39.0556 56.6667 40.0001 56.6667ZM40.0001 43.3333C40.9445 43.3333 41.7367 43.0133 42.3767 42.3733C43.0145 41.7356 43.3334 40.9445 43.3334 40V26.6667C43.3334 25.7222 43.0145 24.93 42.3767 24.29C41.7367 23.6522 40.9445 23.3333 40.0001 23.3333C39.0556 23.3333 38.2645 23.6522 37.6267 24.29C36.9867 24.93 36.6667 25.7222 36.6667 26.6667V40C36.6667 40.9445 36.9867 41.7356 37.6267 42.3733C38.2645 43.0133 39.0556 43.3333 40.0001 43.3333ZM40.0001 73.3333C35.389 73.3333 31.0556 72.4578 27.0001 70.7067C22.9445 68.9578 19.4167 66.5833 16.4167 63.5833C13.4167 60.5833 11.0423 57.0556 9.29342 53C7.5423 48.9444 6.66675 44.6111 6.66675 40C6.66675 35.3889 7.5423 31.0556 9.29342 27C11.0423 22.9445 13.4167 19.4167 16.4167 16.4167C19.4167 13.4167 22.9445 11.0411 27.0001 9.29C31.0556 7.54112 35.389 6.66667 40.0001 6.66667C44.6112 6.66667 48.9445 7.54112 53.0001 9.29C57.0556 11.0411 60.5834 13.4167 63.5834 16.4167C66.5834 19.4167 68.9579 22.9445 70.7067 27C72.4579 31.0556 73.3334 35.3889 73.3334 40C73.3334 44.6111 72.4579 48.9444 70.7067 53C68.9579 57.0556 66.5834 60.5833 63.5834 63.5833C60.5834 66.5833 57.0556 68.9578 53.0001 70.7067C48.9445 72.4578 44.6112 73.3333 40.0001 73.3333ZM40.0001 66.6667C47.4445 66.6667 53.7501 64.0833 58.9167 58.9167C64.0834 53.75 66.6667 47.4445 66.6667 40C66.6667 32.5556 64.0834 26.25 58.9167 21.0833C53.7501 15.9167 47.4445 13.3333 40.0001 13.3333C32.5556 13.3333 26.2501 15.9167 21.0834 21.0833C15.9167 26.25 13.3334 32.5556 13.3334 40C13.3334 47.4445 15.9167 53.75 21.0834 58.9167C26.2501 64.0833 32.5556 66.6667 40.0001 66.6667Z" fill="#FAAD14"/>
</g>
</svg>
