<svg width="80" height="80" viewBox="0 0 80 80" fill="none" xmlns="http://www.w3.org/2000/svg">
<g id="material-symbols:check-circle-outline-rounded">
<path id="Vector" d="M35.3334 46L28.0834 38.75C27.4723 38.1389 26.709 37.8478 25.7934 37.8767C24.8756 37.9034 24.1112 38.2222 23.5001 38.8334C22.889 39.4445 22.5834 40.2222 22.5834 41.1667C22.5834 42.1111 22.889 42.8889 23.5001 43.5L33.0001 53C33.6112 53.6111 34.389 53.9167 35.3334 53.9167C36.2779 53.9167 37.0556 53.6111 37.6668 53L56.5834 34.0834C57.1945 33.4722 57.4868 32.7078 57.4601 31.79C57.4312 30.8745 57.1112 30.1111 56.5001 29.5C55.889 28.8889 55.1112 28.5834 54.1668 28.5834C53.2223 28.5834 52.4445 28.8889 51.8334 29.5L35.3334 46ZM40.0001 73.3334C35.389 73.3334 31.0556 72.4578 27.0001 70.7067C22.9445 68.9578 19.4167 66.5834 16.4167 63.5834C13.4167 60.5834 11.0423 57.0556 9.29342 53C7.5423 48.9445 6.66675 44.6111 6.66675 40C6.66675 35.3889 7.5423 31.0556 9.29342 27C11.0423 22.9445 13.4167 19.4167 16.4167 16.4167C19.4167 13.4167 22.9445 11.0411 27.0001 9.29002C31.0556 7.54113 35.389 6.66669 40.0001 6.66669C44.6112 6.66669 48.9445 7.54113 53.0001 9.29002C57.0556 11.0411 60.5834 13.4167 63.5834 16.4167C66.5834 19.4167 68.9579 22.9445 70.7068 27C72.4579 31.0556 73.3334 35.3889 73.3334 40C73.3334 44.6111 72.4579 48.9445 70.7068 53C68.9579 57.0556 66.5834 60.5834 63.5834 63.5834C60.5834 66.5834 57.0556 68.9578 53.0001 70.7067C48.9445 72.4578 44.6112 73.3334 40.0001 73.3334ZM40.0001 66.6667C47.389 66.6667 53.6812 64.07 58.8768 58.8767C64.0701 53.6811 66.6668 47.3889 66.6668 40C66.6668 32.6111 64.0701 26.3189 58.8768 21.1234C53.6812 15.93 47.389 13.3334 40.0001 13.3334C32.6112 13.3334 26.3201 15.93 21.1267 21.1234C15.9312 26.3189 13.3334 32.6111 13.3334 40C13.3334 47.3889 15.9312 53.6811 21.1267 58.8767C26.3201 64.07 32.6112 66.6667 40.0001 66.6667Z" fill="#20A45D"/>
</g>
</svg>
