<svg width="18" height="18" viewBox="0 0 18 18" fill="none" xmlns="http://www.w3.org/2000/svg">
<g id="Icon Base">
<path id="overlay color" d="M7.49986 14.25C7.32462 14.2503 7.15479 14.1893 7.01986 14.0775C6.86648 13.9503 6.77 13.7673 6.7517 13.5689C6.73341 13.3705 6.79481 13.173 6.92236 13.02L10.2824 8.99996L7.04236 4.97246C6.91653 4.81751 6.85766 4.6188 6.87877 4.42032C6.89989 4.22184 6.99925 4.03996 7.15486 3.91496C7.31173 3.77693 7.51908 3.7106 7.72694 3.73196C7.9348 3.75331 8.12433 3.86041 8.24986 4.02746L11.8724 8.52746C12.0998 8.80421 12.0998 9.20321 11.8724 9.47996L8.12236 13.98C7.96976 14.164 7.73853 14.2643 7.49986 14.25Z" fill="#212B36"/>
</g>
</svg>
