<svg width="18" height="18" viewBox="0 0 18 18" fill="none" xmlns="http://www.w3.org/2000/svg">
<g id="fi-sr-building" clip-path="url(#clip0_517_32234)">
<path id="Vector" d="M6.75 0H3.75C2.75544 0 1.80161 0.395088 1.09835 1.09835C0.395088 1.80161 0 2.75544 0 3.75L0 14.25C0 14.7425 0.0969966 15.2301 0.285452 15.6851C0.473907 16.14 0.75013 16.5534 1.09835 16.9016C1.80161 17.6049 2.75544 18 3.75 18H10.5V3.75C10.5 3.25754 10.403 2.76991 10.2145 2.31494C10.0261 1.85997 9.74987 1.44657 9.40165 1.09835C9.05343 0.75013 8.64003 0.473907 8.18506 0.285452C7.73009 0.0969966 7.24246 0 6.75 0V0ZM3.75 14.25H3C2.80109 14.25 2.61032 14.171 2.46967 14.0303C2.32902 13.8897 2.25 13.6989 2.25 13.5C2.25 13.3011 2.32902 13.1103 2.46967 12.9697C2.61032 12.829 2.80109 12.75 3 12.75H3.75C3.94891 12.75 4.13968 12.829 4.28033 12.9697C4.42098 13.1103 4.5 13.3011 4.5 13.5C4.5 13.6989 4.42098 13.8897 4.28033 14.0303C4.13968 14.171 3.94891 14.25 3.75 14.25ZM3.75 11.25H3C2.80109 11.25 2.61032 11.171 2.46967 11.0303C2.32902 10.8897 2.25 10.6989 2.25 10.5C2.25 10.3011 2.32902 10.1103 2.46967 9.96967C2.61032 9.82902 2.80109 9.75 3 9.75H3.75C3.94891 9.75 4.13968 9.82902 4.28033 9.96967C4.42098 10.1103 4.5 10.3011 4.5 10.5C4.5 10.6989 4.42098 10.8897 4.28033 11.0303C4.13968 11.171 3.94891 11.25 3.75 11.25ZM3.75 8.25H3C2.80109 8.25 2.61032 8.17098 2.46967 8.03033C2.32902 7.88968 2.25 7.69891 2.25 7.5C2.25 7.30109 2.32902 7.11032 2.46967 6.96967C2.61032 6.82902 2.80109 6.75 3 6.75H3.75C3.94891 6.75 4.13968 6.82902 4.28033 6.96967C4.42098 7.11032 4.5 7.30109 4.5 7.5C4.5 7.69891 4.42098 7.88968 4.28033 8.03033C4.13968 8.17098 3.94891 8.25 3.75 8.25ZM3.75 5.25H3C2.80109 5.25 2.61032 5.17098 2.46967 5.03033C2.32902 4.88968 2.25 4.69891 2.25 4.5C2.25 4.30109 2.32902 4.11032 2.46967 3.96967C2.61032 3.82902 2.80109 3.75 3 3.75H3.75C3.94891 3.75 4.13968 3.82902 4.28033 3.96967C4.42098 4.11032 4.5 4.30109 4.5 4.5C4.5 4.69891 4.42098 4.88968 4.28033 5.03033C4.13968 5.17098 3.94891 5.25 3.75 5.25ZM7.5 14.25H6.75C6.55109 14.25 6.36032 14.171 6.21967 14.0303C6.07902 13.8897 6 13.6989 6 13.5C6 13.3011 6.07902 13.1103 6.21967 12.9697C6.36032 12.829 6.55109 12.75 6.75 12.75H7.5C7.69891 12.75 7.88968 12.829 8.03033 12.9697C8.17098 13.1103 8.25 13.3011 8.25 13.5C8.25 13.6989 8.17098 13.8897 8.03033 14.0303C7.88968 14.171 7.69891 14.25 7.5 14.25ZM7.5 11.25H6.75C6.55109 11.25 6.36032 11.171 6.21967 11.0303C6.07902 10.8897 6 10.6989 6 10.5C6 10.3011 6.07902 10.1103 6.21967 9.96967C6.36032 9.82902 6.55109 9.75 6.75 9.75H7.5C7.69891 9.75 7.88968 9.82902 8.03033 9.96967C8.17098 10.1103 8.25 10.3011 8.25 10.5C8.25 10.6989 8.17098 10.8897 8.03033 11.0303C7.88968 11.171 7.69891 11.25 7.5 11.25ZM7.5 8.25H6.75C6.55109 8.25 6.36032 8.17098 6.21967 8.03033C6.07902 7.88968 6 7.69891 6 7.5C6 7.30109 6.07902 7.11032 6.21967 6.96967C6.36032 6.82902 6.55109 6.75 6.75 6.75H7.5C7.69891 6.75 7.88968 6.82902 8.03033 6.96967C8.17098 7.11032 8.25 7.30109 8.25 7.5C8.25 7.69891 8.17098 7.88968 8.03033 8.03033C7.88968 8.17098 7.69891 8.25 7.5 8.25ZM7.5 5.25H6.75C6.55109 5.25 6.36032 5.17098 6.21967 5.03033C6.07902 4.88968 6 4.69891 6 4.5C6 4.30109 6.07902 4.11032 6.21967 3.96967C6.36032 3.82902 6.55109 3.75 6.75 3.75H7.5C7.69891 3.75 7.88968 3.82902 8.03033 3.96967C8.17098 4.11032 8.25 4.30109 8.25 4.5C8.25 4.69891 8.17098 4.88968 8.03033 5.03033C7.88968 5.17098 7.69891 5.25 7.5 5.25ZM14.25 3.75H12V18H14.25C15.2442 17.9988 16.1973 17.6033 16.9003 16.9003C17.6033 16.1973 17.9988 15.2442 18 14.25V7.5C17.9988 6.5058 17.6033 5.55267 16.9003 4.84966C16.1973 4.14666 15.2442 3.75119 14.25 3.75ZM15 14.25C14.8517 14.25 14.7067 14.206 14.5833 14.1236C14.46 14.0412 14.3639 13.9241 14.3071 13.787C14.2503 13.65 14.2355 13.4992 14.2644 13.3537C14.2934 13.2082 14.3648 13.0746 14.4697 12.9697C14.5746 12.8648 14.7082 12.7934 14.8537 12.7644C14.9992 12.7355 15.15 12.7503 15.287 12.8071C15.4241 12.8639 15.5412 12.96 15.6236 13.0833C15.706 13.2067 15.75 13.3517 15.75 13.5C15.75 13.6989 15.671 13.8897 15.5303 14.0303C15.3897 14.171 15.1989 14.25 15 14.25ZM15 11.25C14.8517 11.25 14.7067 11.206 14.5833 11.1236C14.46 11.0412 14.3639 10.9241 14.3071 10.787C14.2503 10.65 14.2355 10.4992 14.2644 10.3537C14.2934 10.2082 14.3648 10.0746 14.4697 9.96967C14.5746 9.86478 14.7082 9.79335 14.8537 9.76441C14.9992 9.73547 15.15 9.75032 15.287 9.80709C15.4241 9.86386 15.5412 9.95998 15.6236 10.0833C15.706 10.2067 15.75 10.3517 15.75 10.5C15.75 10.6989 15.671 10.8897 15.5303 11.0303C15.3897 11.171 15.1989 11.25 15 11.25ZM15 8.25C14.8517 8.25 14.7067 8.20601 14.5833 8.1236C14.46 8.04119 14.3639 7.92406 14.3071 7.78701C14.2503 7.64997 14.2355 7.49917 14.2644 7.35368C14.2934 7.2082 14.3648 7.07456 14.4697 6.96967C14.5746 6.86478 14.7082 6.79335 14.8537 6.76441C14.9992 6.73547 15.15 6.75032 15.287 6.80709C15.4241 6.86386 15.5412 6.95999 15.6236 7.08332C15.706 7.20666 15.75 7.35166 15.75 7.5C15.75 7.69891 15.671 7.88968 15.5303 8.03033C15.3897 8.17098 15.1989 8.25 15 8.25Z" fill="#637381"/>
</g>
<defs>
<clipPath id="clip0_517_32234">
<rect width="18" height="18" fill="white"/>
</clipPath>
</defs>
</svg>
