<svg width="24" height="24" viewBox="0 0 24 24" fill="none" xmlns="http://www.w3.org/2000/svg">
<path d="M16.8125 2.83333H15.6666V1.91666C15.6666 1.41067 15.2569 1 14.75 1C14.2431 1 13.8333 1.41067 13.8333 1.91666V2.83333H6.49999V1.91666C6.49999 1.41067 6.09024 1 5.58332 1C5.07641 1 4.66666 1.41067 4.66666 1.91666V2.83333H3.52083C2.13025 2.83333 1 3.96358 1 5.35416V15.6666C1 17.1828 2.23383 18.4166 3.74999 18.4166H8.33332C8.84023 18.4166 9.24998 18.006 9.24998 17.5C9.24998 16.994 8.84023 16.5833 8.33332 16.5833H3.74999C3.244 16.5833 2.83333 16.1717 2.83333 15.6666V8.33332H17.5C17.5 8.83932 17.9097 9.24998 18.4166 9.24998C18.9235 9.24998 19.3333 8.83932 19.3333 8.33332V5.35416C19.3333 3.96358 18.2031 2.83333 16.8125 2.83333Z" fill="#00AB55"/>
<path opacity="0.48" d="M17.0423 11.0834C13.757 11.0834 11.084 13.7564 11.084 17.0417C11.084 20.327 13.757 23 17.0423 23C20.3276 23 23.0006 20.327 23.0006 17.0417C23.0006 13.7564 20.3276 11.0834 17.0423 11.0834ZM19.7978 16.0379L16.8186 19.4754C16.6518 19.6679 16.4125 19.7816 16.1586 19.7917C16.1476 19.7917 16.1366 19.7917 16.1256 19.7917C15.8827 19.7917 15.6499 19.6954 15.4775 19.5231L13.8734 17.9189C13.515 17.5605 13.515 16.9812 13.8734 16.6228C14.2318 16.2643 14.8111 16.2643 15.1696 16.6228L16.078 17.5312L18.4118 14.838C18.7436 14.4549 19.323 14.4154 19.7052 14.7454C20.0874 15.0764 20.1287 15.6557 19.7978 16.0379Z" fill="#00AB55"/>
</svg>
