<svg width="16" height="16" viewBox="0 0 16 16" fill="none" xmlns="http://www.w3.org/2000/svg">
<g id="fi-sr-calendar" clip-path="url(#clip0_205_10503)">
<path id="Vector" d="M0 12.6667C0.00105857 13.5504 0.352588 14.3976 0.97748 15.0225C1.60237 15.6474 2.4496 15.999 3.33333 16H12.6667C13.5504 15.999 14.3976 15.6474 15.0225 15.0225C15.6474 14.3976 15.9989 13.5504 16 12.6667V6.66669H0V12.6667ZM11.3333 9.66669C11.5311 9.66669 11.7245 9.72534 11.8889 9.83522C12.0534 9.9451 12.1815 10.1013 12.2572 10.284C12.3329 10.4667 12.3527 10.6678 12.3141 10.8618C12.2755 11.0558 12.1803 11.2339 12.0404 11.3738C11.9006 11.5136 11.7224 11.6089 11.5284 11.6475C11.3344 11.6861 11.1334 11.6663 10.9507 11.5906C10.7679 11.5149 10.6117 11.3867 10.5019 11.2223C10.392 11.0578 10.3333 10.8645 10.3333 10.6667C10.3333 10.4015 10.4387 10.1471 10.6262 9.95958C10.8138 9.77204 11.0681 9.66669 11.3333 9.66669ZM8 9.66669C8.19778 9.66669 8.39112 9.72534 8.55557 9.83522C8.72002 9.9451 8.84819 10.1013 8.92388 10.284C8.99957 10.4667 9.01937 10.6678 8.98079 10.8618C8.9422 11.0558 8.84696 11.2339 8.70711 11.3738C8.56726 11.5136 8.38907 11.6089 8.19509 11.6475C8.00111 11.6861 7.80004 11.6663 7.61732 11.5906C7.43459 11.5149 7.27841 11.3867 7.16853 11.2223C7.05865 11.0578 7 10.8645 7 10.6667C7 10.4015 7.10536 10.1471 7.29289 9.95958C7.48043 9.77204 7.73478 9.66669 8 9.66669ZM4.66667 9.66669C4.86445 9.66669 5.05779 9.72534 5.22224 9.83522C5.38669 9.9451 5.51486 10.1013 5.59055 10.284C5.66623 10.4667 5.68604 10.6678 5.64745 10.8618C5.60887 11.0558 5.51363 11.2339 5.37377 11.3738C5.23392 11.5136 5.05574 11.6089 4.86176 11.6475C4.66778 11.6861 4.46671 11.6663 4.28398 11.5906C4.10126 11.5149 3.94508 11.3867 3.8352 11.2223C3.72532 11.0578 3.66667 10.8645 3.66667 10.6667C3.66667 10.4015 3.77202 10.1471 3.95956 9.95958C4.1471 9.77204 4.40145 9.66669 4.66667 9.66669Z" fill="#454F5B"/>
<path id="Vector_2" d="M12.6667 1.33333H12V0.666667C12 0.489856 11.9298 0.320286 11.8047 0.195262C11.6797 0.0702379 11.5101 0 11.3333 0C11.1565 0 10.987 0.0702379 10.8619 0.195262C10.7369 0.320286 10.6667 0.489856 10.6667 0.666667V1.33333H5.33333V0.666667C5.33333 0.489856 5.2631 0.320286 5.13807 0.195262C5.01305 0.0702379 4.84348 0 4.66667 0C4.48986 0 4.32029 0.0702379 4.19526 0.195262C4.07024 0.320286 4 0.489856 4 0.666667V1.33333H3.33333C2.4496 1.33439 1.60237 1.68592 0.97748 2.31081C0.352588 2.93571 0.00105857 3.78294 0 4.66667L0 5.33333H16V4.66667C15.9989 3.78294 15.6474 2.93571 15.0225 2.31081C14.3976 1.68592 13.5504 1.33439 12.6667 1.33333Z" fill="#454F5B"/>
</g>
<defs>
<clipPath id="clip0_205_10503">
<rect width="16" height="16" fill="white"/>
</clipPath>
</defs>
</svg>
