<svg width="16" height="16" viewBox="0 0 16 16" fill="none" xmlns="http://www.w3.org/2000/svg">
<g id="fi-sr-chat-arrow-grow" clip-path="url(#clip0_565_20556)">
<path id="Vector" d="M15.0001 2.6507H12.9428C12.811 2.65072 12.6821 2.68984 12.5725 2.76309C12.4629 2.83635 12.3775 2.94046 12.327 3.06226C12.2766 3.18406 12.2634 3.31808 12.2891 3.44738C12.3148 3.57669 12.3783 3.69546 12.4715 3.7887L13.1955 4.5127L10.8048 6.9027C10.6778 7.02409 10.5088 7.09184 10.3331 7.09184C10.1574 7.09184 9.9885 7.02409 9.86148 6.9027L9.74814 6.7887C9.36722 6.42474 8.86065 6.22164 8.33381 6.22164C7.80696 6.22164 7.3004 6.42474 6.91948 6.7887L3.51948 10.1887C3.39421 10.3143 3.32397 10.4846 3.32422 10.662C3.32447 10.8394 3.39518 11.0094 3.52081 11.1347C3.64643 11.26 3.81668 11.3302 3.99409 11.33C4.17149 11.3297 4.34154 11.259 4.46681 11.1334L7.86681 7.73336C7.99375 7.61181 8.16272 7.54396 8.33848 7.54396C8.51423 7.54396 8.6832 7.61181 8.81014 7.73336L8.92348 7.84736C9.30455 8.21101 9.81106 8.4139 10.3378 8.4139C10.8646 8.4139 11.3711 8.21101 11.7521 7.84736L14.1428 5.4567L14.8668 6.1807C14.9604 6.2724 15.0788 6.3345 15.2075 6.35926C15.3361 6.38402 15.4692 6.37033 15.5901 6.31991C15.711 6.26948 15.8144 6.18456 15.8873 6.07574C15.9602 5.96692 15.9995 5.83902 16.0001 5.70803V3.6507C16.0001 3.38548 15.8948 3.13113 15.7072 2.94359C15.5197 2.75605 15.2654 2.6507 15.0001 2.6507Z" fill="#374957"/>
<path id="Vector_2" d="M15.3333 14.6507H3.33333C2.8029 14.6507 2.29419 14.44 1.91912 14.0649C1.54405 13.6898 1.33333 13.1811 1.33333 12.6507V0.666667C1.33333 0.489856 1.2631 0.320286 1.13807 0.195262C1.01305 0.0702379 0.843478 0 0.666667 0C0.489856 0 0.320286 0.0702379 0.195262 0.195262C0.0702379 0.320286 0 0.489856 0 0.666667L0 12.6507C0.00105857 13.5344 0.352588 14.3816 0.97748 15.0065C1.60237 15.6314 2.4496 15.9829 3.33333 15.984H15.3333C15.5101 15.984 15.6797 15.9138 15.8047 15.7887C15.9298 15.6637 16 15.4941 16 15.3173C16 15.1405 15.9298 14.971 15.8047 14.8459C15.6797 14.7209 15.5101 14.6507 15.3333 14.6507Z" fill="#374957"/>
</g>
<defs>
<clipPath id="clip0_565_20556">
<rect width="16" height="16" fill="white"/>
</clipPath>
</defs>
</svg>
