<svg width="24" height="24" viewBox="0 0 24 24" fill="none" xmlns="http://www.w3.org/2000/svg">
<g id="Icon Base">
<path id="overlay color" fill-rule="evenodd" clip-rule="evenodd" d="M16.62 6.20999C16.4109 6.04445 16.1444 5.96929 15.8796 6.00121C15.6148 6.03314 15.3738 6.1695 15.21 6.37999L8.21001 15.38L4.78001 11.2C4.56095 10.9084 4.20051 10.7592 3.83944 10.8106C3.47837 10.8621 3.17395 11.106 3.04503 11.4472C2.91612 11.7883 2.98318 12.1726 3.22001 12.45L7.39001 17.63C7.58064 17.865 7.86742 18.001 8.17001 18C8.49172 18.0144 8.80067 17.8729 9.00001 17.62L16.83 7.61999C16.9913 7.40592 17.0598 7.13608 17.0204 6.871C16.9809 6.60592 16.8366 6.36778 16.62 6.20999ZM21.62 6.20999C21.4109 6.04445 21.1444 5.96929 20.8796 6.00121C20.6148 6.03314 20.3738 6.1695 20.21 6.37999L13.21 15.38L12.6 14.63L11.34 16.25L12.44 17.62C12.6306 17.855 12.9174 17.991 13.22 17.99C13.5243 17.9886 13.8114 17.8487 14 17.61L21.83 7.60999C21.9881 7.39659 22.0548 7.12907 22.0154 6.86643C21.976 6.6038 21.8337 6.36762 21.62 6.20999ZM10 11.44L8.71001 13.06L8.22001 12.41C8.05224 12.2034 7.97374 11.9384 8.00189 11.6738C8.03005 11.4092 8.16253 11.1667 8.37001 11C8.58406 10.8312 8.85773 10.7571 9.12768 10.7949C9.39763 10.8327 9.64048 10.979 9.80001 11.2L10 11.44Z" fill="#00AB55"/>
</g>
</svg>
