<svg width="16" height="16" viewBox="0 0 16 16" fill="none" xmlns="http://www.w3.org/2000/svg">
<g id="Group">
<path id="Vector" d="M15.8127 14.8698L15.0943 14.1515L13.9404 12.9995L15.8006 11.1392C16.0609 10.8785 16.0606 10.4562 15.7999 10.1959C15.7312 10.1274 15.6484 10.0746 15.5572 10.0413L9.57481 7.87094C8.88192 7.6205 8.11722 7.97918 7.86678 8.67207C7.76094 8.9649 7.76088 9.28557 7.86659 9.57847L10.043 15.5609C10.1207 15.775 10.3023 15.9347 10.5246 15.9844C10.5722 15.9948 10.6207 15.9999 10.6694 15.9998C10.8463 15.9998 11.0159 15.9294 11.141 15.8043L12.9992 13.9407L14.1512 15.0927L14.8695 15.811C15.1345 16.0669 15.5568 16.0596 15.8127 15.7946C16.0623 15.5361 16.0623 15.1264 15.8127 14.8679L15.8127 14.8698Z" fill="white"/>
<path id="Vector_2" d="M6.67007 13.3407C2.98631 13.3407 0 10.3543 0 6.67059C0 2.98683 2.98631 0.000488281 6.67007 0.000488281C10.3538 0.000488281 13.3402 2.9868 13.3402 6.67059C13.3402 7.03896 13.0415 7.33759 12.6732 7.33759C12.3048 7.33759 12.0061 7.03896 12.0061 6.67059C12.0061 3.72355 9.61711 1.33451 6.67007 1.33451C3.72303 1.33451 1.33403 3.72355 1.33403 6.67059C1.33403 9.61763 3.72306 12.0067 6.6701 12.0067C7.03848 12.0067 7.3371 12.3053 7.3371 12.6737C7.3371 13.042 7.03844 13.3407 6.67007 13.3407Z" fill="white"/>
<path id="Vector_3" d="M5.3922 10.4188C5.30453 10.4189 5.21774 10.4016 5.13673 10.3681C3.09553 9.52031 2.12807 7.17833 2.97585 5.1371C3.82362 3.09587 6.16563 2.12844 8.20683 2.97622C9.18655 3.38314 9.96463 4.16242 10.3701 5.14276C10.5167 5.48071 10.3616 5.87351 10.0236 6.02011C9.68568 6.16672 9.29288 6.01161 9.14628 5.67369C9.14321 5.66662 9.14027 5.65952 9.13746 5.65236C8.5728 4.29133 7.01172 3.64575 5.65071 4.21041C4.2897 4.77507 3.64409 6.33615 4.20876 7.69716C4.47918 8.34896 4.99681 8.8671 5.64837 9.13814C5.98876 9.279 6.1505 9.66913 6.00961 10.0095C5.90628 10.2592 5.66247 10.4219 5.39224 10.4215L5.3922 10.4188Z" fill="white"/>
</g>
</svg>
