<svg width="16" height="16" viewBox="0 0 16 16" fill="none" xmlns="http://www.w3.org/2000/svg">
<g id="icon/ic_clock_outline">
<path id="Union" fill-rule="evenodd" clip-rule="evenodd" d="M4.29612 2.45685C5.39245 1.72431 6.68138 1.33331 7.99992 1.33331C8.8754 1.33331 9.74231 1.50575 10.5511 1.84078C11.36 2.17581 12.0949 2.66688 12.714 3.28593C13.333 3.90499 13.8241 4.63992 14.1591 5.44876C14.4942 6.25759 14.6666 7.1245 14.6666 7.99998C14.6666 9.31852 14.2756 10.6075 13.5431 11.7038C12.8105 12.8001 11.7693 13.6546 10.5511 14.1592C9.33297 14.6638 7.99253 14.7958 6.69932 14.5385C5.40611 14.2813 4.21823 13.6464 3.28588 12.714C2.35353 11.7817 1.71859 10.5938 1.46135 9.30058C1.20412 8.00738 1.33614 6.66693 1.84072 5.44876C2.34531 4.23058 3.19979 3.18939 4.29612 2.45685ZM5.03688 12.4345C5.91394 13.0205 6.94509 13.3333 7.99992 13.3333C9.41441 13.3333 10.771 12.7714 11.7712 11.7712C12.7714 10.771 13.3333 9.41447 13.3333 7.99998C13.3333 6.94515 13.0205 5.914 12.4344 5.03694C11.8484 4.15988 11.0154 3.47629 10.0409 3.07262C9.06636 2.66895 7.99401 2.56334 6.95944 2.76912C5.92487 2.97491 4.97457 3.48286 4.22869 4.22874C3.48281 4.97462 2.97485 5.92493 2.76907 6.9595C2.56328 7.99406 2.6689 9.06642 3.07256 10.041C3.47623 11.0155 4.15982 11.8485 5.03688 12.4345ZM8.66658 7.33331H10.6666C10.8434 7.33331 11.013 7.40355 11.138 7.52858C11.263 7.6536 11.3333 7.82317 11.3333 7.99998C11.3333 8.17679 11.263 8.34636 11.138 8.47138C11.013 8.59641 10.8434 8.66665 10.6666 8.66665H7.99992C7.82311 8.66665 7.65354 8.59641 7.52851 8.47138C7.40349 8.34636 7.33325 8.17679 7.33325 7.99998V5.33331C7.33325 5.1565 7.40349 4.98693 7.52851 4.86191C7.65354 4.73688 7.82311 4.66665 7.99992 4.66665C8.17673 4.66665 8.3463 4.73688 8.47132 4.86191C8.59635 4.98693 8.66658 5.1565 8.66658 5.33331V7.33331Z" fill="#919EAB"/>
</g>
</svg>
