<svg width="21" height="20" viewBox="0 0 21 20" fill="none" xmlns="http://www.w3.org/2000/svg">
<g id="fi-sr-cube">
<path id="Vector" d="M12.8023 9.65575C12.3468 9.91508 11.8501 10.0944 11.334 10.1858V19.8949C11.7732 19.8094 12.1954 19.6526 12.584 19.4308L17.6065 16.5316C18.2391 16.1648 18.7644 15.6385 19.13 15.0051C19.4956 14.3718 19.6886 13.6537 19.6898 12.9224V7.12242C19.6871 6.67726 19.6126 6.23546 19.469 5.81409L12.8023 9.65575Z" fill="#919EAB"/>
<path id="Vector_2" d="M9.03537 8.21404C9.48169 8.47075 9.98756 8.60586 10.5024 8.60586C11.0173 8.60586 11.5232 8.47075 11.9695 8.21404L18.6362 4.37237C18.3409 4.03311 17.9925 3.74406 17.6045 3.51654L12.5837 0.61404C11.9499 0.249558 11.2315 0.0577393 10.5004 0.0577393C9.76921 0.0577393 9.05086 0.249558 8.41703 0.61404L3.39453 3.51404C3.02041 3.73312 2.68297 4.00953 2.39453 4.33321L9.03537 8.21404Z" fill="#919EAB"/>
<path id="Vector_3" d="M9.66638 10.186C9.14991 10.0948 8.65296 9.91548 8.19721 9.65595L1.54721 5.76929C1.39332 6.20402 1.31332 6.66146 1.31055 7.12262V12.9226C1.31177 13.6539 1.5048 14.372 1.87037 15.0053C2.23595 15.6387 2.76127 16.165 3.39388 16.5318L8.41638 19.431C8.80494 19.6528 9.22718 19.8096 9.66638 19.8951V10.186Z" fill="#919EAB"/>
</g>
</svg>
