<svg width="21" height="20" viewBox="0 0 21 20" fill="none" xmlns="http://www.w3.org/2000/svg">
<g id="fi-sr-apps" clip-path="url(#clip0_267_219)">
<path id="Vector" d="M6.33333 0H3.83333C1.99238 0 0.5 1.49238 0.5 3.33333V5.83333C0.5 7.67428 1.99238 9.16667 3.83333 9.16667H6.33333C8.17428 9.16667 9.66667 7.67428 9.66667 5.83333V3.33333C9.66667 1.49238 8.17428 0 6.33333 0Z" fill="#212B36"/>
<path id="Vector_2" d="M17.1663 0H14.6663C12.8254 0 11.333 1.49239 11.333 3.33334V5.83334C11.333 7.67429 12.8254 9.16667 14.6663 9.16667H17.1663C19.0073 9.16667 20.4997 7.67429 20.4997 5.83334V3.33334C20.4997 1.49239 19.0073 0 17.1663 0Z" fill="#212B36"/>
<path id="Vector_3" d="M6.33333 10.8333H3.83333C1.99238 10.8333 0.5 12.3257 0.5 14.1667V16.6667C0.5 18.5076 1.99238 20 3.83333 20H6.33333C8.17428 20 9.66667 18.5076 9.66667 16.6667V14.1667C9.66667 12.3257 8.17428 10.8333 6.33333 10.8333Z" fill="#212B36"/>
<path id="Vector_4" d="M17.1663 10.8333H14.6663C12.8254 10.8333 11.333 12.3257 11.333 14.1667V16.6667C11.333 18.5076 12.8254 20 14.6663 20H17.1663C19.0073 20 20.4997 18.5076 20.4997 16.6667V14.1667C20.4997 12.3257 19.0073 10.8333 17.1663 10.8333Z" fill="#212B36"/>
</g>
<defs>
<clipPath id="clip0_267_219">
<rect width="20" height="20" fill="white" transform="translate(0.5)"/>
</clipPath>
</defs>
</svg>
