<svg width="22" height="22" viewBox="0 0 22 22" fill="none" xmlns="http://www.w3.org/2000/svg">
<path d="M18.6825 7.85583L17.555 9.55167C18.6595 11.7545 18.5837 14.3649 17.3533 16.5H4.64833C3.03179 13.6956 3.4451 10.1631 5.66535 7.80764C7.8856 5.45219 11.3876 4.83102 14.2825 6.27917L15.9783 5.15167C12.4252 2.87323 7.77544 3.31563 4.7157 6.22326C1.65595 9.13089 0.977224 13.752 3.07166 17.4167C3.39718 17.9805 3.99729 18.3294 4.64833 18.3333H17.3442C18.0018 18.3359 18.6104 17.9862 18.9392 17.4167C20.6613 14.4335 20.5656 10.7368 18.6917 7.84667L18.6825 7.85583Z" fill="#637381"/>
<path opacity="0.48" d="M9.70761 14.1258C10.0515 14.4701 10.5181 14.6635 11.0047 14.6635C11.4913 14.6635 11.9579 14.4701 12.3018 14.1258L17.4901 6.34333L9.70761 11.5317C9.36336 11.8755 9.16992 12.3422 9.16992 12.8287C9.16992 13.3153 9.36336 13.782 9.70761 14.1258Z" fill="#637381"/>
</svg>
