<svg width="24" height="24" viewBox="0 0 24 24" fill="none" xmlns="http://www.w3.org/2000/svg">
<g id="fi-sr-menu-dots">
<g id="Group">
<path id="Vector" d="M11.5 18C12.3284 18 13 17.3284 13 16.5C13 15.6716 12.3284 15 11.5 15C10.6716 15 10 15.6716 10 16.5C10 17.3284 10.6716 18 11.5 18Z" fill="#919EAB"/>
<path id="Vector_2" d="M11.5 13C12.3284 13 13 12.3284 13 11.5C13 10.6716 12.3284 10 11.5 10C10.6716 10 10 10.6716 10 11.5C10 12.3284 10.6716 13 11.5 13Z" fill="#919EAB"/>
<path id="Vector_3" d="M11.5 8C12.3284 8 13 7.32843 13 6.5C13 5.67157 12.3284 5 11.5 5C10.6716 5 10 5.67157 10 6.5C10 7.32843 10.6716 8 11.5 8Z" fill="#919EAB"/>
</g>
</g>
</svg>
