<svg width="16" height="16" viewBox="0 0 16 16" fill="none" xmlns="http://www.w3.org/2000/svg">
<g id="fi-sr-cloud-download" clip-path="url(#clip0_205_10509)">
<path id="Vector" d="M12.2379 4.9073C12.1236 4.87193 12.0198 4.80879 11.9358 4.72352C11.8518 4.63825 11.7902 4.5335 11.7566 4.41863C11.4038 3.28504 10.6829 2.30157 9.70807 1.62399C8.73322 0.94641 7.56015 0.613471 6.37469 0.677909C5.18923 0.742348 4.05916 1.20048 3.16349 1.97974C2.26782 2.75899 1.65776 3.81482 1.42995 4.97996C1.19558 6.15775 1.38445 7.38046 1.96328 8.43263C1.28903 8.78076 0.740755 9.33132 0.395437 10.007C0.050118 10.6827 -0.0748967 11.4496 0.0379473 12.2C0.211715 13.0718 0.67849 13.858 1.36076 14.428C2.04303 14.998 2.89973 15.3174 3.78861 15.3333H9.85528C13.2373 15.3333 15.7559 13.3153 15.9813 10.4253C16.0822 9.21619 15.7657 8.00902 15.0845 7.00495C14.4034 6.00087 13.3987 5.26054 12.2379 4.9073ZM12.4433 12.498L11.3859 13.4406C11.2048 13.62 10.99 13.7617 10.7538 13.8577C10.5177 13.9537 10.2649 14.002 10.0099 14C9.74557 14.0005 9.4837 13.9488 9.23933 13.8479C8.99497 13.747 8.77293 13.5989 8.58595 13.412L7.55661 12.496C7.49122 12.4377 7.43792 12.3672 7.39978 12.2884C7.36164 12.2096 7.3394 12.124 7.33432 12.0366C7.32407 11.8601 7.38437 11.6867 7.50195 11.5546C7.61953 11.4226 7.78476 11.3426 7.96129 11.3323C8.0487 11.3273 8.13626 11.3395 8.21896 11.3682C8.30166 11.397 8.37788 11.4417 8.44328 11.5L9.33328 12.296V7.3333C9.33328 7.15649 9.40352 6.98692 9.52854 6.86189C9.65357 6.73687 9.82314 6.66663 9.99995 6.66663C10.1768 6.66663 10.3463 6.73687 10.4714 6.86189C10.5964 6.98692 10.6666 7.15649 10.6666 7.3333V12.2966L11.5566 11.502C11.6887 11.3844 11.8621 11.3241 12.0386 11.3343C12.2151 11.3446 12.3804 11.4246 12.4979 11.5566C12.6155 11.6887 12.6758 11.8621 12.6656 12.0386C12.6553 12.2152 12.5754 12.3804 12.4433 12.498Z" fill="#454F5B"/>
</g>
<defs>
<clipPath id="clip0_205_10509">
<rect width="16" height="16" fill="white"/>
</clipPath>
</defs>
</svg>
