<svg width="10" height="10" viewBox="0 0 10 10" fill="none" xmlns="http://www.w3.org/2000/svg">
<g id="fi-sr-pencil" clip-path="url(#clip0_186_8918)">
<path id="Vector" d="M0.488333 7.96607C0.175751 8.27856 9.43957e-05 8.70241 0 9.1444L0 9.99981H0.855417C1.29741 9.99972 1.72126 9.82406 2.03375 9.51148L7.59333 3.95191L6.04792 2.40649L0.488333 7.96607Z" fill="#374957"/>
<path id="Vector_2" d="M9.64387 0.356277C9.54241 0.254709 9.42192 0.174134 9.2893 0.119159C9.15668 0.0641848 9.01452 0.0358887 8.87096 0.0358887C8.72739 0.0358887 8.58524 0.0641848 8.45261 0.119159C8.31999 0.174134 8.1995 0.254709 8.09804 0.356277L6.63721 1.81753L8.18262 3.36294L9.64387 1.90211C9.74544 1.80065 9.82602 1.68016 9.88099 1.54754C9.93597 1.41492 9.96426 1.27276 9.96426 1.12919C9.96426 0.985629 9.93597 0.843472 9.88099 0.710849C9.82602 0.578227 9.74544 0.45774 9.64387 0.356277Z" fill="#374957"/>
</g>
<defs>
<clipPath id="clip0_186_8918">
<rect width="10" height="10" fill="white"/>
</clipPath>
</defs>
</svg>
