<svg width="24" height="24" viewBox="0 0 24 24" fill="none" xmlns="http://www.w3.org/2000/svg">
<path d="M4 16C4 16.5304 4.21071 17.0391 4.58579 17.4142C4.96086 17.7893 5.46957 18 6 18L18 18C18.5304 18 19.0391 17.7893 19.4142 17.4142C19.7893 17.0391 20 16.5304 20 16C20 15.4696 19.7893 14.9609 19.4142 14.5858C19.0391 14.2107 18.5304 14 18 14L6 14C5.46957 14 4.96086 14.2107 4.58579 14.5858C4.21071 14.9609 4 15.4696 4 16V16Z" fill="#919EAB"/>
<path d="M4 8C4 8.53043 4.21071 9.03914 4.58579 9.41421C4.96086 9.78929 5.46957 10 6 10L18 10C18.5304 10 19.0391 9.78929 19.4142 9.41421C19.7893 9.03914 20 8.53043 20 8C20 7.46957 19.7893 6.96086 19.4142 6.58579C19.0391 6.21071 18.5304 6 18 6L6 6C5.46957 6 4.96086 6.21071 4.58579 6.58579C4.21071 6.96086 4 7.46957 4 8H4Z" fill="#919EAB"/>
</svg>
