<svg width="10" height="16" viewBox="0 0 10 16" fill="none" xmlns="http://www.w3.org/2000/svg">
<g id="facebook">
<path id="Path" d="M9.16667 0.916551C9.16667 0.686432 8.98012 0.499884 8.75 0.499884H6.66667C4.48276 0.391096 2.62106 2.06663 2.5 4.24988V6.49988H0.416667C0.186548 6.49988 0 6.68643 0 6.91655V9.08322C0 9.31334 0.186548 9.49988 0.416667 9.49988H2.5V15.0832C2.5 15.3133 2.68655 15.4999 2.91667 15.4999H5.41667C5.64679 15.4999 5.83333 15.3133 5.83333 15.0832V9.49988H8.01667C8.20729 9.50262 8.37545 9.37564 8.425 9.19155L9.025 7.02488C9.0586 6.90011 9.03241 6.76681 8.9541 6.66403C8.87578 6.56124 8.75422 6.50061 8.625 6.49988H5.83333V4.24988C5.87629 3.82247 6.2371 3.49773 6.66667 3.49988H8.75C8.98012 3.49988 9.16667 3.31334 9.16667 3.08322V0.916551Z" fill="#00747B"/>
</g>
</svg>
