<svg width="16" height="16" viewBox="0 0 16 16" fill="none" xmlns="http://www.w3.org/2000/svg">
<g id="fi-sr-flip-horizontal" clip-path="url(#clip0_578_22059)">
<path id="Vector" d="M6.80461 0.0455645H6.79995C6.6506 0.0118241 6.49419 0.0305177 6.35701 0.098504C6.21982 0.16649 6.11022 0.279625 6.04661 0.418898L0.249944 13.1729C0.11153 13.4775 0.051758 13.812 0.0761012 14.1457C0.100444 14.4795 0.208125 14.8017 0.389282 15.083C0.570439 15.3644 0.819282 15.5957 1.11302 15.756C1.40676 15.9162 1.73601 16.0002 2.07061 16.0002H6.66661C6.84342 16.0002 7.01299 15.93 7.13802 15.805C7.26304 15.6799 7.33328 15.5104 7.33328 15.3336V0.697565C7.33201 0.545082 7.27902 0.397547 7.18298 0.279103C7.08694 0.160659 6.95354 0.0783214 6.80461 0.0455645ZM5.99995 14.6669H2.07061C1.95901 14.667 1.84917 14.639 1.75117 14.5856C1.65317 14.5323 1.57015 14.4551 1.5097 14.3613C1.44926 14.2675 1.41334 14.16 1.40523 14.0487C1.39711 13.9374 1.41707 13.8258 1.46328 13.7242L5.99995 3.74423V14.6669Z" fill="#00AB55"/>
<path id="Vector_2" d="M15.7498 13.1726L9.95317 0.418579C9.88654 0.278508 9.77412 0.165364 9.63448 0.0978452C9.49483 0.030327 9.33633 0.012477 9.18517 0.0472455C9.03786 0.0807862 8.9063 0.163371 8.81207 0.281465C8.71784 0.39956 8.66651 0.546161 8.6665 0.697246V15.3332C8.6665 15.5101 8.73674 15.6796 8.86177 15.8047C8.98679 15.9297 9.15636 15.9999 9.33317 15.9999H13.9292C14.2638 15.9999 14.593 15.9159 14.8868 15.7557C15.1805 15.5954 15.4293 15.364 15.6105 15.0827C15.7916 14.8014 15.8993 14.4791 15.9237 14.1454C15.948 13.8117 15.8882 13.4772 15.7498 13.1726Z" fill="#00AB55"/>
</g>
<defs>
<clipPath id="clip0_578_22059">
<rect width="16" height="16" fill="white"/>
</clipPath>
</defs>
</svg>
