<svg width="18" height="18" viewBox="0 0 18 18" fill="none" xmlns="http://www.w3.org/2000/svg">
<g id="fi-sr-chart-tree" clip-path="url(#clip0_615_20416)">
<path id="Vector" d="M16.5 13.6379V13.4999C16.4988 12.5057 16.1033 11.5526 15.4003 10.8496C14.6973 10.1466 13.7442 9.75111 12.75 9.74992H9.75001V8.93242C10.8626 8.74437 11.8639 8.14522 12.5555 7.25372C13.2471 6.36222 13.5786 5.24342 13.4842 4.11904C13.3899 2.99467 12.8766 1.94676 12.046 1.183C11.2155 0.419242 10.1283 -0.00463867 9.00001 -0.00463867C7.87168 -0.00463867 6.78452 0.419242 5.95398 1.183C5.12344 1.94676 4.61013 2.99467 4.51577 4.11904C4.42141 5.24342 4.75289 6.36222 5.44452 7.25372C6.13615 8.14522 7.13746 8.74437 8.25001 8.93242V9.74992H5.25001C4.25581 9.75111 3.30267 10.1466 2.59967 10.8496C1.89667 11.5526 1.5012 12.5057 1.5 13.4999V13.6379C0.999594 13.8148 0.577839 14.163 0.309281 14.6208C0.0407231 15.0786 -0.0573456 15.6166 0.0324079 16.1397C0.122161 16.6628 0.393958 17.1374 0.79976 17.4795C1.20556 17.8216 1.71924 18.0092 2.25 18.0092C2.78077 18.0092 3.29445 17.8216 3.70025 17.4795C4.10605 17.1374 4.37785 16.6628 4.4676 16.1397C4.55736 15.6166 4.45929 15.0786 4.19073 14.6208C3.92217 14.163 3.50042 13.8148 3.00001 13.6379V13.4999C3.00001 12.9032 3.23706 12.3309 3.65901 11.9089C4.08097 11.487 4.65327 11.2499 5.25001 11.2499H8.25001V13.6379C7.7496 13.8148 7.32784 14.163 7.05928 14.6208C6.79072 15.0786 6.69266 15.6166 6.78241 16.1397C6.87216 16.6628 7.14396 17.1374 7.54976 17.4795C7.95556 17.8216 8.46924 18.0092 9.00001 18.0092C9.53077 18.0092 10.0444 17.8216 10.4503 17.4795C10.8561 17.1374 11.1278 16.6628 11.2176 16.1397C11.3074 15.6166 11.2093 15.0786 10.9407 14.6208C10.6722 14.163 10.2504 13.8148 9.75001 13.6379V11.2499H12.75C13.3467 11.2499 13.919 11.487 14.341 11.9089C14.763 12.3309 15 12.9032 15 13.4999V13.6379C14.4996 13.8148 14.0778 14.163 13.8093 14.6208C13.5407 15.0786 13.4427 15.6166 13.5324 16.1397C13.6222 16.6628 13.894 17.1374 14.2998 17.4795C14.7056 17.8216 15.2192 18.0092 15.75 18.0092C16.2808 18.0092 16.7944 17.8216 17.2003 17.4795C17.6061 17.1374 17.8778 16.6628 17.9676 16.1397C18.0574 15.6166 17.9593 15.0786 17.6907 14.6208C17.4222 14.163 17.0004 13.8148 16.5 13.6379Z" fill="#212B36"/>
</g>
<defs>
<clipPath id="clip0_615_20416">
<rect width="18" height="18" fill="white"/>
</clipPath>
</defs>
</svg>
