<svg width="18" height="18" viewBox="0 0 18 18" fill="none" xmlns="http://www.w3.org/2000/svg">
<g id="logo-instagram">
<path id="Combined Shape" fill-rule="evenodd" clip-rule="evenodd" d="M5.56407 0.716748C6.45296 0.67647 6.73664 0.666748 8.99984 0.666748C11.263 0.666748 11.5467 0.67647 12.4356 0.716748C13.7905 0.778554 14.9797 1.1105 15.9346 2.06536C16.8898 3.02057 17.2214 4.21015 17.2832 5.56432C17.3235 6.45321 17.3332 6.73689 17.3332 9.00008C17.3332 11.2633 17.3235 11.547 17.2832 12.4358C17.2214 13.7907 16.8894 14.9799 15.9346 15.9348C14.9794 16.89 13.7894 17.2216 12.4356 17.2834C11.5467 17.3237 11.263 17.3334 8.99984 17.3334C6.73664 17.3334 6.45296 17.3237 5.56407 17.2834C4.20921 17.2216 3.01998 16.8897 2.06512 15.9348C1.10991 14.9796 0.778309 13.79 0.716504 12.4358C0.676226 11.547 0.666504 11.2633 0.666504 9.00008C0.666504 6.73689 0.676226 6.45321 0.716504 5.56432C0.778309 4.20946 1.11025 3.02022 2.06512 2.06536C3.02032 1.11015 4.20991 0.778554 5.56407 0.716748ZM8.99984 3.44453C7.49116 3.44453 7.30192 3.45078 6.70921 3.47786C5.80643 3.51918 5.01338 3.74036 4.37657 4.37682C3.74012 5.01328 3.51893 5.80633 3.47762 6.70946C3.45053 7.30217 3.44428 7.4914 3.44428 9.00008C3.44428 10.5088 3.45053 10.698 3.47762 11.2907C3.51893 12.1935 3.74012 12.9865 4.37657 13.6233C5.01303 14.2598 5.80609 14.481 6.70921 14.5223C7.30192 14.5494 7.49116 14.5556 8.99984 14.5556C10.5085 14.5556 10.6978 14.5494 11.2905 14.5223C12.1932 14.481 12.9863 14.2598 13.6231 13.6233C14.2596 12.9869 14.4807 12.1938 14.5221 11.2907C14.5491 10.698 14.5554 10.5088 14.5554 9.00008C14.5554 7.4914 14.5491 7.30217 14.5221 6.70946C14.4807 5.80668 14.2596 5.01362 13.6231 4.37682C12.9866 3.74036 12.1936 3.51918 11.2905 3.47786C10.6978 3.45078 10.5085 3.44453 8.99984 3.44453ZM8.99984 4.44557C10.4832 4.44557 10.6589 4.45112 11.2446 4.47786C11.8769 4.50668 12.4637 4.63341 12.9151 5.0848C13.3665 5.53619 13.4932 6.123 13.5221 6.75529C13.5488 7.34105 13.5544 7.51675 13.5544 9.00008C13.5544 10.4834 13.5488 10.6591 13.5221 11.2449C13.4932 11.8772 13.3665 12.464 12.9151 12.9154C12.4637 13.3667 11.8769 13.4935 11.2446 13.5223C10.6589 13.549 10.4832 13.5546 8.99984 13.5546C7.5165 13.5546 7.34081 13.549 6.75505 13.5223C6.12275 13.4935 5.53595 13.3667 5.08456 12.9154C4.63317 12.464 4.50643 11.8772 4.47761 11.2449C4.45088 10.6591 4.44532 10.4834 4.44532 9.00008C4.44532 7.51675 4.45088 7.34105 4.47761 6.75529C4.50643 6.123 4.63317 5.53619 5.08456 5.0848C5.53595 4.63341 6.12275 4.50668 6.75505 4.47786C7.34081 4.45112 7.5165 4.44557 8.99984 4.44557ZM6.14706 9.00008C6.14706 7.42474 7.42414 6.1473 8.99984 6.1473C10.5755 6.1473 11.8526 7.42474 11.8526 9.00008C11.8526 10.5754 10.5752 11.8529 8.99984 11.8529C7.42449 11.8529 6.14706 10.5754 6.14706 9.00008ZM7.1481 9.00008C7.1481 10.0227 7.97692 10.8518 8.99984 10.8518C10.0228 10.8518 10.8516 10.023 10.8516 9.00008C10.8516 7.97751 10.0228 7.14835 8.99984 7.14835C7.97727 7.14835 7.1481 7.97716 7.1481 9.00008ZM11.9655 6.70112C12.3337 6.70112 12.6321 6.40265 12.6321 6.03446C12.6321 5.66627 12.3337 5.36779 11.9655 5.36779C11.5973 5.36779 11.2988 5.66627 11.2988 6.03446C11.2988 6.40265 11.5973 6.70112 11.9655 6.70112Z" fill="#00747B"/>
</g>
</svg>
