<svg width="16" height="16" viewBox="0 0 16 16" fill="none" xmlns="http://www.w3.org/2000/svg">
<g id="linkedin">
<path id="Path" d="M10.625 5.00003C9.33505 4.9956 8.09629 5.50436 7.18181 6.41415C6.26733 7.32394 5.75221 8.56007 5.75 9.85003V14.75C5.75 14.9489 5.82902 15.1397 5.96967 15.2804C6.11032 15.421 6.30109 15.5 6.5 15.5H8.25C8.66421 15.5 9 15.1642 9 14.75V9.85003C8.99967 9.39059 9.19483 8.95272 9.53672 8.64581C9.87861 8.33891 10.3349 8.19196 10.7917 8.2417C11.63 8.34728 12.2566 9.06347 12.25 9.90836V14.75C12.25 15.1642 12.5858 15.5 13 15.5H14.75C15.1642 15.5 15.5 15.1642 15.5 14.75V9.85003C15.4978 8.56007 14.9827 7.32394 14.0682 6.41415C13.1537 5.50436 11.915 4.9956 10.625 5.00003Z" fill="#00747B"/>
<rect id="Rectangle" x="0.5" y="5.75" width="3.75" height="9.75" rx="0.9" fill="#00747B"/>
<circle id="Oval" cx="2.375" cy="2.375" r="1.875" fill="#00747B"/>
</g>
</svg>
