<svg width="16" height="16" viewBox="0 0 16 16" fill="none" xmlns="http://www.w3.org/2000/svg">
<g id="Group">
<path id="Vector" d="M1.33334 11.6666H3C3.73637 11.6666 4.33334 12.2636 4.33334 13V14.6666C4.33334 15.403 3.73637 16 3 16H1.33334C0.596969 16 0 15.403 0 14.6666V13C0 12.2636 0.596969 11.6666 1.33334 11.6666Z" fill="#637381"/>
<path id="Vector_2" d="M15.4118 11.8946C15.1919 11.7456 14.9322 11.6662 14.6665 11.6666H12.9998C12.2635 11.6666 11.6665 12.2636 11.6665 13V14.6666C11.6665 15.403 12.2635 16 12.9998 16H14.6665C15.4029 16 15.9998 15.403 15.9998 14.6666V13C15.9998 12.5567 15.7794 12.1424 15.4118 11.8946Z" fill="#374957"/>
<path id="Vector_3" d="M1.33334 5.83337H3C3.73637 5.83337 4.33334 6.43034 4.33334 7.16672V8.83338C4.33334 9.56976 3.73637 10.1667 3 10.1667H1.33334C0.596969 10.1667 0 9.56976 0 8.83338V7.16672C0 6.43031 0.596969 5.83337 1.33334 5.83337Z" fill="#374957"/>
<path id="Vector_4" d="M15.4118 6.06132C15.1919 5.91231 14.9322 5.83288 14.6665 5.83331H12.9998C12.2635 5.83331 11.6665 6.43028 11.6665 7.16666V8.83332C11.6665 9.5697 12.2635 10.1667 12.9998 10.1667H14.6665C15.4029 10.1667 15.9998 9.5697 15.9998 8.83332V7.16666C15.9998 6.72335 15.7794 6.3091 15.4118 6.06132Z" fill="#374957"/>
<path id="Vector_5" d="M1.33334 0H3C3.73637 0 4.33334 0.596969 4.33334 1.33334V3C4.33334 3.73637 3.73637 4.33334 3 4.33334H1.33334C0.596969 4.33334 0 3.73637 0 3V1.33334C0 0.596969 0.596969 0 1.33334 0Z" fill="#374957"/>
<path id="Vector_6" d="M9.57885 11.8946C9.35888 11.7456 9.09919 11.6662 8.8335 11.6666H7.16684C6.43047 11.6666 5.8335 12.2636 5.8335 13V14.6666C5.8335 15.403 6.43047 16 7.16684 16H8.8335C9.56988 16 10.1668 15.403 10.1668 14.6666V13C10.1668 12.5567 9.94641 12.1424 9.57885 11.8946Z" fill="#374957"/>
<path id="Vector_7" d="M9.57885 6.06132C9.35888 5.91231 9.09919 5.83288 8.8335 5.83331H7.16684C6.43047 5.83331 5.8335 6.43028 5.8335 7.16666V8.83332C5.8335 9.5697 6.43047 10.1667 7.16684 10.1667H8.8335C9.56988 10.1667 10.1668 9.5697 10.1668 8.83332V7.16666C10.1668 6.72335 9.94641 6.3091 9.57885 6.06132Z" fill="#374957"/>
<path id="Vector_8" d="M9.57885 0.227941C9.35888 0.0789408 9.09919 -0.000496738 8.8335 -5.92377e-05H7.16684C6.43047 -5.92377e-05 5.8335 0.59691 5.8335 1.33328V2.99994C5.8335 3.73632 6.43047 4.33328 7.16684 4.33328H8.8335C9.56988 4.33328 10.1668 3.73632 10.1668 2.99994V1.33328C10.1668 0.890003 9.94641 0.475722 9.57885 0.227941Z" fill="#374957"/>
<path id="Vector_9" d="M15.7718 0.588C15.5241 0.220437 15.1098 6.25e-05 14.6665 0H12.9998C12.2635 0 11.6665 0.596969 11.6665 1.33334V3C11.6665 3.73637 12.2635 4.33334 12.9998 4.33334H14.6665C15.4029 4.33334 15.9998 3.73637 15.9998 3V1.33334C16.0003 1.06766 15.9208 0.807969 15.7718 0.588Z" fill="#374957"/>
</g>
</svg>
