<svg width="10" height="10" viewBox="0 0 10 10" fill="none" xmlns="http://www.w3.org/2000/svg">
<g id="fi-sr-pause" clip-path="url(#clip0_186_8924)">
<path id="Vector" d="M2.70833 0C2.32156 0 1.95063 0.153645 1.67714 0.427136C1.40365 0.700626 1.25 1.07156 1.25 1.45833V8.54167C1.25 8.92844 1.40365 9.29937 1.67714 9.57286C1.95063 9.84635 2.32156 10 2.70833 10C3.09511 10 3.46604 9.84635 3.73953 9.57286C4.01302 9.29937 4.16667 8.92844 4.16667 8.54167V1.45833C4.16667 1.07156 4.01302 0.700626 3.73953 0.427136C3.46604 0.153645 3.09511 0 2.70833 0Z" fill="#374957"/>
<path id="Vector_2" d="M7.29183 0C6.90506 0 6.53412 0.153645 6.26063 0.427136C5.98714 0.700626 5.8335 1.07156 5.8335 1.45833V8.54167C5.8335 8.92844 5.98714 9.29937 6.26063 9.57286C6.53412 9.84635 6.90506 10 7.29183 10C7.6786 10 8.04954 9.84635 8.32303 9.57286C8.59652 9.29937 8.75016 8.92844 8.75016 8.54167V1.45833C8.75016 1.07156 8.59652 0.700626 8.32303 0.427136C8.04954 0.153645 7.6786 0 7.29183 0Z" fill="#374957"/>
</g>
<defs>
<clipPath id="clip0_186_8924">
<rect width="10" height="10" fill="white"/>
</clipPath>
</defs>
</svg>
