<svg width="21" height="20" viewBox="0 0 21 20" fill="none" xmlns="http://www.w3.org/2000/svg">
<g id="fi-sr-chart-histogram" clip-path="url(#clip0_267_228)">
<path id="Vector" d="M19.6667 18.3333H4.66667C4.00363 18.3333 3.36774 18.0699 2.8989 17.6011C2.43006 17.1323 2.16667 16.4964 2.16667 15.8333V0.833333C2.16667 0.61232 2.07887 0.400358 1.92259 0.244078C1.76631 0.0877974 1.55435 0 1.33333 0C1.11232 0 0.900358 0.0877974 0.744078 0.244078C0.587797 0.400358 0.5 0.61232 0.5 0.833333L0.5 15.8333C0.501323 16.938 0.940735 17.997 1.72185 18.7782C2.50296 19.5593 3.562 19.9987 4.66667 20H19.6667C19.8877 20 20.0996 19.9122 20.2559 19.7559C20.4122 19.5996 20.5 19.3877 20.5 19.1667C20.5 18.9457 20.4122 18.7337 20.2559 18.5774C20.0996 18.4211 19.8877 18.3333 19.6667 18.3333Z" fill="#637381"/>
<path id="Vector_2" d="M5.50032 16.6666C5.72134 16.6666 5.9333 16.5788 6.08958 16.4225C6.24586 16.2663 6.33366 16.0543 6.33366 15.8333V9.99996C6.33366 9.77895 6.24586 9.56698 6.08958 9.4107C5.9333 9.25442 5.72134 9.16663 5.50032 9.16663C5.27931 9.16663 5.06735 9.25442 4.91107 9.4107C4.75479 9.56698 4.66699 9.77895 4.66699 9.99996V15.8333C4.66699 16.0543 4.75479 16.2663 4.91107 16.4225C5.06735 16.5788 5.27931 16.6666 5.50032 16.6666Z" fill="#637381"/>
<path id="Vector_3" d="M8.83301 8.33333V15.8333C8.83301 16.0543 8.92081 16.2663 9.07709 16.4226C9.23337 16.5789 9.44533 16.6667 9.66635 16.6667C9.88736 16.6667 10.0993 16.5789 10.2556 16.4226C10.4119 16.2663 10.4997 16.0543 10.4997 15.8333V8.33333C10.4997 8.11232 10.4119 7.90036 10.2556 7.74408C10.0993 7.5878 9.88736 7.5 9.66635 7.5C9.44533 7.5 9.23337 7.5878 9.07709 7.74408C8.92081 7.90036 8.83301 8.11232 8.83301 8.33333Z" fill="#637381"/>
<path id="Vector_4" d="M13 10.8333V15.8333C13 16.0543 13.0878 16.2663 13.2441 16.4226C13.4004 16.5789 13.6123 16.6667 13.8333 16.6667C14.0544 16.6667 14.2663 16.5789 14.4226 16.4226C14.5789 16.2663 14.6667 16.0543 14.6667 15.8333V10.8333C14.6667 10.6123 14.5789 10.4004 14.4226 10.2441C14.2663 10.0878 14.0544 10 13.8333 10C13.6123 10 13.4004 10.0878 13.2441 10.2441C13.0878 10.4004 13 10.6123 13 10.8333Z" fill="#637381"/>
<path id="Vector_5" d="M17.167 7.4999V15.8332C17.167 16.0542 17.2548 16.2662 17.4111 16.4225C17.5674 16.5788 17.7793 16.6666 18.0003 16.6666C18.2213 16.6666 18.4333 16.5788 18.5896 16.4225C18.7459 16.2662 18.8337 16.0542 18.8337 15.8332V7.4999C18.8337 7.27888 18.7459 7.06692 18.5896 6.91064C18.4333 6.75436 18.2213 6.66656 18.0003 6.66656C17.7793 6.66656 17.5674 6.75436 17.4111 6.91064C17.2548 7.06692 17.167 7.27888 17.167 7.4999Z" fill="#637381"/>
<path id="Vector_6" d="M5.49966 7.49995C5.72066 7.49991 5.93258 7.41208 6.08883 7.25579L9.07716 4.26745C9.23599 4.11614 9.44696 4.03174 9.66633 4.03174C9.8857 4.03174 10.0967 4.11614 10.2555 4.26745L12.0655 6.07745C12.5343 6.54613 13.1701 6.80942 13.833 6.80942C14.4959 6.80942 15.1317 6.54613 15.6005 6.07745L20.2555 1.42245C20.4073 1.26528 20.4913 1.05478 20.4894 0.836285C20.4875 0.617788 20.3998 0.408777 20.2453 0.254271C20.0908 0.0997638 19.8818 0.0121231 19.6633 0.0102244C19.4448 0.00832569 19.2343 0.092321 19.0772 0.244119L14.4222 4.89829C14.2659 5.05451 14.054 5.14227 13.833 5.14227C13.612 5.14227 13.4001 5.05451 13.2438 4.89829L11.4338 3.08912C10.965 2.62044 10.3292 2.35715 9.66633 2.35715C9.00342 2.35715 8.36765 2.62044 7.89883 3.08912L4.91049 6.07745C4.79399 6.194 4.71465 6.34247 4.68251 6.50409C4.65037 6.66572 4.66687 6.83325 4.72993 6.9855C4.79299 7.13775 4.89977 7.26788 5.03678 7.35945C5.17379 7.45102 5.33487 7.49992 5.49966 7.49995Z" fill="#637381"/>
</g>
<defs>
<clipPath id="clip0_267_228">
<rect width="20" height="20" fill="white" transform="translate(0.5)"/>
</clipPath>
</defs>
</svg>
