<svg width="16" height="16" viewBox="0 0 16 16" fill="none" xmlns="http://www.w3.org/2000/svg">
<g id="Group">
<path id="Vector" d="M15.3062 8C14.9689 7.99559 14.6835 8.24809 14.6468 8.58334C14.3356 12.2632 11.1002 14.9939 7.42041 14.6827C3.7406 14.3715 1.00985 11.1361 1.3211 7.45625C1.63235 3.77644 4.86769 1.04569 8.54751 1.35691C10.1407 1.49166 11.6329 2.19284 12.7535 3.33331H10.6722C10.304 3.33331 10.0055 3.63178 10.0055 3.99997C10.0055 4.36816 10.304 4.66663 10.6722 4.66663H13.4342C14.1177 4.66625 14.6718 4.11219 14.6722 3.42863V0.666656C14.6722 0.298469 14.3737 0 14.0055 0C13.6373 0 13.3389 0.298469 13.3389 0.666656V2.052C10.0484 -0.888281 4.99735 -0.604406 2.05707 2.68606C-0.883212 5.97653 -0.599337 11.0275 2.69113 13.9678C5.9816 16.9081 11.0326 16.6242 13.9729 13.3337C15.1159 12.0547 15.8169 10.4417 15.9722 8.73331C16.0064 8.36413 15.7349 8.03709 15.3657 8.00284C15.3459 8.00103 15.3261 8.00006 15.3062 8Z" fill="#00AB55"/>
</g>
</svg>
