<svg width="18" height="18" viewBox="0 0 18 18" fill="none" xmlns="http://www.w3.org/2000/svg">
<g id="fi-sr-megaphone" clip-path="url(#clip0_186_8782)">
<path id="Vector" d="M13.5 14.25V0.75C13.5 0.551088 13.421 0.360322 13.2803 0.21967C13.1397 0.0790176 12.9489 0 12.75 0C12.5511 0 12.3603 0.0790176 12.2197 0.21967C12.079 0.360322 12 0.551088 12 0.75C12 2.96175 10.0628 3.75 8.25 3.75H3C2.20435 3.75 1.44129 4.06607 0.87868 4.62868C0.316071 5.19129 0 5.95435 0 6.75L0 8.25C0 9.04565 0.316071 9.80871 0.87868 10.3713C1.44129 10.9339 2.20435 11.25 3 11.25H8.25C10.0628 11.25 12 12.0382 12 14.25C12 14.4489 12.079 14.6397 12.2197 14.7803C12.3603 14.921 12.5511 15 12.75 15C12.9489 15 13.1397 14.921 13.2803 14.7803C13.421 14.6397 13.5 14.4489 13.5 14.25ZM6.1395 12.75H3C2.65081 12.7486 2.30297 12.7066 1.9635 12.6248L3.8385 16.8113C3.99597 17.1651 4.25264 17.4657 4.57743 17.6767C4.90222 17.8877 5.2812 18 5.6685 18C5.97664 17.9996 6.27978 17.9221 6.55029 17.7745C6.8208 17.6269 7.05008 17.414 7.21723 17.1552C7.38439 16.8963 7.4841 16.5997 7.50729 16.2925C7.53048 15.9852 7.47641 15.677 7.35 15.396L6.1395 12.75Z" fill="#212B36"/>
<path id="Vector_2" d="M6.13938 12.75H2.99988C2.65069 12.7486 2.30285 12.7066 1.96338 12.6248L3.83838 16.8113C3.99585 17.1651 4.25252 17.4657 4.57731 17.6767C4.9021 17.8877 5.28108 18 5.66838 18C5.97652 17.9996 6.27966 17.9221 6.55017 17.7745C6.82067 17.6269 7.04995 17.414 7.21711 17.1552C7.38427 16.8963 7.48398 16.5997 7.50717 16.2925C7.53036 15.9852 7.47629 15.677 7.34988 15.396L6.13938 12.75Z" fill="#919EAB"/>
<g id="Vector_3">
<path d="M16.9158 11.9212C17.0197 11.973 17.1342 12 17.2503 12C17.4195 12.0003 17.5838 11.9434 17.7165 11.8386C17.8493 11.7338 17.9427 11.5872 17.9816 11.4225C18.0206 11.2579 18.0027 11.085 17.9309 10.9318C17.8592 10.7786 17.7377 10.6542 17.5863 10.5787L16.0863 9.82873C15.9083 9.73982 15.7022 9.72527 15.5135 9.78828C15.3247 9.85129 15.1687 9.9867 15.0798 10.1647C14.9909 10.3428 14.9763 10.5488 15.0394 10.7376C15.1024 10.9263 15.2378 11.0823 15.4158 11.1712L16.9158 11.9212Z" fill="#212B36"/>
<path d="M17.5856 4.42498L16.0856 5.17498C15.9075 5.2639 15.7015 5.27845 15.5127 5.21543C15.324 5.15242 15.168 5.01701 15.0791 4.83898C14.9901 4.66095 14.9756 4.4549 15.0386 4.26614C15.1016 4.07739 15.237 3.9214 15.4151 3.83248L16.9151 3.08248C17.0931 2.99357 17.2991 2.97902 17.4879 3.04203C17.6767 3.10504 17.8326 3.24045 17.9216 3.41848C18.0105 3.59651 18.025 3.80256 17.962 3.99132C17.899 4.18007 17.7636 4.33607 17.5856 4.42498Z" fill="#212B36"/>
<path d="M17.7806 6.96965C17.9213 7.1103 18.0003 7.30107 18.0003 7.49998C18.0003 7.69889 17.9213 7.88966 17.7806 8.03031C17.64 8.17096 17.4492 8.24998 17.2503 8.24998H15.7503C15.5514 8.24998 15.3606 8.17096 15.22 8.03031C15.0793 7.88966 15.0003 7.69889 15.0003 7.49998C15.0003 7.30107 15.0793 7.1103 15.22 6.96965C15.3606 6.829 15.5514 6.74998 15.7503 6.74998H17.2503C17.4492 6.74998 17.64 6.829 17.7806 6.96965Z" fill="#212B36"/>
</g>
</g>
<defs>
<clipPath id="clip0_186_8782">
<rect width="18" height="18" fill="white"/>
</clipPath>
</defs>
</svg>
