<svg width="21" height="20" viewBox="0 0 21 20" fill="none" xmlns="http://www.w3.org/2000/svg">
<g id="fi-sr-document" clip-path="url(#clip0_267_236)">
<path id="Vector" d="M12.167 5.83333V0.383333C12.9379 0.674446 13.6381 1.12609 14.2212 1.70833L17.1245 4.61333C17.7074 5.19573 18.1594 5.89575 18.4503 6.66667H13.0003C12.7793 6.66667 12.5674 6.57887 12.4111 6.42259C12.2548 6.26631 12.167 6.05435 12.167 5.83333ZM18.8337 8.7375V15.8333C18.8323 16.938 18.3929 17.997 17.6118 18.7782C16.8307 19.5593 15.7717 19.9987 14.667 20H6.33366C5.229 19.9987 4.16996 19.5593 3.38884 18.7782C2.60773 17.997 2.16832 16.938 2.16699 15.8333V4.16667C2.16832 3.062 2.60773 2.00296 3.38884 1.22185C4.16996 0.440735 5.229 0.00132321 6.33366 0L10.0962 0C10.232 0 10.3662 0.0108333 10.5003 0.02V5.83333C10.5003 6.49637 10.7637 7.13226 11.2326 7.6011C11.7014 8.06994 12.3373 8.33333 13.0003 8.33333H18.8137C18.8228 8.4675 18.8337 8.60167 18.8337 8.7375ZM12.167 15.8333C12.167 15.6123 12.0792 15.4004 11.9229 15.2441C11.7666 15.0878 11.5547 15 11.3337 15H7.16699C6.94598 15 6.73402 15.0878 6.57774 15.2441C6.42146 15.4004 6.33366 15.6123 6.33366 15.8333C6.33366 16.0543 6.42146 16.2663 6.57774 16.4226C6.73402 16.5789 6.94598 16.6667 7.16699 16.6667H11.3337C11.5547 16.6667 11.7666 16.5789 11.9229 16.4226C12.0792 16.2663 12.167 16.0543 12.167 15.8333ZM14.667 12.5C14.667 12.279 14.5792 12.067 14.4229 11.9107C14.2666 11.7545 14.0547 11.6667 13.8337 11.6667H7.16699C6.94598 11.6667 6.73402 11.7545 6.57774 11.9107C6.42146 12.067 6.33366 12.279 6.33366 12.5C6.33366 12.721 6.42146 12.933 6.57774 13.0893C6.73402 13.2455 6.94598 13.3333 7.16699 13.3333H13.8337C14.0547 13.3333 14.2666 13.2455 14.4229 13.0893C14.5792 12.933 14.667 12.721 14.667 12.5Z" fill="#637381"/>
</g>
<defs>
<clipPath id="clip0_267_236">
<rect width="20" height="20" fill="white" transform="translate(0.5)"/>
</clipPath>
</defs>
</svg>
