<svg width="18" height="18" viewBox="0 0 18 18" fill="none" xmlns="http://www.w3.org/2000/svg">
<g id="fi-sr-comment-user" clip-path="url(#clip0_517_32222)">
<path id="Vector" d="M8.99968 5.95939C9.63053 5.95939 10.1419 5.44798 10.1419 4.81713C10.1419 4.18629 9.63053 3.67487 8.99968 3.67487C8.36884 3.67487 7.85742 4.18629 7.85742 4.81713C7.85742 5.44798 8.36884 5.95939 8.99968 5.95939Z" fill="#637381"/>
<path id="Vector_2" d="M15.0001 0.000671387H3.00004C1.33227 0.013855 -0.00992903 1.37486 5.53489e-05 3.04267V12.1701C-0.00992903 13.8381 1.33216 15.1993 3.00004 15.2129H5.19228L8.00327 17.6129C8.56007 18.1217 9.41089 18.1292 9.97652 17.6302L12.8603 15.2121H15C16.6679 15.1985 18.01 13.8373 18 12.1694V3.04267C18.01 1.37486 16.6678 0.013855 15.0001 0.000671387ZM9.00006 2.28217C12.4613 2.37368 12.4606 7.51493 9.00006 7.60718C5.53882 7.5149 5.53956 2.3759 9.00006 2.28217ZM12.1868 12.9067C11.7854 13.0091 11.3771 12.7667 11.2747 12.3654C11.2742 12.3635 11.2738 12.3617 11.2733 12.3599C10.8894 11.1042 9.56027 10.3975 8.30459 10.7814C7.54874 11.0125 6.95713 11.6041 6.72604 12.3599C6.62124 12.7609 6.21125 13.001 5.81029 12.8962C5.40934 12.7914 5.16925 12.3814 5.27406 11.9804C5.85399 9.9224 7.99248 8.72417 10.0505 9.30411C11.3476 9.66963 12.3613 10.6833 12.7268 11.9804C12.8312 12.385 12.5903 12.7982 12.1868 12.9067Z" fill="#637381"/>
</g>
<defs>
<clipPath id="clip0_517_32222">
<rect width="18" height="18" fill="white"/>
</clipPath>
</defs>
</svg>
