<svg width="16" height="16" viewBox="0 0 16 16" fill="none" xmlns="http://www.w3.org/2000/svg">
<g id="fi-sr-world" clip-path="url(#clip0_851_21177)">
<path id="Vector" d="M6.66667 11.3332H4.886C4.62315 11.3341 4.36274 11.2827 4.1199 11.1821C3.87705 11.0815 3.6566 10.9337 3.47133 10.7472L0.0346667 7.31055C0.0153333 7.53855 0 7.76721 0 7.99988C0.00292787 10.0047 0.75796 11.9355 2.11583 13.4106C3.4737 14.8856 5.33556 15.7974 7.33333 15.9659V11.9999C7.33333 11.8231 7.2631 11.6535 7.13807 11.5285C7.01305 11.4035 6.84348 11.3332 6.66667 11.3332Z" fill="#919EAB"/>
<path id="Vector_2" d="M13.624 2.3186L12.4307 3.51194C12.1175 3.82333 11.6943 3.99868 11.2527 3.99994H10.3333C10.2449 3.99994 10.1601 4.03506 10.0976 4.09757C10.0351 4.16008 10 4.24486 10 4.33327V4.99994C10 5.44196 9.82441 5.86589 9.51184 6.17845C9.19928 6.49101 8.77536 6.6666 8.33333 6.6666C8.24493 6.6666 8.16014 6.70172 8.09763 6.76423C8.03512 6.82675 8 6.91153 8 6.99994V7.33327C8 7.51008 8.07024 7.67965 8.19526 7.80468C8.32029 7.9297 8.48986 7.99994 8.66667 7.99994H10.6667C11.1971 7.99994 11.7058 8.21065 12.0809 8.58572C12.456 8.9608 12.6667 9.4695 12.6667 9.99994V10.6413C12.6667 10.7295 12.7017 10.8141 12.764 10.8766L14.514 12.6273C15.6172 11.0844 16.1337 9.19847 15.9705 7.30877C15.8074 5.41907 14.9753 3.64959 13.624 2.3186Z" fill="#919EAB"/>
<path id="Vector_3" d="M11.3333 10.6419V10.0006C11.3333 9.82377 11.263 9.6542 11.138 9.52918C11.013 9.40415 10.8434 9.33391 10.6666 9.33391H8.66659C8.13615 9.33391 7.62745 9.1232 7.25237 8.74813C6.8773 8.37306 6.66659 7.86435 6.66659 7.33392V7.00058C6.66659 6.55855 6.84218 6.13463 7.15474 5.82207C7.4673 5.50951 7.89123 5.33392 8.33325 5.33392C8.42166 5.33392 8.50644 5.2988 8.56896 5.23628C8.63147 5.17377 8.66659 5.08899 8.66659 5.00058V4.33392C8.66659 3.89189 8.84218 3.46796 9.15474 3.1554C9.4673 2.84284 9.89123 2.66725 10.3333 2.66725H11.2526C11.3407 2.66673 11.4252 2.6318 11.4879 2.56992L12.5953 1.46258C11.5585 0.730362 10.3622 0.255899 9.1054 0.0785547C7.84863 -0.0987895 6.56769 0.0260977 5.36884 0.442856C4.17 0.859613 3.0878 1.55623 2.21205 2.47491C1.33629 3.39359 0.692214 4.50785 0.333252 5.72525L4.41325 9.80525C4.4753 9.86732 4.549 9.91652 4.63011 9.95004C4.71122 9.98356 4.79815 10.0007 4.88592 10.0006H6.66659C7.19702 10.0006 7.70573 10.2113 8.0808 10.5864C8.45587 10.9614 8.66659 11.4701 8.66659 12.0006V15.9666C10.5511 15.8115 12.3191 14.9918 13.6553 13.6539L11.8213 11.8199C11.5099 11.5068 11.3345 11.0835 11.3333 10.6419Z" fill="#919EAB"/>
</g>
<defs>
<clipPath id="clip0_851_21177">
<rect width="16" height="16" fill="white"/>
</clipPath>
</defs>
</svg>
