<svg width="21" height="20" viewBox="0 0 21 20" fill="none" xmlns="http://www.w3.org/2000/svg">
<g id="fi-sr-rhombus" clip-path="url(#clip0_726_8140)">
<path id="Vector" d="M19.2219 7.05342L13.4469 1.27759C12.6646 0.497583 11.6049 0.0595703 10.5002 0.0595703C9.39549 0.0595703 8.33583 0.497583 7.55354 1.27759L1.77854 7.05342C0.997408 7.83479 0.558594 8.89441 0.558594 9.99926C0.558594 11.1041 0.997408 12.1637 1.77854 12.9451L7.55354 18.7209C8.33573 19.5011 9.39542 19.9393 10.5002 19.9393C11.605 19.9393 12.6647 19.5011 13.4469 18.7209L19.2219 12.9451C20.003 12.1637 20.4418 11.1041 20.4418 9.99926C20.4418 8.89441 20.003 7.83479 19.2219 7.05342Z" fill="#919EAB"/>
</g>
<defs>
<clipPath id="clip0_726_8140">
<rect width="20" height="20" fill="white" transform="translate(0.5)"/>
</clipPath>
</defs>
</svg>
