<svg width="16" height="16" viewBox="0 0 16 16" fill="none" xmlns="http://www.w3.org/2000/svg">
<g id="fi-sr-zoom-in" clip-path="url(#clip0_578_22054)">
<path id="Vector" d="M6.66664 13.3332C8.20455 13.3351 9.69542 12.803 10.8846 11.8279L14.862 15.8046C14.9877 15.926 15.1561 15.9932 15.3309 15.9917C15.5057 15.9902 15.6729 15.92 15.7965 15.7964C15.9201 15.6728 15.9902 15.5056 15.9918 15.3308C15.9933 15.156 15.9261 14.9876 15.8046 14.8619L11.8273 10.8852C12.7852 9.71309 13.3157 8.24985 13.3315 6.73617C13.3473 5.22249 12.8475 3.74849 11.9143 2.55661C10.9811 1.36473 9.67 0.525936 8.19672 0.178183C6.72344 -0.169569 5.17568 -0.0055724 3.80799 0.643201C2.4403 1.29198 1.33412 2.38689 0.671396 3.74788C0.00866878 5.10886 -0.171149 6.65487 0.161517 8.13163C0.494184 9.60838 1.31953 10.928 2.5018 11.8733C3.68407 12.8187 5.15288 13.3335 6.66664 13.3332ZM4.66664 5.99988H5.99998V4.66655C5.99998 4.48974 6.07022 4.32017 6.19524 4.19515C6.32026 4.07012 6.48983 3.99988 6.66664 3.99988C6.84346 3.99988 7.01302 4.07012 7.13805 4.19515C7.26307 4.32017 7.33331 4.48974 7.33331 4.66655V5.99988H8.66665C8.84346 5.99988 9.01303 6.07012 9.13805 6.19515C9.26307 6.32017 9.33331 6.48974 9.33331 6.66655C9.33331 6.84336 9.26307 7.01293 9.13805 7.13796C9.01303 7.26298 8.84346 7.33322 8.66665 7.33322H7.33331V8.66655C7.33331 8.84336 7.26307 9.01293 7.13805 9.13796C7.01302 9.26298 6.84346 9.33322 6.66664 9.33322C6.48983 9.33322 6.32026 9.26298 6.19524 9.13796C6.07022 9.01293 5.99998 8.84336 5.99998 8.66655V7.33322H4.66664C4.48983 7.33322 4.32026 7.26298 4.19524 7.13796C4.07022 7.01293 3.99998 6.84336 3.99998 6.66655C3.99998 6.48974 4.07022 6.32017 4.19524 6.19515C4.32026 6.07012 4.48983 5.99988 4.66664 5.99988Z" fill="#00AB55"/>
</g>
<defs>
<clipPath id="clip0_578_22054">
<rect width="16" height="16" fill="white"/>
</clipPath>
</defs>
</svg>
