<svg width="106" height="83" viewBox="0 0 106 83" fill="none" xmlns="http://www.w3.org/2000/svg">
<g opacity="0.2">
<path fill-rule="evenodd" clip-rule="evenodd" d="M0.392578 45.83C0.392578 55.3882 3.6808 64.098 9.09179 70.6806C15.2994 78.2347 24.3011 82.984 34.335 83C38.7202 83.0068 42.9133 82.1038 46.7648 80.4555C48.7562 79.6029 50.9852 79.7007 52.9139 80.7109C55.1764 81.8942 57.7098 82.5577 60.385 82.5577C61.4901 82.5577 62.5723 82.4437 63.6191 82.2272C66.6072 81.6115 69.3264 80.1546 71.5594 78.091C72.9628 76.7936 74.7603 76.1415 76.5972 76.1438H76.6284C82.6985 76.1438 88.3368 74.1306 93.018 70.6806C97.2029 67.6003 100.62 63.3728 102.897 58.4093C104.883 54.084 106 49.1978 106 44.0264C106 26.2896 92.8489 11.909 76.6284 11.909C74.9748 11.909 73.3548 12.0617 71.7743 12.3467C67.5893 4.93851 60.0951 0 51.5459 0C47.9365 0 44.5146 0.880189 41.4516 2.45801C38.5387 3.95364 35.9488 6.07889 33.8302 8.66889C26.6364 8.7943 19.9845 11.3641 14.5403 15.6527C5.9703 22.3997 0.392578 33.4034 0.392578 45.83Z" fill="url(#paint0_linear_420_16442)"/>
</g>
<path opacity="0.05" d="M64.8589 47.5386C64.3642 48.1548 63.8301 48.1445 63.5117 48.0576L63.5236 47.7385C63.5236 47.7385 64.8391 47.1085 64.8056 47.2408C64.7931 47.2904 64.8181 47.4097 64.8589 47.5386Z" fill="#FF4842"/>
<path opacity="0.05" d="M68.4637 48.2361C67.6237 48.7448 67.1311 48.1486 67.0166 47.9797C67.087 47.786 67.1929 47.4717 67.1712 47.3821C67.1396 47.2491 68.4532 47.8791 68.4532 47.8791L68.4637 48.2361Z" fill="#FF4842"/>
<path opacity="0.05" d="M67.5645 43.1609C67.5645 43.1609 68.3637 42.6784 68.538 42.8955C68.7123 43.1126 67.5645 43.1609 67.5645 43.1609Z" fill="#FF4842"/>
<path opacity="0.05" d="M68.0464 43.4262C68.0464 43.4262 67.9148 43.4951 68.2049 43.5834C68.495 43.6716 68.0464 43.4262 68.0464 43.4262Z" fill="#FF4842"/>
<path opacity="0.05" d="M63.2137 42.0994C63.1867 42.1076 63.8787 42.5888 64.5036 42.1903C64.5009 42.1903 63.3696 42.0497 63.2137 42.0994Z" fill="#FF4842"/>
<path opacity="0.05" d="M64.4703 43.0195C64.4703 43.0195 64.2809 43.4097 63.8928 43.4676C63.5047 43.5255 64.4703 43.0195 64.4703 43.0195Z" fill="#FF4842"/>
<path opacity="0.05" d="M67.0098 43.866C67.0098 43.866 67.9201 45.3825 67.7458 45.7402C67.5715 46.098 67.0098 43.866 67.0098 43.866Z" fill="#FF4842"/>
<path opacity="0.05" d="M65.2141 49.896C65.2141 49.9808 65.2141 50.06 65.2062 50.1255C65.1825 50.4322 64.4622 50.3164 64.4622 50.3164C63.8044 50.4123 63.5676 50.0814 63.4893 49.765C63.4647 49.6622 63.4526 49.5566 63.4532 49.4507C63.4527 49.3875 63.4567 49.3244 63.465 49.2618V49.1991C63.6067 49.1543 63.7605 49.1872 63.8741 49.2866C64.1669 49.5355 64.5549 49.3445 64.5549 49.3445C64.5549 49.3445 64.8398 49.3694 64.9496 49.4686C65.0115 49.5244 65.1134 49.39 65.191 49.2618C65.1956 49.3445 65.2029 49.4941 65.2075 49.654C65.2127 49.7361 65.2141 49.8188 65.2141 49.896Z" fill="#FF4842"/>
<path opacity="0.05" d="M64.059 49.878C64.059 49.878 63.8616 50.0807 63.4893 49.7677C63.4647 49.665 63.4526 49.5594 63.4531 49.4534C63.6432 49.6051 63.9958 49.878 64.059 49.878Z" fill="#FF4842"/>
<path opacity="0.05" d="M65.2138 49.896C65.1813 49.9222 65.14 49.9332 65.0995 49.9264C65.059 49.9196 65.023 49.8956 65 49.8601C65.0767 49.7989 65.1473 49.7296 65.2105 49.6533C65.2125 49.736 65.2138 49.8188 65.2138 49.896Z" fill="#FF4842"/>
<path opacity="0.05" d="M66.758 50.038C66.758 50.1234 66.758 50.2027 66.7652 50.2675C66.7889 50.5749 67.5092 50.4584 67.5092 50.4584C68.1669 50.5549 68.4038 50.2241 68.482 49.907C68.5208 49.7424 68.5291 49.5716 68.5064 49.4038V49.3411C68.3644 49.2971 68.2108 49.3299 68.0966 49.4286C67.8038 49.6775 67.4164 49.4865 67.4164 49.4865C67.4164 49.4865 67.1316 49.512 67.0217 49.6113C66.9599 49.6671 66.858 49.5327 66.781 49.4045C66.7764 49.4872 66.7685 49.6368 66.7639 49.7967C66.7586 49.8774 66.7573 49.9601 66.758 50.038Z" fill="#FF4842"/>
<path opacity="0.05" d="M67.9131 50.0187C67.9131 50.0187 68.1104 50.2214 68.4821 49.9084C68.5069 49.8059 68.5193 49.7005 68.5189 49.5948C68.3281 49.7457 67.9756 50.0187 67.9131 50.0187Z" fill="#FF4842"/>
<path opacity="0.05" d="M66.758 50.0379C66.7903 50.0641 66.8316 50.0751 66.8719 50.0683C66.9123 50.0616 66.9482 50.0376 66.9711 50.0021C66.8943 49.941 66.8237 49.8717 66.7606 49.7953C66.7586 49.8773 66.7573 49.96 66.758 50.0379Z" fill="#FF4842"/>
<g opacity="0.05">
<path d="M70.7129 24.5009C70.7267 24.4692 70.7399 24.4375 70.7524 24.4064C70.7649 24.3754 70.7695 24.3582 70.7767 24.3334C70.7525 24.3879 70.7312 24.4438 70.7129 24.5009Z" fill="#FF4842"/>
</g>
<path fill-rule="evenodd" clip-rule="evenodd" d="M35.0652 64.4312C34.9058 64.2301 34.8327 63.9689 34.8633 63.7095L37.7667 38.8141L38.0075 36.7462C38.0633 36.2704 38.4472 35.9117 38.9047 35.908L47.4092 35.8488C47.6539 35.8472 47.8876 35.7424 48.0576 35.5581C48.2277 35.3738 48.3197 35.1255 48.313 34.8693L48.3097 34.7748C48.3013 34.5164 48.3935 34.2654 48.565 34.0795C48.7365 33.8935 48.9727 33.7885 49.2194 33.7885H58.1561C58.6578 33.7885 59.0648 34.214 59.0659 34.7397C59.0658 34.7826 59.0632 34.8254 59.058 34.8679C59.0237 35.1362 59.0999 35.4071 59.2676 35.6131C59.4352 35.819 59.6785 35.9405 59.9368 35.9473L68.5196 36.1769C68.7836 36.1837 69.0318 36.3105 69.1995 36.5244C69.3673 36.7382 69.4379 37.018 69.3931 37.2908L65.1024 63.553L65.0214 64.0493C65.0014 64.1761 64.9567 64.2972 64.8899 64.405L35.0652 64.4312Z" fill="#005249"/>
<rect width="5.10451" height="17.6143" transform="matrix(0.810003 0.586426 -0.550436 0.834877 60.9658 28.5142)" fill="white"/>
<rect width="3.60416" height="3.66336" transform="matrix(0.808294 0.588779 -0.552782 0.833326 61.2637 29.2109)" fill="#FFC107"/>
<rect opacity="0.5" width="3.60857" height="3.66877" transform="matrix(0.810003 0.586426 -0.550436 0.834877 58.9824 32.8898)" fill="#FFC107"/>
<rect opacity="0.3" width="3.60857" height="3.66877" transform="matrix(0.810003 0.586426 -0.550436 0.834877 56.543 36.5878)" fill="#FFC107"/>
<rect width="5.04485" height="17.7439" transform="matrix(0.956171 0.292808 -0.268622 0.963246 55.124 27.5931)" fill="white"/>
<rect width="3.56639" height="3.70979" transform="matrix(0.956171 0.292808 -0.268622 0.963246 55.7578 28.0865)" fill="#FF4842"/>
<rect opacity="0.5" width="3.56639" height="3.70979" transform="matrix(0.956171 0.292808 -0.268622 0.963246 54.5547 32.4006)" fill="#FF4842"/>
<rect opacity="0.3" width="3.56639" height="3.70979" transform="matrix(0.956171 0.292808 -0.268622 0.963246 53.3516 36.7141)" fill="#FF4842"/>
<rect width="5.02707" height="17.8015" transform="matrix(0.996465 0.0840143 -0.0765547 0.997065 51.708 27.8627)" fill="white"/>
<rect width="3.55383" height="3.72182" transform="matrix(0.996465 0.0840143 -0.0765547 0.997065 52.4209 28.2117)" fill="#1890FF"/>
<rect opacity="0.5" width="3.55383" height="3.72182" transform="matrix(0.996465 0.0840143 -0.0765547 0.997065 52.0762 32.6909)" fill="#1890FF"/>
<rect opacity="0.3" width="3.55383" height="3.72182" transform="matrix(0.996465 0.0840143 -0.0765547 0.997065 51.7324 37.1714)" fill="#1890FF"/>
<rect width="5.026" height="17.805" transform="matrix(0.998861 -0.0477139 0.0434597 0.999055 49.4541 28.5763)" fill="white"/>
<rect width="3.55307" height="3.72255" transform="matrix(0.998861 -0.0477139 0.0434597 0.999055 50.2021 28.8278)" fill="#00AB55"/>
<rect opacity="0.5" width="3.55758" height="3.72713" transform="matrix(0.99863 -0.0523234 0.0476601 0.998864 50.5371 33.1752)" fill="#00AB55"/>
<rect opacity="0.3" width="3.55307" height="3.72255" transform="matrix(0.998861 -0.0477139 0.0434597 0.999055 50.5928 37.8076)" fill="#00AB55"/>
<path d="M51.5859 52.0424L47.1209 53.8525L40.595 56.496C40.3483 56.0135 39.9852 55.3614 39.5359 54.5832C37.9901 51.8991 35.4326 47.724 33.1554 44.0549C30.59 39.9191 28.3818 36.4292 28.3818 36.4292L29.9803 35.9467L43.0373 31.9742L51.5859 52.0424Z" fill="#F4F6F8"/>
<path opacity="0.1" d="M51.5855 52.0424L47.1204 53.8525C44.6261 54.3971 42.0807 54.6422 39.5335 54.5832C37.9877 51.8991 35.4302 47.724 33.153 44.0549L29.9805 35.9439L43.0369 31.9742L51.5855 52.0424Z" fill="black"/>
<path d="M54.9078 50.9162C54.9078 50.9162 47.9714 55.216 37.6153 54.2434L29.3594 33.1509L33.316 32.4382L46.994 29.9767L54.7559 50.506L54.9078 50.9162Z" fill="#00AB55"/>
<path opacity="0.1" d="M54.7527 50.5088C53.1194 50.5929 51.2296 50.5846 49.3286 50.3468C47.271 50.0931 45.2016 49.5706 43.4276 48.6125C41.9443 47.8122 40.6761 46.9417 39.5703 45.8974C36.6938 43.1864 34.9139 39.3084 33.3154 32.4409L46.9934 29.9794L54.7527 50.5088Z" fill="#FF4842"/>
<path d="M59.8417 49.3294C59.8417 49.3294 54.7288 50.3785 49.5243 49.7326C47.4668 49.479 45.3974 48.9565 43.6233 47.9983C42.14 47.1981 40.8725 46.3275 39.7661 45.2832C36.2061 41.927 34.3262 36.7835 32.3877 26.3965C32.3877 26.3965 40.8876 28.5464 49.2928 23.8371C49.2902 23.8405 52.1233 42.3675 59.8417 49.3294Z" fill="white"/>
<path opacity="0.3" d="M36.7842 30.2097C36.7842 30.2097 43.6962 29.8002 45.6261 28.239L45.9189 29.2246C45.9189 29.2246 41.3518 31.336 36.7842 31.3615V30.2097Z" fill="#00AB55"/>
<path opacity="0.3" d="M36.7842 35.0761C36.7842 35.0761 43.4765 34.6922 48.5329 32.1328L48.7039 32.5423C48.7039 32.5423 44.6914 34.9968 36.7842 35.6393L36.7842 35.0761Z" fill="#00AB55"/>
<path opacity="0.3" d="M37.3232 36.9724C37.3232 36.9724 44.0156 36.5884 49.0713 34.0291L49.2423 34.4385C49.2423 34.4385 45.2298 36.8924 37.3232 37.5355L37.3232 36.9724Z" fill="#00AB55"/>
<path opacity="0.3" d="M37.8613 38.8713C37.8613 38.8713 44.5536 38.4874 49.6101 35.928L49.7804 36.3375C49.7804 36.3375 45.7679 38.7921 37.8613 39.4345L37.8613 38.8713Z" fill="#00AB55"/>
<path opacity="0.3" d="M38.3994 40.7704C38.3994 40.7704 45.0917 40.3864 50.1475 37.8271L50.3185 38.2365C50.3185 38.2365 46.306 40.6911 38.3994 41.3335L38.3994 40.7704Z" fill="#00AB55"/>
<path opacity="0.3" d="M38.9375 42.6701C38.9375 42.6701 45.6298 42.2862 50.6862 39.7268L50.8566 40.1362C50.8566 40.1362 46.8441 42.5901 38.9375 43.2333V42.6701Z" fill="#00AB55"/>
<path d="M85.994 66.2488C85.994 66.2488 83.2129 66.0731 83.5405 68.1155C83.5405 68.1155 83.4747 68.476 83.7878 68.64C83.7878 68.64 83.7924 68.4884 84.0726 68.5401C84.1726 68.5577 84.2741 68.5628 84.3752 68.5552C84.5116 68.5457 84.6412 68.4895 84.7442 68.3953C84.7442 68.3953 85.5264 68.0569 85.8302 66.7183C85.8302 66.7183 86.0552 66.426 86.046 66.3509L85.577 66.5577C85.577 66.5577 85.7375 66.9126 85.6112 67.207C85.6112 67.207 85.5961 66.5707 85.506 66.5866C85.4875 66.5866 85.2619 66.7093 85.2619 66.7093C85.2619 66.7093 85.5375 67.3297 85.3277 67.7763C85.3277 67.7763 85.4066 67.0147 85.1738 66.7541L84.8449 66.9561C84.8449 66.9561 85.1672 67.5944 84.9488 68.1155C84.9488 68.1155 85.0047 67.3166 84.7752 67.005L84.4759 67.2497C84.4759 67.2497 84.7791 67.879 84.5943 68.3112C84.5943 68.3112 84.5699 67.3807 84.4107 67.3104C84.4107 67.3104 84.1476 67.5523 84.1095 67.655C84.1095 67.655 84.3167 68.1113 84.1878 68.3526C84.1878 68.3526 84.1088 67.7322 84.0444 67.7322C84.0444 67.7322 83.7812 68.1458 83.7562 68.4215C83.7562 68.4215 83.7674 68.0024 83.9812 67.6902C83.8306 67.7203 83.6916 67.7958 83.5813 67.9073C83.5813 67.9073 83.6221 67.6164 84.0457 67.5916C84.0457 67.5916 84.2614 67.28 84.3187 67.2607C84.3187 67.2607 83.8977 67.2242 83.6425 67.3428C83.6425 67.3428 83.8674 67.067 84.3963 67.1932L84.6916 66.9409C84.6916 66.9409 84.1371 66.8609 83.9023 66.9492C83.9023 66.9492 84.1726 66.7065 84.7712 66.8802L85.0929 66.679C85.0929 66.679 84.6206 66.5721 84.339 66.61C84.339 66.61 84.6357 66.4418 85.1876 66.6238L85.4172 66.5156C85.4172 66.5156 85.0712 66.4467 84.9699 66.4329C84.8686 66.4191 84.8626 66.3929 84.8626 66.3929C85.082 66.3541 85.3073 66.3804 85.5132 66.4687C85.5132 66.4687 86.0019 66.2812 85.994 66.2488Z" fill="#00AB55"/>
<ellipse opacity="0.1" cx="84.0784" cy="68.8179" rx="1.9681" ry="0.348784" fill="#00AB55"/>
<path d="M87.2893 59.5068C87.2893 59.5068 85.7218 59.4076 85.9079 60.5594C85.8883 60.6791 85.9443 60.7984 86.0467 60.8551C86.0467 60.8551 86.05 60.7696 86.2079 60.7986C86.2642 60.8083 86.3214 60.8111 86.3783 60.8069C86.455 60.8017 86.5281 60.7702 86.5861 60.7173C86.5861 60.7173 87.0268 60.5263 87.1985 59.7715C87.1985 59.7715 87.3255 59.6068 87.3202 59.5647L87.0571 59.6826C87.0571 59.6826 87.1472 59.8832 87.0762 60.0493C87.0762 60.0493 87.0676 59.6902 87.017 59.6985C87.0064 59.6985 86.8795 59.7674 86.8795 59.7674C86.8795 59.7674 87.0347 60.112 86.9176 60.3692C86.9176 60.3692 86.9624 59.9397 86.8308 59.7922L86.6447 59.9066C86.6447 59.9066 86.8262 60.2665 86.7032 60.5601C86.7032 60.5601 86.7348 60.1093 86.6052 59.9342L86.4368 60.0721C86.4368 60.0721 86.6072 60.4271 86.5026 60.6704C86.5026 60.6704 86.4888 60.1458 86.3993 60.1065C86.3354 60.1633 86.2782 60.2279 86.2289 60.2988C86.2289 60.2988 86.346 60.5566 86.2737 60.6924C86.2737 60.6924 86.2289 60.343 86.1928 60.3416C86.1928 60.3416 86.0454 60.5725 86.0303 60.731C86.0374 60.5839 86.0812 60.4413 86.1572 60.3175C86.0722 60.3342 85.9937 60.3769 85.9316 60.4402C85.9316 60.4402 85.9546 60.2761 86.1947 60.2623C86.1947 60.2623 86.3164 60.0865 86.3487 60.0755C86.3487 60.0755 86.1112 60.0548 85.9671 60.1217C85.9671 60.1217 86.0941 59.9673 86.3921 60.0376L86.5591 59.8949C86.5591 59.8949 86.246 59.8501 86.1138 59.8997C86.1138 59.8997 86.2664 59.7619 86.6039 59.8625L86.7854 59.7488C86.6457 59.7167 86.5027 59.704 86.3598 59.7109C86.3598 59.7109 86.5276 59.6158 86.838 59.7185L86.9696 59.6578C86.9696 59.6578 86.7723 59.6171 86.717 59.6109C86.6618 59.6047 86.6565 59.5882 86.6565 59.5882C86.7803 59.5666 86.9073 59.5814 87.0235 59.6309C87.0235 59.6309 87.2946 59.5248 87.2893 59.5068Z" fill="#00AB55"/>
<ellipse opacity="0.1" cx="86.2103" cy="60.9551" rx="1.10969" ry="0.19645" fill="#00AB55"/>
<path d="M78.0355 60.5063C78.0355 60.5063 76.1424 60.3864 76.366 61.7767C76.3422 61.9212 76.4099 62.0654 76.5338 62.1338C76.5338 62.1338 76.5338 62.0304 76.7311 62.0648C76.7991 62.0769 76.8682 62.0803 76.937 62.0752C77.0299 62.0687 77.1181 62.0304 77.1883 61.9663C77.1883 61.9663 77.7204 61.736 77.9276 60.8248C77.9276 60.8248 78.0809 60.6263 78.0743 60.5746L77.7513 60.7179C77.7513 60.7179 77.8605 60.9592 77.7743 61.1598C77.7743 61.1598 77.7638 60.7269 77.7026 60.7365C77.6901 60.7365 77.5369 60.8206 77.5369 60.8206C77.5369 60.8206 77.7243 61.2411 77.5829 61.5472C77.5829 61.5472 77.6369 61.0288 77.4783 60.851L77.2534 60.9888C77.2534 60.9888 77.4724 61.4238 77.3238 61.7781C77.3238 61.7781 77.3619 61.2342 77.206 61.0198L77.0021 61.1867C77.0021 61.1867 77.2086 61.6147 77.0823 61.909C77.0823 61.909 77.0666 61.2756 76.958 61.228C76.958 61.228 76.7798 61.3928 76.7528 61.4603C76.7528 61.4603 76.8936 61.7712 76.8061 61.9352C76.8061 61.9352 76.7521 61.5134 76.7081 61.5113C76.7081 61.5113 76.5311 61.7912 76.5107 61.9821C76.5196 61.8051 76.5724 61.6335 76.664 61.4844C76.5616 61.5049 76.4671 61.5564 76.3923 61.6326C76.3923 61.6326 76.42 61.4348 76.7081 61.4176C76.7081 61.4176 76.8548 61.2053 76.8942 61.1929C76.8942 61.1929 76.6074 61.1674 76.4338 61.248C76.4338 61.248 76.5864 61.0619 76.9462 61.1467L77.1475 60.9744C77.1475 60.9744 76.7706 60.9206 76.6101 60.9799C76.6101 60.9799 76.7942 60.8151 77.2021 60.9358L77.4211 60.7979C77.4211 60.7979 77.0995 60.7255 76.9074 60.7517C76.9074 60.7517 77.11 60.6373 77.4849 60.7614L77.6415 60.6876C77.6415 60.6876 77.406 60.6394 77.3369 60.6318C77.2678 60.6242 77.2646 60.6042 77.2646 60.6042C77.4138 60.5777 77.5671 60.5954 77.7072 60.6552C77.7072 60.6552 78.0414 60.5277 78.0355 60.5063Z" fill="#00AB55"/>
<ellipse opacity="0.1" cx="76.7315" cy="62.2551" rx="1.33991" ry="0.237118" fill="#00AB55"/>
<rect width="11.7139" height="20.1841" rx="4.73723" transform="matrix(0.296317 -0.95509 0.946574 0.322486 61.5859 28.8227)" fill="white"/>
<g opacity="0.2">
<ellipse cx="67.1927" cy="23.8642" rx="2.06282" ry="2.16164" fill="#00AB55"/>
</g>
<g opacity="0.2">
<rect width="0.589573" height="9.02938" transform="matrix(0.296317 -0.95509 0.946574 0.322486 72.1279 23.475)" fill="#00AB55"/>
</g>
<g opacity="0.2">
<rect width="0.589573" height="4.59961" transform="matrix(0.296317 -0.95509 0.946574 0.322486 71.6826 24.9106)" fill="#00AB55"/>
</g>
<g opacity="0.2">
<rect width="0.589573" height="7.43934" transform="matrix(0.296317 -0.95509 0.946574 0.322486 71.2363 26.3472)" fill="#00AB55"/>
</g>
<g opacity="0.2">
<rect width="0.589573" height="9.02938" transform="matrix(0.296317 -0.95509 0.946574 0.322486 70.791 27.7832)" fill="#00AB55"/>
</g>
<g opacity="0.5">
<rect width="1.14002" height="2.49873" transform="matrix(0.296317 -0.95509 0.946574 0.322486 76.166 32.4885)" fill="#00AB55"/>
</g>
<rect width="11.4445" height="17.4736" rx="4" transform="matrix(0.522913 -0.852386 0.829367 0.558705 59.833 49.2517)" fill="white"/>
<rect width="3.23863" height="0.747041" transform="matrix(0.518457 -0.855104 0.832387 0.554195 61.9805 48.5712)" fill="#DFE3E8"/>
<rect width="7.11274" height="0.68501" transform="matrix(0.518457 -0.855104 0.832387 0.554195 63.9678 49.1323)" fill="#DFE3E8"/>
<rect width="7.11274" height="0.68501" transform="matrix(0.518457 -0.855104 0.832387 0.554195 65.1865 49.9425)" fill="#DFE3E8"/>
<rect width="7.11274" height="0.68501" transform="matrix(0.518457 -0.855104 0.832387 0.554195 66.4043 50.754)" fill="#DFE3E8"/>
<rect width="7.1012" height="0.684208" transform="matrix(0.522913 -0.852386 0.829367 0.558705 67.6641 51.9298)" fill="#DFE3E8"/>
<rect width="7.11274" height="0.68501" transform="matrix(0.518457 -0.855104 0.832387 0.554195 68.8398 52.3754)" fill="#F4F6F8"/>
<rect width="7.11274" height="0.68501" transform="matrix(0.518457 -0.855104 0.832387 0.554195 70.0576 53.1857)" fill="#F4F6F8"/>
<rect width="1.8418" height="1.80557" transform="matrix(0.518457 -0.855104 0.832387 0.554195 75.1719 49.7307)" fill="#DFE3E8"/>
<path d="M59.6373 38.9086L49.5679 39.0223C49.191 39.0265 48.8874 39.3477 48.8871 39.7427V40.6146C48.8868 41.0057 48.5892 41.3252 48.2161 41.3349L40.9502 41.5176C40.6333 41.5259 40.3521 41.3061 40.2694 40.9855L39.928 39.671C39.8461 39.3539 39.5699 39.135 39.2564 39.1388L29.5508 39.2484C29.3495 39.2505 29.1592 39.3449 29.0302 39.5067C28.9011 39.6685 28.8461 39.8814 28.8798 40.0894L32.7845 64.1707C32.8404 64.5163 33.1255 64.7696 33.46 64.771L64.1221 64.9089C64.3275 64.9096 64.5226 64.8141 64.6538 64.6484C64.785 64.4827 64.8387 64.2643 64.8002 64.0528L60.3194 39.4938C60.257 39.1515 59.9698 38.9051 59.6373 38.9086Z" fill="url(#paint1_linear_420_16442)"/>
<ellipse opacity="0.1" cx="26.7049" cy="59.6364" rx="1.06627" ry="0.153713" fill="#00AB55"/>
<ellipse opacity="0.1" cx="22.621" cy="60.07" rx="1.06627" ry="0.153713" fill="#00AB55"/>
<ellipse opacity="0.1" cx="24.2558" cy="61.3059" rx="0.75777" ry="0.108909" fill="#00AB55"/>
<ellipse opacity="0.1" cx="20.0166" cy="61.197" rx="0.75777" ry="0.108909" fill="#00AB55"/>
<path d="M22.5978 60.0363C22.5978 60.0363 24.093 54.8996 22.3636 52.8421C21.0698 51.3029 19.6009 51.4869 18.9432 51.6772C18.5989 51.7735 18.3123 52.0232 18.1591 52.3603C17.9288 52.88 17.9703 53.7237 19.5937 54.7087C22.311 56.3575 22.4801 58.6191 22.4801 58.6191L22.5978 60.0363Z" fill="#00AB55"/>
<path d="M19.1777 52.4057C19.1777 52.4057 23.5849 53.8532 22.5982 60.0362" stroke="#005249" stroke-width="0.5" stroke-linecap="round"/>
<path d="M21.7526 52.9234C21.7526 52.9234 21.1454 53.3521 21.3388 53.9966" stroke="#005249" stroke-width="0.5" stroke-linecap="round"/>
<path d="M19.6201 53.3052C19.6201 53.3052 19.9911 52.9096 20.443 53.1281" stroke="#005249" stroke-width="0.5" stroke-linecap="round"/>
<path d="M21.3623 55.2946C21.3623 55.2946 22.0142 54.9499 22.1826 55.3821" stroke="#005249" stroke-width="0.5" stroke-linecap="round"/>
<path d="M22.9745 56.0162C22.9745 56.0162 22.4851 55.9756 22.4766 56.223" stroke="#005249" stroke-width="0.5" stroke-linecap="round"/>
<path d="M22.6581 60.0769C22.6581 60.0769 20.9064 56.3437 20.4256 56.4236C20.1973 56.4629 20.0921 56.6993 20.0441 56.9351C19.985 57.2409 20.0184 57.5585 20.1395 57.8436C20.3881 58.4433 21.0558 59.5772 22.6581 60.0769Z" fill="#00AB55"/>
<path d="M20.4385 57.1335C20.4385 57.1335 22.2763 59.9266 22.6315 60.0493" stroke="#005249" stroke-width="0.5" stroke-linecap="round"/>
<path d="M20.2695 57.5699H20.6984" stroke="#005249" stroke-width="0.5" stroke-linecap="round"/>
<path d="M20.7832 58.5914L21.4561 58.6218" stroke="#005249" stroke-width="0.5" stroke-linecap="round"/>
<path d="M21.1931 57.7739L21.1201 58.1413" stroke="#005249" stroke-width="0.5" stroke-linecap="round"/>
<path d="M21.9086 58.8913L21.8955 59.2249" stroke="#005249" stroke-width="0.5" stroke-linecap="round"/>
<path d="M22.6064 60.0769C22.6064 60.0769 24.3575 56.3437 24.8383 56.4236C25.0672 56.4629 25.1725 56.6993 25.2198 56.9351C25.2789 57.2409 25.2455 57.5585 25.1245 57.8436C24.8758 58.4433 24.2075 59.5772 22.6064 60.0769Z" fill="#00AB55"/>
<path d="M24.8256 57.1335C24.8256 57.1335 22.9838 59.9266 22.6318 60.0493" stroke="#005249" stroke-width="0.5" stroke-linecap="round"/>
<path d="M24.9943 57.5699H24.5654" stroke="#005249" stroke-width="0.5" stroke-linecap="round"/>
<path d="M24.4805 58.5914L23.8076 58.6218" stroke="#005249" stroke-width="0.5" stroke-linecap="round"/>
<path d="M24.0713 57.7739L24.1443 58.1413" stroke="#005249" stroke-width="0.5" stroke-linecap="round"/>
<path d="M23.3564 58.8913L23.3695 59.2249" stroke="#005249" stroke-width="0.5" stroke-linecap="round"/>
<path d="M19.5991 60.9489C19.5515 60.9081 19.5168 60.853 19.4998 60.791C19.483 60.7269 19.5124 60.6593 19.5695 60.6304C19.6353 60.6049 19.7011 60.6511 19.7537 60.6993C19.8063 60.7476 19.8662 60.7986 19.932 60.7869C19.861 60.7195 19.829 60.6179 19.8478 60.5194C19.8505 60.4994 19.8585 60.4805 19.8708 60.465C19.9063 60.425 19.9708 60.4422 20.0135 60.4739C20.1451 60.5732 20.1865 60.7655 20.1872 60.9392C20.1938 60.8755 20.1938 60.8113 20.1872 60.7476C20.1837 60.6824 20.2113 60.6196 20.2609 60.5801C20.2929 60.5618 20.329 60.5527 20.3655 60.5539C20.4266 60.5447 20.4885 60.5633 20.5358 60.6049C20.5819 60.6706 20.5792 60.7609 20.5292 60.8234C20.4789 60.8827 20.4192 60.9325 20.353 60.9709C20.3026 61.0027 20.2597 61.0457 20.2273 61.0971C20.2233 61.104 20.2203 61.1114 20.2181 61.1191H19.8353C19.7496 61.0738 19.6701 61.0165 19.5991 60.9489Z" fill="#00AB55"/>
<path d="M26.2721 59.4448C26.2243 59.4044 26.1896 59.3495 26.1727 59.2876C26.1559 59.2236 26.1849 59.1561 26.2418 59.127C26.3076 59.1015 26.3734 59.1477 26.426 59.1959C26.4786 59.2442 26.5378 59.2966 26.6056 59.2862C26.5345 59.2191 26.5023 59.1178 26.5207 59.0195C26.5236 58.9994 26.5318 58.9805 26.5444 58.965C26.5799 58.9251 26.6444 58.9423 26.6871 58.9733C26.822 59.0732 26.8601 59.2656 26.8608 59.4393C26.8674 59.3753 26.8674 59.3109 26.8608 59.247C26.8548 59.1825 26.8794 59.1192 26.9266 59.0774C26.9587 59.0595 26.9948 59.0507 27.0312 59.0519C27.0922 59.0429 27.154 59.0611 27.2015 59.1022C27.2477 59.1682 27.2448 59.2589 27.1943 59.3214C27.1443 59.3808 27.0849 59.4307 27.0187 59.4689C26.9683 59.5003 26.9254 59.5432 26.893 59.5944C26.8892 59.6016 26.8861 59.6092 26.8838 59.6171H26.5095C26.4232 59.5714 26.3433 59.5134 26.2721 59.4448Z" fill="#00AB55"/>
<path d="M24.048 60.9488C24.0004 60.9079 23.9656 60.8529 23.9481 60.791C23.9313 60.7268 23.9606 60.6593 24.0178 60.6304C24.0836 60.6049 24.1493 60.6511 24.202 60.6993C24.2546 60.7476 24.3131 60.8 24.3815 60.7903C24.3106 60.7228 24.2785 60.6214 24.2967 60.5229C24.2996 60.5028 24.3078 60.4839 24.3204 60.4684C24.3559 60.4284 24.4203 60.4457 24.4631 60.4774C24.5979 60.5766 24.6354 60.7689 24.6368 60.9426C24.6433 60.8789 24.6433 60.8147 24.6368 60.751C24.6316 60.686 24.6574 60.6225 24.7058 60.5814C24.7378 60.563 24.7739 60.554 24.8104 60.5553C24.8715 60.5462 24.9335 60.5647 24.9808 60.6063C25.0269 60.6721 25.0239 60.7625 24.9735 60.8248C24.9234 60.884 24.864 60.9339 24.7979 60.9723C24.7476 61.004 24.7047 61.0471 24.6723 61.0984C24.6683 61.1053 24.6652 61.1127 24.6631 61.1205H24.2816C24.1968 61.0744 24.1182 61.0167 24.048 60.9488Z" fill="#00AB55"/>
<ellipse opacity="0.1" cx="18.9765" cy="20.0591" rx="1.42279" ry="1.49095" fill="#00AB55"/>
<ellipse opacity="0.1" cx="87.3925" cy="31.9736" rx="1.42279" ry="1.49095" fill="#00AB55"/>
<ellipse opacity="0.1" cx="61.8163" cy="15.3243" rx="1.42279" ry="1.49095" fill="#00AB55"/>
<ellipse opacity="0.1" cx="21.822" cy="28.2844" rx="2.38448" ry="2.4987" fill="#00AB55"/>
<path fill-rule="evenodd" clip-rule="evenodd" d="M45.722 48.3961C43.9674 48.3961 42.5449 49.8866 42.5449 51.7254C42.5449 53.5641 43.9674 55.0547 45.722 55.0547C47.4767 55.0547 48.8991 53.5641 48.8991 51.7254C48.8991 49.8866 47.4767 48.3961 45.722 48.3961V48.3961Z" fill="#007B55"/>
<path opacity="0.72" fill-rule="evenodd" clip-rule="evenodd" d="M45.7226 48.7833C47.2731 48.7833 48.5301 50.1005 48.5301 51.7254C48.5301 53.3502 47.2731 54.6674 45.7226 54.6674C44.172 54.6674 42.915 53.3502 42.915 51.7254C42.9164 50.1011 44.1726 48.7847 45.7226 48.7833Z" fill="#00AB55"/>
<path fill-rule="evenodd" clip-rule="evenodd" d="M44.4088 51.9686L44.2552 51.8115C44.222 51.7797 44.2031 51.7352 44.2031 51.6887C44.2031 51.6422 44.222 51.5978 44.2552 51.566L45.6031 50.1863C45.6342 50.1523 45.6777 50.1331 45.7232 50.1331C45.7686 50.1331 45.8121 50.1523 45.8432 50.1863L47.1911 51.5648C47.2237 51.5969 47.2421 51.6412 47.2421 51.6875C47.2421 51.7338 47.2237 51.7781 47.1911 51.8102L47.0375 51.9674C47.0061 52.0007 46.9627 52.0195 46.9175 52.0195C46.8722 52.0195 46.8289 52.0007 46.7974 51.9674L46.0004 51.1081V53.147C46.0007 53.1921 45.9834 53.2355 45.9523 53.2676C45.9212 53.2996 45.8789 53.3176 45.8348 53.3176H45.6127C45.5206 53.3176 45.4459 53.2412 45.4459 53.147V51.1106L44.6489 51.9698C44.6173 52.003 44.5739 52.0216 44.5286 52.0213C44.4833 52.0211 44.4401 52.0021 44.4088 51.9686Z" fill="#007B55"/>
<defs>
<linearGradient id="paint0_linear_420_16442" x1="72.736" y1="97.763" x2="114.721" y2="7.4626" gradientUnits="userSpaceOnUse">
<stop stop-color="#00AB55"/>
<stop offset="1" stop-color="#00AB55" stop-opacity="0.01"/>
</linearGradient>
<linearGradient id="paint1_linear_420_16442" x1="39.6933" y1="31.6413" x2="28.1078" y2="64.287" gradientUnits="userSpaceOnUse">
<stop stop-color="#00AB55"/>
<stop offset="1" stop-color="#007B55"/>
</linearGradient>
</defs>
</svg>
