<svg width="110" height="83" viewBox="0 0 110 83" fill="none" xmlns="http://www.w3.org/2000/svg">
<g opacity="0.2">
<path fill-rule="evenodd" clip-rule="evenodd" d="M0 45.5539C0 55.0545 3.42498 63.7119 9.06103 70.2548C15.5268 77.7634 24.9029 82.4841 35.3542 82.5C39.9218 82.5067 44.2892 81.6092 48.3009 79.9708C50.3752 79.1233 52.6968 79.2206 54.7058 80.2247C57.0623 81.4009 59.7012 82.0604 62.4876 82.0604C63.6387 82.0604 64.7659 81.947 65.8563 81.7319C68.9686 81.1199 71.8008 79.6717 74.1268 77.6206C75.5886 76.331 77.4607 75.6828 79.3741 75.6851H79.4066C85.7291 75.6851 91.6019 73.684 96.4778 70.2548C100.837 67.1931 104.396 62.9911 106.768 58.0574C108.836 53.7581 110 48.9014 110 43.7612C110 26.1312 96.3018 11.8372 79.4066 11.8372C77.6842 11.8372 75.9968 11.989 74.3506 12.2723C69.9915 4.90876 62.1856 0 53.2809 0C49.5214 0 45.9572 0.874887 42.7668 2.4432C39.7327 3.92983 37.0351 6.04227 34.8284 8.61666C27.3353 8.74133 20.4068 11.2956 14.7361 15.5585C5.80971 22.2647 0 33.2022 0 45.5539Z" fill="url(#paint0_linear_420_14961)"/>
</g>
<path opacity="0.12" d="M71.1045 25.2167L22.0964 23.8223C20.4227 23.7748 19.0586 24.9185 19.0586 26.3773V68.5185C19.0586 69.9771 20.4227 71.0863 22.0964 70.9961L71.1045 68.353C72.4962 68.2781 73.619 67.1468 73.619 65.8266V27.6791C73.619 26.3581 72.4962 25.2557 71.1045 25.2167Z" fill="#00AB55"/>
<path d="M71.1093 23.664L23.5864 22.273C21.9634 22.2256 20.6406 23.3665 20.6406 24.8219V66.8611C20.6406 68.3163 21.9634 69.4226 23.5864 69.3327L71.1093 66.6961C72.4588 66.6213 73.5476 65.4929 73.5476 64.1755V26.1203C73.5476 24.8027 72.4588 23.7029 71.1093 23.664Z" fill="white"/>
<path d="M23.8318 26.241C24.1957 26.241 24.4907 25.946 24.4907 25.5821C24.4907 25.2182 24.1957 24.9232 23.8318 24.9232C23.4679 24.9232 23.1729 25.2182 23.1729 25.5821C23.1729 25.946 23.4679 26.241 23.8318 26.241Z" fill="#FF4842"/>
<path d="M25.9402 26.241C26.3041 26.241 26.5991 25.946 26.5991 25.5821C26.5991 25.2182 26.3041 24.9232 25.9402 24.9232C25.5763 24.9232 25.2812 25.2182 25.2812 25.5821C25.2812 25.946 25.5763 26.241 25.9402 26.241Z" fill="#FFC107"/>
<path d="M28.0486 26.241C28.4125 26.241 28.7075 25.946 28.7075 25.5821C28.7075 25.2182 28.4125 24.9232 28.0486 24.9232C27.6847 24.9232 27.3896 25.2182 27.3896 25.5821C27.3896 25.946 27.6847 26.241 28.0486 26.241Z" fill="#54D62C"/>
<path opacity="0.72" d="M70.7193 52.7791C70.7111 53.7413 69.9473 54.5284 68.9814 54.5702L25.4954 57.0128C24.4163 57.0562 23.5391 56.2659 23.5391 55.2526V29.6576C23.5391 28.6443 24.4163 27.8009 25.4954 27.7745L68.9814 28.8127C69.4383 28.7981 69.8818 28.9692 70.2094 29.2863C70.5374 29.6038 70.7213 30.0397 70.7193 30.4946V52.7791Z" fill="#DFE3E8"/>
<path fill-rule="evenodd" clip-rule="evenodd" d="M26.4402 60.2303C26.4204 59.9399 26.6398 59.6884 26.9302 59.6685L50.125 58.0871C50.4155 58.0673 50.667 58.2867 50.6868 58.5772C50.7066 58.8676 50.4872 59.1191 50.1967 59.139L27.0019 60.7204C26.7115 60.7402 26.46 60.5208 26.4402 60.2303Z" fill="#E8EAEE"/>
<path fill-rule="evenodd" clip-rule="evenodd" d="M26.4396 62.8636C26.4212 62.573 26.6418 62.3225 26.9323 62.3041L43.5673 61.2498C43.8578 61.2314 44.1083 61.452 44.1267 61.7426C44.1451 62.0331 43.9245 62.2836 43.634 62.302L26.999 63.3563C26.7085 63.3747 26.458 63.1541 26.4396 62.8636Z" fill="#E8EAEE"/>
<path fill-rule="evenodd" clip-rule="evenodd" d="M26.1761 65.2331C26.1592 64.9424 26.3811 64.6931 26.6718 64.6762L49.3394 63.3583C49.63 63.3414 49.8793 63.5633 49.8962 63.854C49.9131 64.1446 49.6912 64.3939 49.4006 64.4108L26.733 65.7287C26.4423 65.7456 26.193 65.5237 26.1761 65.2331Z" fill="#E8EAEE"/>
<path d="M26.7021 32.2639C26.7021 31.5327 27.2974 30.9413 28.0285 30.946L66.2472 31.1926C66.9717 31.1973 67.5566 31.7859 67.5566 32.5104V38.8783C67.5566 39.5929 66.987 40.1773 66.2727 40.1958L28.054 41.1821C27.3131 41.2012 26.7021 40.6058 26.7021 39.8646V32.2639Z" fill="#C4CDD5"/>
<path d="M27.9691 43.5401C27.2616 43.5675 26.7021 44.149 26.7021 44.857V52.481C26.7021 53.2355 27.3344 53.836 28.088 53.7971L37.8403 53.2937C38.5408 53.2576 39.0903 52.679 39.0903 51.9776V44.4795C39.0903 43.7316 38.4687 43.1336 37.7214 43.1626L27.9691 43.5401Z" fill="#C4CDD5"/>
<path d="M42.2022 42.9891C41.4947 43.0165 40.9353 43.598 40.9353 44.306V51.7463C40.9353 52.5009 41.5676 53.1014 42.3211 53.0625L52.2052 52.5523C52.9058 52.5162 53.4552 51.9376 53.4552 51.2362V43.9234C53.4552 43.1756 52.8336 42.5776 52.0863 42.6065L42.2022 42.9891Z" fill="#C4CDD5"/>
<path d="M56.5671 42.433C55.8597 42.4604 55.3002 43.0419 55.3002 43.7499V51.0049C55.3002 51.7594 55.9325 52.3599 56.686 52.3211L66.3066 51.8245C67.0071 51.7884 67.5566 51.2098 67.5566 50.5084V43.3775C67.5566 42.6297 66.935 42.0317 66.1877 42.0606L56.5671 42.433Z" fill="#C4CDD5"/>
<path d="M57.2663 39.5868L63.9511 46.2713C62.462 48.1987 59.4098 47.5864 58.7794 45.2337L57.2663 39.5868Z" fill="#00AB55"/>
<path d="M57.2664 39.5865L63.951 46.2712C65.8784 44.7821 65.266 41.73 62.9134 41.0996L57.2664 39.5865Z" fill="#009652"/>
<path d="M61.2772 45.2017L62.0793 44.3995L71.7052 54.0254C71.1194 54.6112 70.1656 54.598 69.5962 53.9961L61.2772 45.2017Z" fill="#00AB55"/>
<path d="M62.882 43.5973L62.0799 44.3995L71.7058 54.0254C72.2916 53.4396 72.2783 52.4858 71.6765 51.9164L62.882 43.5973Z" fill="#009652"/>
<path opacity="0.12" d="M84.2842 19.9452L35.2761 18.5507C33.6024 18.5032 32.2383 19.6469 32.2383 21.1058V63.2469C32.2383 64.7056 33.6024 65.8147 35.2761 65.7246L84.2842 63.0814C85.6758 63.0066 86.7987 61.8753 86.7987 60.555V22.4076C86.7987 21.0865 85.6758 19.9842 84.2842 19.9452Z" fill="#00AB55"/>
<path d="M84.288 18.3925L36.7651 17.0014C35.1421 16.9541 33.8193 18.095 33.8193 19.5503V61.5896C33.8193 63.0448 35.1421 64.151 36.7651 64.0611L84.288 61.4246C85.6375 61.3497 86.7263 60.2214 86.7263 58.904V20.8488C86.7263 19.5311 85.6375 18.4314 84.288 18.3925Z" fill="white"/>
<path d="M37.0105 20.9695C37.3744 20.9695 37.6694 20.6745 37.6694 20.3106C37.6694 19.9466 37.3744 19.6516 37.0105 19.6516C36.6466 19.6516 36.3516 19.9466 36.3516 20.3106C36.3516 20.6745 36.6466 20.9695 37.0105 20.9695Z" fill="#FF4842"/>
<path d="M39.1199 20.9695C39.4838 20.9695 39.7788 20.6745 39.7788 20.3106C39.7788 19.9466 39.4838 19.6516 39.1199 19.6516C38.756 19.6516 38.4609 19.9466 38.4609 20.3106C38.4609 20.6745 38.756 20.9695 39.1199 20.9695Z" fill="#FFC107"/>
<path d="M41.2283 20.9695C41.5922 20.9695 41.8872 20.6745 41.8872 20.3106C41.8872 19.9466 41.5922 19.6516 41.2283 19.6516C40.8644 19.6516 40.5693 19.9466 40.5693 20.3106C40.5693 20.6745 40.8644 20.9695 41.2283 20.9695Z" fill="#54D62C"/>
<path opacity="0.72" d="M83.899 47.5076C83.8908 48.4698 83.127 49.2568 82.161 49.2986L38.6751 51.7413C37.596 51.7847 36.7188 50.9944 36.7188 49.9811V24.3861C36.7188 23.3728 37.596 22.5293 38.6751 22.503L82.161 23.5411C82.618 23.5265 83.0615 23.6976 83.3891 24.0147C83.717 24.3322 83.901 24.7681 83.899 25.2231V47.5076Z" fill="#DFE3E8"/>
<path fill-rule="evenodd" clip-rule="evenodd" d="M39.6198 54.9588C39.6 54.6683 39.8195 54.4168 40.1099 54.397L63.3047 52.8155C63.5951 52.7957 63.8467 53.0152 63.8665 53.3056C63.8863 53.5961 63.6669 53.8476 63.3764 53.8674L40.1816 55.4489C39.8912 55.4687 39.6396 55.2493 39.6198 54.9588Z" fill="#E8EAEE"/>
<path fill-rule="evenodd" clip-rule="evenodd" d="M39.6193 57.592C39.6009 57.3015 39.8215 57.051 40.112 57.0326L56.747 55.9783C57.0375 55.9599 57.288 56.1805 57.3064 56.471C57.3248 56.7616 57.1042 57.012 56.8137 57.0305L40.1787 58.0848C39.8882 58.1032 39.6377 57.8826 39.6193 57.592Z" fill="#E8EAEE"/>
<path fill-rule="evenodd" clip-rule="evenodd" d="M39.3558 59.9615C39.3389 59.6709 39.5608 59.4215 39.8515 59.4046L62.5191 58.0868C62.8097 58.0699 63.059 58.2918 63.0759 58.5824C63.0928 58.8731 62.8709 59.1224 62.5803 59.1393L39.9127 60.4572C39.622 60.4741 39.3727 60.2522 39.3558 59.9615Z" fill="#E8EAEE"/>
<path d="M39.8818 27.0009C39.8818 26.2664 40.4823 25.6736 41.2167 25.6831L79.4354 25.5C80.1565 25.5093 80.7362 26.0966 80.7362 26.8178V33.6068C80.7362 34.3214 80.1667 34.9058 79.4524 34.9242L41.2337 35.9105C40.4928 35.9296 39.8818 35.3342 39.8818 34.5931V27.0009Z" fill="#00AB55"/>
<path fill-rule="evenodd" clip-rule="evenodd" d="M41.1487 38.2686C40.4413 38.296 39.8818 38.8775 39.8818 39.5855V47.2095C39.8818 47.964 40.5141 48.5645 41.2676 48.5256L51.02 48.0223C51.7205 47.9861 52.2699 47.4076 52.2699 46.7061V39.208C52.2699 38.4601 51.6484 37.8621 50.9011 37.8911L41.1487 38.2686ZM55.3819 37.7176C54.6744 37.745 54.115 38.3265 54.115 39.0345V46.4749C54.115 47.2294 54.7473 47.8299 55.5008 47.791L65.3849 47.2808C66.0854 47.2447 66.6349 46.6662 66.6349 45.9647V38.6519C66.6349 37.9041 66.0133 37.3061 65.266 37.335L55.3819 37.7176ZM69.7468 37.1616C69.0393 37.1889 68.4799 37.7704 68.4799 38.4785V45.7334C68.4799 46.488 69.1122 47.0885 69.8657 47.0496L79.4863 46.553C80.1868 46.5169 80.7362 45.9383 80.7362 45.2369V38.1061C80.7362 37.3582 80.1147 36.7602 79.3674 36.7892L69.7468 37.1616Z" fill="#C4CDD5"/>
<path d="M72.6641 41.954L79.3488 48.6385L76.6916 52.0779C76.2915 52.5958 75.4715 52.4312 75.3021 51.7991L72.6641 41.954Z" fill="#00AB55"/>
<path d="M72.664 41.9536L79.3486 48.6383L82.788 45.9811C83.3058 45.581 83.1413 44.761 82.5092 44.5916L72.664 41.9536Z" fill="#009652"/>
<path d="M76.6747 47.5688L77.4769 46.7666L87.1028 56.3925L86.9914 56.5039C86.4666 57.0287 85.6121 57.0169 85.1021 56.4777L76.6747 47.5688Z" fill="#00AB55"/>
<path d="M78.2794 45.9645L77.4772 46.7666L87.1031 56.3925L87.2145 56.2811C87.7393 55.7563 87.7274 54.9019 87.1883 54.3918L78.2794 45.9645Z" fill="#009652"/>
<path opacity="0.18" d="M61.0191 60.5553L65.084 74.2392C65.1439 74.4597 65.2742 74.6537 65.4541 74.7913C65.6338 74.929 65.8535 75.0022 66.0789 75L76.1619 74.7044C76.5116 74.6943 76.7474 74.3381 76.6248 74.0059L71.5268 60.1908C71.4562 59.999 71.2806 59.8679 71.0795 59.8557L61.9275 59.3101C61.7771 59.3036 61.6273 59.3347 61.4914 59.4007C61.3553 59.4666 61.2375 59.5652 61.1478 59.6881C61.0581 59.811 60.9995 59.9543 60.977 60.1054C60.9546 60.2567 60.9691 60.4112 61.0191 60.5553Z" fill="#00AB55"/>
<path d="M85.9493 70.8669L81.7119 58.8001C81.6469 58.6063 81.5267 58.4361 81.3664 58.3107C81.2059 58.1852 81.0124 58.11 80.8097 58.0942L62.9514 57.032C62.7993 57.0273 62.6482 57.0596 62.5113 57.1263C62.3744 57.193 62.2557 57.2919 62.165 57.4147C62.0743 57.5377 62.0148 57.6805 61.9911 57.8317C61.9672 57.9828 61.9803 58.1374 62.0289 58.2823L66.126 71.956C66.1871 72.1761 66.3181 72.3702 66.4993 72.5084C66.6801 72.6469 66.901 72.7218 67.1284 72.7223L85.1339 72.1777C85.2842 72.1689 85.4301 72.1242 85.5596 72.0469C85.6893 71.9697 85.7985 71.8624 85.8784 71.7343C85.9583 71.6059 86.0063 71.4601 86.0187 71.3092C86.031 71.1583 86.0071 71.0067 85.9493 70.8669Z" fill="white"/>
<path d="M79.6376 68.789C79.7633 69.1005 79.8261 69.2562 79.9605 69.3443C80.0951 69.4324 80.2698 69.4324 80.6193 69.4324H80.7019C81.3985 69.4324 81.7467 69.4324 81.9034 69.2142C82.0602 68.9958 81.9345 68.6858 81.6828 68.066L81.2657 67.0371C81.1397 66.7266 81.0769 66.5714 80.9425 66.4836C80.8081 66.3954 80.6335 66.3954 80.2848 66.3954H80.2046C79.5092 66.3954 79.1615 66.3954 79.0048 66.6133C78.8481 66.8312 78.973 67.141 79.2228 67.7603L79.6376 68.789Z" fill="#00AB55"/>
<path d="M74.0221 68.7833C74.1368 69.0974 74.1941 69.2544 74.3166 69.3434C74.4394 69.4323 74.5986 69.4323 74.9173 69.4323H74.9928C75.6278 69.4323 75.9456 69.4323 76.0882 69.2119C76.2311 68.9915 76.1165 68.6787 75.8873 68.053L75.2386 66.2833C75.1238 65.97 75.0665 65.8134 74.9439 65.7248C74.8214 65.6361 74.6622 65.6361 74.3442 65.6361H74.2715C73.6373 65.6361 73.3203 65.6361 73.1774 65.856C73.0344 66.0759 73.1486 66.3885 73.3766 67.0136L74.0221 68.7833Z" fill="#00AB55"/>
<path d="M71.1688 69.0067C71.2873 69.335 71.3465 69.4993 71.473 69.5922C71.5994 69.6854 71.7638 69.6854 72.0922 69.6854H72.1714C72.8269 69.6854 73.1546 69.6854 73.3021 69.4545C73.4496 69.2238 73.3313 68.896 73.0947 68.2404L70.7569 61.7594C70.6383 61.4308 70.5792 61.2668 70.4527 61.1736C70.3262 61.0807 70.1619 61.0807 69.8334 61.0807H69.7542C69.0988 61.0807 68.7711 61.0808 68.6236 61.3114C68.4761 61.5423 68.5944 61.8699 68.8308 62.5255L71.1688 69.0067Z" fill="#00AB55"/>
<path d="M76.8595 68.8013C76.9849 69.1066 77.0478 69.2593 77.1818 69.3457C77.3158 69.4323 77.4896 69.4323 77.8375 69.4323H77.9215C78.6158 69.4323 78.9629 69.4323 79.1192 69.2176C79.2755 69.0032 79.1501 68.6984 78.8997 68.0889L77.2145 63.9895C77.0889 63.684 77.026 63.5314 76.892 63.4448C76.758 63.3585 76.5842 63.3585 76.2363 63.3585H76.1523C75.458 63.3585 75.1109 63.3585 74.9546 63.5732C74.7983 63.7876 74.9236 64.0924 75.1741 64.7017L76.8595 68.8013Z" fill="#005249"/>
<path d="M68.5812 68.7764C68.7029 69.094 68.7636 69.2526 68.8934 69.3423C69.0232 69.4323 69.1919 69.4323 69.529 69.4323H69.6108C70.2832 69.4323 70.6192 69.4323 70.7706 69.2096C70.922 68.9868 70.8008 68.6703 70.5585 68.0375L67.2728 59.4587C67.1511 59.1414 67.0904 58.9827 66.9606 58.893C66.8308 58.803 66.6621 58.803 66.325 58.803H66.2432C65.5708 58.803 65.2348 58.803 65.0834 59.0258C64.932 59.2485 65.0531 59.565 65.2955 60.1978L68.5812 68.7764Z" fill="#00AB55"/>
<defs>
<linearGradient id="paint0_linear_420_14961" x1="75.3523" y1="97.174" x2="115.819" y2="5.96931" gradientUnits="userSpaceOnUse">
<stop stop-color="#00AB55"/>
<stop offset="1" stop-color="#00AB55" stop-opacity="0.01"/>
</linearGradient>
</defs>
</svg>
