<svg width="110" height="83" viewBox="0 0 110 83" fill="none" xmlns="http://www.w3.org/2000/svg">
<g opacity="0.2">
<path fill-rule="evenodd" clip-rule="evenodd" d="M0 45.83C0 55.3882 3.42498 64.098 9.06103 70.6806C15.5268 78.2347 24.9029 82.984 35.3542 83C39.9218 83.0068 44.2892 82.1038 48.3009 80.4555C50.3752 79.6029 52.6968 79.7007 54.7058 80.7109C57.0623 81.8942 59.7012 82.5577 62.4876 82.5577C63.6387 82.5577 64.7659 82.4437 65.8563 82.2272C68.9686 81.6115 71.8008 80.1546 74.1268 78.091C75.5886 76.7936 77.4607 76.1415 79.3741 76.1438H79.4066C85.7291 76.1438 91.6019 74.1306 96.4778 70.6806C100.837 67.6003 104.396 63.3728 106.768 58.4093C108.836 54.084 110 49.1978 110 44.0264C110 26.2896 96.3018 11.909 79.4066 11.909C77.6842 11.909 75.9968 12.0617 74.3506 12.3467C69.9915 4.93851 62.1856 0 53.2809 0C49.5214 0 45.9572 0.880189 42.7668 2.45801C39.7327 3.95364 37.0351 6.07889 34.8284 8.66889C27.3353 8.7943 20.4068 11.3641 14.7361 15.6527C5.80971 22.3997 0 33.4034 0 45.83Z" fill="url(#paint0_linear_420_14799)"/>
</g>
<path opacity="0.24" d="M29.7071 21.4719C29.7071 21.4719 10.9975 29.8336 10.3535 41.4767C9.70958 53.1195 44.6368 51.02 52.2745 56.0409C59.9121 61.0614 93.0148 68.6914 92.3768 59.9458C91.7388 51.2001 83.8745 48.1828 83.8745 48.1828" stroke="#00AB55" stroke-width="2" stroke-dasharray="3 3"/>
<path opacity="0.12" d="M78.6989 59.0701L67.2811 28.418C67.0943 27.9193 66.7609 27.4895 66.3253 27.1861C65.8896 26.8829 65.3724 26.7204 64.8426 26.7204H16.7626C16.0726 26.722 15.4114 26.9989 14.9241 27.4905C14.4368 27.9818 14.1631 28.6476 14.1631 29.3418C14.1639 29.6083 14.2041 29.873 14.2823 30.1275L25.3304 64.9184C25.5106 65.4812 25.8753 65.9658 26.365 66.2927C26.8545 66.6197 27.44 66.7695 28.0253 66.7181L76.487 62.5792C77.1756 62.5224 77.8136 62.1932 78.261 61.6634C78.7081 61.1336 78.9278 60.4468 78.8719 59.7539C78.8439 59.5192 78.7858 59.2894 78.6989 59.0701Z" fill="#00AB55"/>
<path d="M15.5705 27.0624L26.6365 61.8714C26.8197 62.4333 27.186 62.9167 27.6762 63.2434C28.1664 63.5699 28.7517 63.7205 29.3374 63.6709L43.8496 62.4351L77.7693 59.52C78.1103 59.4935 78.4426 59.3994 78.7474 59.2431C79.0519 59.087 79.323 58.8716 79.5446 58.6095C79.7662 58.3476 79.9342 58.044 80.0389 57.7163C80.1434 57.3887 80.1826 57.0436 80.1542 56.7007C80.1299 56.4545 80.0738 56.2124 79.9872 55.9809L77.2743 48.7828L72.3674 35.5862L68.5634 25.3888C68.3766 24.8901 68.0432 24.4603 67.6076 24.1571C67.1719 23.8537 66.6547 23.6914 66.1249 23.6914H18.0449C17.7035 23.6914 17.3655 23.759 17.0501 23.8904C16.7347 24.0218 16.4481 24.2145 16.2067 24.4573C15.9653 24.7001 15.7738 24.9885 15.6432 25.3058C15.5126 25.623 15.4453 25.9631 15.4453 26.3066C15.4489 26.5634 15.4911 26.8182 15.5705 27.0624Z" fill="white"/>
<path d="M43.6736 62.4501L29.3374 63.6709C28.7516 63.7205 28.1664 63.5699 27.6762 63.2434C27.186 62.9167 26.8197 62.4333 26.6366 61.8714L15.5705 27.0624C15.4911 26.8182 15.4489 26.5634 15.4453 26.3066C15.4453 25.9631 15.5126 25.623 15.6432 25.3058C15.7738 24.9885 15.9653 24.7001 16.2067 24.4573C16.4481 24.2145 16.7347 24.0218 17.0501 23.8904C17.3655 23.759 17.7035 23.6914 18.0449 23.6914H31.2111L43.6736 62.4501Z" fill="#00AB55"/>
<path opacity="0.18" d="M56.8053 42.89C57.4041 42.8526 57.8063 42.2562 57.6195 41.6825L55.6755 35.7123C55.5469 35.318 55.1725 35.0584 54.7604 35.0783L40.6389 35.7609C40.028 35.7905 39.6166 36.4024 39.8167 36.9838L41.936 43.1436C42.0705 43.5348 42.4482 43.788 42.8591 43.7621L56.8053 42.89Z" fill="#00AB55"/>
<path opacity="0.18" d="M60.7018 53.9567C61.3006 53.9193 61.7028 53.3229 61.516 52.7492L59.572 46.779C59.4434 46.3848 59.069 46.1252 58.6569 46.145L44.5354 46.8277C43.9245 46.8572 43.5131 47.4691 43.7132 48.0505L45.8325 54.2103C45.967 54.6015 46.3447 54.8547 46.7556 54.8289L60.7018 53.9567Z" fill="#00AB55"/>
<path opacity="0.18" d="M62.5656 29.8217L66.2203 42.0164C66.2742 42.2129 66.3913 42.3858 66.5531 42.5084C66.7146 42.6311 66.9122 42.6963 67.1148 42.6944L76.1804 42.431C76.4948 42.422 76.7068 42.1045 76.5965 41.8085L72.013 29.4968C71.9495 29.326 71.7916 29.2091 71.6108 29.1982L63.3823 28.712C63.2471 28.7062 63.1124 28.7339 62.9902 28.7927C62.8679 28.8515 62.762 28.9393 62.6813 29.0488C62.6006 29.1583 62.5479 29.2861 62.5278 29.4207C62.5076 29.5556 62.5207 29.6932 62.5656 29.8217Z" fill="#00AB55"/>
<path d="M84.8109 39.0173L81.0308 28.2501C80.9728 28.0772 80.8655 27.9253 80.7225 27.8135C80.5793 27.7014 80.4067 27.6343 80.2259 27.6203L64.2947 26.6725C64.1591 26.6683 64.0243 26.6971 63.9022 26.7566C63.78 26.8161 63.6741 26.9044 63.5933 27.0139C63.5124 27.1236 63.4592 27.2511 63.4381 27.386C63.4168 27.5209 63.4285 27.6588 63.4718 27.7881L67.1268 39.9891C67.1813 40.1855 67.2982 40.3587 67.4597 40.482C67.6211 40.6056 67.8182 40.6725 68.021 40.6729L84.0835 40.1869C84.2176 40.1791 84.3477 40.1392 84.4632 40.0703C84.579 40.0013 84.6764 39.9057 84.7476 39.7913C84.8189 39.6767 84.8617 39.5467 84.8727 39.412C84.8838 39.2774 84.8624 39.142 84.8109 39.0173Z" fill="white"/>
<path d="M79.3676 37.2986C79.4771 37.5847 79.5319 37.7276 79.649 37.8086C79.7663 37.8895 79.9185 37.8895 80.2231 37.8895H80.295C80.9021 37.8895 81.2055 37.8895 81.3421 37.6891C81.4787 37.4885 81.3691 37.2038 81.1498 36.6346L80.7864 35.6895C80.6766 35.4043 80.6218 35.2618 80.5047 35.1811C80.3876 35.1002 80.2354 35.1002 79.9316 35.1002H79.8617C79.2558 35.1002 78.9528 35.1002 78.8162 35.3003C78.6796 35.5005 78.7885 35.785 79.0062 36.3538L79.3676 37.2986Z" fill="#00AB55"/>
<path d="M74.3413 37.299C74.4508 37.5849 74.5056 37.7278 74.6227 37.8088C74.74 37.8897 74.8922 37.8897 75.1968 37.8897H75.2689C75.8758 37.8897 76.1794 37.8897 76.3158 37.6891C76.4524 37.4885 76.3428 37.2038 76.1237 36.6343L75.5038 35.0236C75.3941 34.7384 75.3393 34.596 75.2222 34.5153C75.1051 34.4346 74.9529 34.4346 74.6491 34.4346H74.5796C73.9735 34.4346 73.6705 34.4346 73.5339 34.6347C73.3973 34.8348 73.5064 35.1193 73.7244 35.6883L74.3413 37.299Z" fill="#00AB55"/>
<path d="M71.8308 37.3001C71.9405 37.5853 71.9953 37.7281 72.1124 37.8088C72.2295 37.8897 72.3817 37.8897 72.6858 37.8897H72.7591C73.3659 37.8897 73.6694 37.8897 73.8059 37.6891C73.9425 37.4887 73.833 37.204 73.6139 36.6345L71.4494 31.0051C71.3396 30.7196 71.2849 30.5771 71.1678 30.4962C71.0507 30.4155 70.8985 30.4155 70.5944 30.4155H70.5211C69.9142 30.4155 69.6108 30.4155 69.4742 30.6159C69.3376 30.8165 69.4472 31.101 69.666 31.6704L71.8308 37.3001Z" fill="#00AB55"/>
<path d="M76.8569 37.3002C76.9664 37.5854 77.0214 37.7281 77.1385 37.8088C77.2556 37.8897 77.4076 37.8897 77.7117 37.8897H77.785C78.3919 37.8897 78.6953 37.8897 78.8319 37.6891C78.9684 37.4888 78.8589 37.204 78.64 36.6345L77.1672 32.8046C77.0574 32.5191 77.0024 32.3766 76.8853 32.2957C76.7682 32.215 76.6163 32.215 76.3122 32.215H76.2388C75.632 32.215 75.3286 32.215 75.192 32.4156C75.0554 32.616 75.165 32.9007 75.3838 33.4699L76.8569 37.3002Z" fill="#005249"/>
<path d="M69.3145 37.2997C69.4243 37.5853 69.479 37.728 69.5961 37.8087C69.7132 37.8897 69.8654 37.8897 70.1695 37.8897H70.2433C70.8499 37.8897 71.1531 37.8897 71.2897 37.6893C71.4263 37.489 71.3169 37.2042 71.0983 36.635L68.134 28.9178C68.0243 28.6324 67.9695 28.4897 67.8524 28.409C67.7353 28.3281 67.5831 28.3281 67.279 28.3281H67.2052C66.5986 28.3281 66.2954 28.3281 66.1589 28.5284C66.0223 28.7288 66.1316 29.0135 66.3502 29.5827L69.3145 37.2997Z" fill="#00AB55"/>
<path d="M22.4633 34.5784C22.225 33.6901 22.343 32.7432 22.7919 31.9416C23.2408 31.1399 23.9846 30.5479 24.8633 30.2926C25.7419 30.0374 26.685 30.1395 27.4895 30.5771C28.2941 31.0147 28.8954 31.7527 29.1645 32.6321C29.4333 33.5114 29.3483 34.462 28.9275 35.2789C28.5065 36.0957 27.7838 36.7136 26.9145 36.9995C26.0452 37.2854 25.0991 37.2162 24.28 36.8072C23.4608 36.3982 22.8341 35.6819 22.5348 34.8124L22.4991 34.6983L22.4633 34.5784Z" fill="#C8FACD"/>
<path d="M30.0887 56.8506C29.9092 55.9798 30.0632 55.0727 30.5202 54.3115C30.9771 53.5502 31.7031 52.9906 32.5527 52.7448C33.4024 52.4991 34.3129 52.5853 35.1019 52.9862C35.8909 53.3872 36.5005 54.0733 36.808 54.9072V55.0211C36.808 55.0571 36.808 55.099 36.8498 55.135C37.0858 55.9892 36.993 56.9017 36.5897 57.69C36.1863 58.4783 35.502 59.0844 34.6738 59.3874C33.8456 59.6903 32.9344 59.668 32.1218 59.3244C31.3094 58.9809 30.6556 58.3416 30.2912 57.5344C30.2555 57.4205 30.2257 57.3064 30.1899 57.1925C30.1542 57.0786 30.1304 56.9647 30.0887 56.8506Z" fill="#C8FACD"/>
<path d="M26.5234 44.5239C26.5234 43.5899 26.8922 42.6945 27.5485 42.0341C28.2048 41.3738 29.0951 41.0029 30.0232 41.0029C30.9516 41.0029 31.8417 41.3738 32.498 42.0341C33.1543 42.6945 33.5231 43.5899 33.5231 44.5239V44.7697C33.5231 45.7037 33.1543 46.5991 32.498 47.2595C31.8417 47.92 30.9516 48.291 30.0232 48.291C29.0951 48.291 28.2048 47.92 27.5485 47.2595C26.8922 46.5991 26.5234 45.7037 26.5234 44.7697V44.5239Z" fill="#C8FACD"/>
<path d="M25.945 33.6127L25.1222 30.9555C25.3545 30.8834 25.5949 30.8412 25.8377 30.8294C26.4449 30.8066 27.0427 30.9848 27.5394 31.3371C28.036 31.6894 28.4039 32.1959 28.5863 32.779C28.6578 33.0128 28.6999 33.2544 28.7114 33.4988C28.719 33.7425 28.697 33.9862 28.6459 34.2246C28.5407 34.7009 28.3099 35.1401 27.9781 35.4963C27.651 35.8583 27.2338 36.126 26.7694 36.2714C26.305 36.4171 25.8105 36.4351 25.3369 36.324C25.1034 36.2691 24.8773 36.1866 24.6631 36.078C24.4478 35.9636 24.2475 35.8225 24.0669 35.6582C23.7148 35.3303 23.4521 34.9174 23.3037 34.4586L25.945 33.6127Z" fill="#00AB55"/>
<path d="M29.9748 44.6378V41.8546C30.4588 41.8582 30.9335 41.9885 31.3521 42.2324C31.571 42.3509 31.7717 42.5006 31.9484 42.6763C32.2933 43.0207 32.5415 43.4509 32.668 43.9231C32.7943 44.3953 32.7941 44.8928 32.6676 45.365C32.5411 45.8369 32.2926 46.2672 31.9473 46.6114C31.6022 46.9556 31.1727 47.2018 30.7022 47.3252C30.2343 47.4571 29.7393 47.4571 29.2713 47.3252C29.038 47.2645 28.8137 47.1737 28.6035 47.0552L29.9748 44.6378Z" fill="#00AB55"/>
<path d="M33.5108 56.1068L32.6523 53.4614C33.1148 53.3132 33.6075 53.2862 34.0833 53.3835C34.6796 53.511 35.2172 53.8328 35.6129 54.2993C36.0085 54.7657 36.2402 55.3506 36.2713 55.9629C36.2844 56.2043 36.2645 56.4466 36.2118 56.6827C36.1629 56.9202 36.0827 57.1503 35.9734 57.3666C35.8126 57.691 35.5896 57.9803 35.3173 58.2182C35.0453 58.4559 34.7293 58.6374 34.3874 58.7522L33.5289 56.1008L33.5108 56.1068Z" fill="#00AB55"/>
<path d="M39.2227 16.3253L33.1113 19.1685L34.1428 22.7916L39.2227 16.3253Z" fill="#00AB55"/>
<path d="M39.223 16.3253H29.7012L32.599 18.1068L39.223 16.3253Z" fill="#00AB55"/>
<path d="M31.4951 20.7701L33.111 19.1685L39.2224 16.3253L32.5983 18.1068L31.4951 20.7701Z" fill="#00AB55"/>
<path d="M31.4951 20.7701L33.111 19.1685L39.2224 16.3253L31.4951 20.7701Z" fill="#00AB55"/>
<path d="M31.4951 20.7701L33.111 19.1685L39.2224 16.3253L32.5983 18.1068L31.4951 20.7701Z" fill="#007B55"/>
<defs>
<linearGradient id="paint0_linear_420_14799" x1="75.3523" y1="97.763" x2="116.229" y2="6.18862" gradientUnits="userSpaceOnUse">
<stop stop-color="#00AB55"/>
<stop offset="1" stop-color="#00AB55" stop-opacity="0.01"/>
</linearGradient>
</defs>
</svg>
