<svg width="110" height="83" viewBox="0 0 110 83" fill="none" xmlns="http://www.w3.org/2000/svg">
<g opacity="0.2">
<path fill-rule="evenodd" clip-rule="evenodd" d="M0 45.9027C0 55.4033 3.42498 64.0607 9.06103 70.6036C15.5268 78.1122 24.9029 82.8329 35.3542 82.8488C39.9218 82.8556 44.2892 81.9581 48.3009 80.3196C50.3752 79.4721 52.6968 79.5694 54.7058 80.5735C57.0623 81.7497 59.7012 82.4092 62.4876 82.4092C63.6387 82.4092 64.7659 82.2958 65.8563 82.0807C68.9686 81.4687 71.8008 80.0205 74.1268 77.9694C75.5886 76.6798 77.4607 76.0317 79.3741 76.0339H79.4066C85.7291 76.0339 91.6019 74.0328 96.4778 70.6036C100.837 67.5419 104.396 63.3399 106.768 58.4062C108.836 54.107 110 49.2502 110 44.11C110 26.4801 96.3018 12.186 79.4066 12.186C77.6842 12.186 75.9968 12.3379 74.3506 12.6211C69.9915 5.25758 62.1856 0.348816 53.2809 0.348816C49.5214 0.348816 45.9572 1.2237 42.7668 2.79201C39.7327 4.27864 37.0351 6.39109 34.8284 8.96548C27.3353 9.09014 20.4068 11.6444 14.7361 15.9073C5.80971 22.6136 0 33.551 0 45.9027Z" fill="url(#paint0_linear_420_14994)"/>
</g>
<path d="M83.0002 64.347H81.0762V64.1798H82.8305V48.4839H76.0657V25.2813H69.8555V25.1142H76.2328V48.3165H83.0002V64.347Z" fill="#00AB55"/>
<path d="M44.4771 37.5197H44.3076V31.9711H48.6375V26.9627H48.8047V32.1408H44.4771V37.5197Z" fill="#00AB55"/>
<path opacity="0.12" d="M69.8503 23.7862C69.8503 24.6292 69.5153 25.4373 68.9192 26.0332C68.3228 26.629 67.5144 26.9635 66.6715 26.9627H44.8937C43.7373 26.9948 42.6552 26.3961 42.0675 25.3997C41.4801 24.4034 41.4801 23.1667 42.0675 22.1704C42.6552 21.174 43.7373 20.5753 44.8937 20.6074H45.6205C45.0903 18.7197 45.4748 16.6929 46.659 15.1303C47.8433 13.5678 49.6907 12.65 51.6513 12.6502H53.5048C55.8436 12.6483 57.9877 13.9513 59.0632 16.0279C59.5925 15.7563 60.1791 15.6151 60.7738 15.616H61.2586C62.2578 15.616 63.216 16.0129 63.9227 16.7195C64.6293 17.4261 65.0261 18.3844 65.0261 19.3837V19.5703C65.0264 19.921 64.9774 20.2701 64.8809 20.6074H66.6836C68.4339 20.6153 69.849 22.0359 69.8503 23.7862Z" fill="#00AB55"/>
<path d="M77.9556 58.5488C77.6458 58.5488 77.3927 58.3014 77.3861 57.9917V54.3012C77.3861 52.9633 76.3013 51.8782 74.9631 51.8782C73.6249 51.8782 72.5401 52.9633 72.5401 54.3012V57.9917C72.5401 58.3061 72.2854 58.5609 71.9709 58.5609C71.6564 58.5609 71.4014 58.3061 71.4014 57.9917V54.3012C71.4014 52.3343 72.9962 50.7395 74.9631 50.7395C76.9303 50.7395 78.5251 52.3343 78.5251 54.3012V57.9917C78.5183 58.3014 78.2653 58.5488 77.9556 58.5488Z" fill="white"/>
<path d="M78.5243 54.3012V57.9917C78.5232 58.1914 78.4161 58.3759 78.2432 58.4762C78.1564 58.5288 78.0566 58.5564 77.955 58.5562C77.6424 58.5562 77.3882 58.304 77.3855 57.9917V54.3012C77.3858 53.0746 76.4689 52.0414 75.251 51.8953C75.1552 51.8848 75.0589 51.879 74.9625 51.8782C73.6243 51.8782 72.5395 52.9633 72.5395 54.3012V57.9917C72.5374 58.1911 72.4309 58.3751 72.2585 58.4762C72.1708 58.5288 72.0703 58.5564 71.9677 58.5562C71.654 58.5548 71.3998 58.3006 71.3984 57.9867V54.3012C71.4011 52.3343 72.9956 50.7408 74.9625 50.7395C75.0589 50.7395 75.1552 50.7442 75.251 50.754C77.0992 50.9042 78.523 52.4472 78.5243 54.3012Z" fill="white"/>
<path d="M78.5241 54.3012V57.9916C78.6044 58.128 78.5746 58.3022 78.4538 58.4043C78.3328 58.5064 78.1559 58.5064 78.0349 58.4043C77.9141 58.3022 77.8843 58.128 77.9646 57.9916V54.3012C77.9646 52.9633 76.8798 51.8782 75.5416 51.8782C75.4445 51.879 75.3474 51.8848 75.2508 51.8953C75.155 51.8848 75.0587 51.879 74.9624 51.8782C73.6242 51.8782 72.5394 52.9633 72.5394 54.3012V57.9916C72.6183 58.128 72.5878 58.3014 72.4673 58.4027C72.3465 58.504 72.1704 58.504 72.0496 58.4027C71.9288 58.3014 71.8983 58.128 71.9772 57.9916V54.3012C71.8709 53.0654 72.4699 51.8751 73.526 51.2245C74.5821 50.5737 75.9148 50.5737 76.9706 51.2245C78.0267 51.8751 78.626 53.0654 78.5194 54.3012H78.5241Z" fill="#DFE3E8"/>
<path d="M79.1538 57.9769H70.4283C69.3666 57.9769 68.5059 58.8376 68.5059 59.8993V68.6248C68.5059 69.6866 69.3666 70.5473 70.4283 70.5473H79.1538C80.2156 70.5473 81.0763 69.6866 81.0763 68.6248V59.8993C81.0763 58.8376 80.2156 57.9769 79.1538 57.9769Z" fill="#005249"/>
<path d="M79.156 57.9796H72.6069C71.5463 57.9796 70.6865 58.8393 70.6865 59.8999V68.6272C70.6865 69.6878 71.5463 70.5476 72.6069 70.5476H79.156C80.2165 70.5476 81.0763 69.6878 81.0763 68.6272V59.8999C81.0763 58.8393 80.2165 57.9796 79.156 57.9796Z" fill="#007B55"/>
<path d="M75.6314 64.6885C75.7637 64.223 75.4087 63.7077 75.324 63.2309C75.3087 63.1461 75.3071 63.0574 75.3211 62.9682C75.3816 62.5785 75.7169 62.2911 76.1111 62.2911C76.5056 62.2911 76.8409 62.5785 76.9014 62.9682C76.9148 63.0551 76.9138 63.1414 76.8996 63.2243C76.8188 63.7014 76.4711 64.2264 76.6167 64.688L76.7217 65.022C76.848 65.4223 76.549 65.8299 76.1293 65.8299C75.7169 65.8299 75.419 65.4354 75.5316 65.0388L75.6314 64.6885Z" fill="#005249"/>
<path d="M79.2046 32.3879H73.4149C72.2522 32.3879 71.3096 33.3305 71.3096 34.4932V40.4809C71.3096 41.6436 72.2522 42.5862 73.4149 42.5862H79.2046C80.3674 42.5862 81.31 41.6436 81.31 40.4809V34.4932C81.31 33.3305 80.3674 32.3879 79.2046 32.3879Z" fill="#00AB55"/>
<path opacity="0.18" d="M39.1976 28.3535H33.2993C32.8632 28.3535 32.5098 28.707 32.5098 29.143V37.7623C32.5098 38.1984 32.8632 38.5519 33.2993 38.5519H39.1976C39.6336 38.5519 39.9871 38.1984 39.9871 37.7623V29.143C39.9871 28.707 39.6336 28.3535 39.1976 28.3535Z" fill="#00AB55"/>
<path d="M37.3753 30.006H31.477C31.041 30.006 30.6875 30.3595 30.6875 30.7955V39.4148C30.6875 39.8508 31.041 40.2043 31.477 40.2043H37.3753C37.8113 40.2043 38.1648 39.8508 38.1648 39.4148V30.7955C38.1648 30.3595 37.8113 30.006 37.3753 30.006Z" fill="white"/>
<path opacity="0.48" d="M37.3753 30.006H31.477C31.041 30.006 30.6875 30.3595 30.6875 30.7955V39.4148C30.6875 39.8508 31.041 40.2043 31.477 40.2043H37.3753C37.8113 40.2043 38.1648 39.8508 38.1648 39.4148V30.7955C38.1648 30.3595 37.8113 30.006 37.3753 30.006Z" fill="#00AB55"/>
<path d="M27.0967 58.3001C27.1518 58.8201 27.3322 59.3191 27.6225 59.7541C28.7855 61.8087 30.0891 63.8319 31.8893 65.3559C34.5377 67.5947 38.0024 68.5616 41.351 69.4751C41.0531 69.3295 40.692 67.7789 40.5588 67.4471C40.2996 66.7831 40.0572 66.112 39.8101 65.4431C39.4151 64.3891 38.5985 63.5411 37.7845 62.7635C35.9626 61.0031 33.7485 59.701 31.3248 58.9641C29.9538 58.5446 28.5303 58.3212 27.0967 58.3001Z" fill="#005249"/>
<path d="M40.1975 59.4512C39.9235 57.5393 39.6425 55.6034 38.8745 53.8323C38.1064 52.0612 36.7738 50.44 34.9638 49.7787C34.9105 52.5149 34.858 55.2505 34.8063 57.9854C34.7748 59.5649 34.7482 61.1763 35.2013 62.6906C35.9984 65.3559 38.7582 68.4598 41.4162 69.3369C41.8113 68.0624 41.1496 66.1312 40.9607 64.8059L40.1975 59.4512Z" fill="#00AB55"/>
<path d="M68.4561 37.3881H42.8909C41.6659 37.3881 40.6729 38.3812 40.6729 39.6062V44.6442C40.6729 45.8692 41.6659 46.8622 42.8909 46.8622H68.4561C69.6811 46.8622 70.6742 45.8692 70.6742 44.6442V39.6062C70.6742 38.3812 69.6811 37.3881 68.4561 37.3881Z" fill="#007B55"/>
<path d="M68.4562 37.3881H44.47C43.245 37.3881 42.252 38.3812 42.252 39.6062V44.6442C42.252 45.8692 43.245 46.8622 44.47 46.8622H68.4562C69.6812 46.8622 70.6742 45.8692 70.6742 44.6442V39.6062C70.6742 38.3812 69.6812 37.3881 68.4562 37.3881Z" fill="#00AB55"/>
<path d="M48.5682 42.0841C48.5682 42.6657 48.0969 43.1368 47.5156 43.1368C46.9342 43.1368 46.4629 42.6657 46.4629 42.0841C46.4629 41.5028 46.9342 41.0314 47.5156 41.0314C48.0969 41.0314 48.5682 41.5028 48.5682 42.0841ZM51.7263 42.0841C51.7263 42.6657 51.2549 43.1368 50.6736 43.1368C50.0923 43.1368 49.6209 42.6657 49.6209 42.0841C49.6209 41.5028 50.0923 41.0314 50.6736 41.0314C51.2549 41.0314 51.7263 41.5028 51.7263 42.0841ZM53.8316 43.1368C54.413 43.1368 54.8843 42.6657 54.8843 42.0841C54.8843 41.5028 54.413 41.0314 53.8316 41.0314C53.2503 41.0314 52.779 41.5028 52.779 42.0841C52.779 42.6657 53.2503 43.1368 53.8316 43.1368Z" fill="#C8FACD"/>
<path d="M68.4561 48.9676H42.8909C41.6659 48.9676 40.6729 49.9606 40.6729 51.1857V56.2236C40.6729 57.4486 41.6659 58.4417 42.8909 58.4417H68.4561C69.6811 58.4417 70.6742 57.4486 70.6742 56.2236V51.1857C70.6742 49.9606 69.6811 48.9676 68.4561 48.9676Z" fill="#007B55"/>
<path d="M70.7827 51.4896V55.9148C70.7848 56.5856 70.5076 57.2293 70.0134 57.7038C69.5189 58.178 68.8476 58.4435 68.1483 58.4417H44.9897C44.2915 58.4417 43.622 58.1754 43.1286 57.7014C42.6354 57.2272 42.3591 56.5845 42.3604 55.9148V51.4896C42.3604 50.0969 43.5375 48.9676 44.9897 48.9676H68.1483C68.8465 48.9663 69.5165 49.2316 70.0108 49.7045C70.505 50.1777 70.7827 50.8201 70.7827 51.4896Z" fill="#00AB55"/>
<path d="M48.6766 53.7046C48.6766 54.2859 48.2053 54.7573 47.624 54.7573C47.0426 54.7573 46.5713 54.2859 46.5713 53.7046C46.5713 53.1233 47.0426 52.6519 47.624 52.6519C48.2053 52.6519 48.6766 53.1233 48.6766 53.7046ZM51.8347 53.7046C51.8347 54.2859 51.3633 54.7573 50.782 54.7573C50.2007 54.7573 49.7293 54.2859 49.7293 53.7046C49.7293 53.1233 50.2007 52.6519 50.782 52.6519C51.3633 52.6519 51.8347 53.1233 51.8347 53.7046ZM53.94 54.7573C54.5214 54.7573 54.9927 54.2859 54.9927 53.7046C54.9927 53.1233 54.5214 52.6519 53.94 52.6519C53.3587 52.6519 52.8874 53.1233 52.8874 53.7046C52.8874 54.2859 53.3587 54.7573 53.94 54.7573Z" fill="#C8FACD"/>
<path d="M67.625 53.1783H59.73C59.5846 53.1783 59.4668 53.2961 59.4668 53.4415V53.9678C59.4668 54.1131 59.5846 54.231 59.73 54.231H67.625C67.7704 54.231 67.8882 54.1131 67.8882 53.9678V53.4415C67.8882 53.2961 67.7704 53.1783 67.625 53.1783Z" fill="#C8FACD"/>
<path d="M68.4561 60.6021H42.8909C41.6659 60.6021 40.6729 61.5951 40.6729 62.8201V67.8581C40.6729 69.0831 41.6659 70.0761 42.8909 70.0761H68.4561C69.6811 70.0761 70.6742 69.0831 70.6742 67.8581V62.8201C70.6742 61.5951 69.6811 60.6021 68.4561 60.6021Z" fill="#007B55"/>
<path d="M68.5646 60.547H44.5784C43.3534 60.547 42.3604 61.5401 42.3604 62.7651V67.803C42.3604 69.028 43.3534 70.0211 44.5784 70.0211H68.5646C69.7896 70.0211 70.7826 69.028 70.7826 67.803V62.7651C70.7826 61.5401 69.7896 60.547 68.5646 60.547Z" fill="#00AB55"/>
<path d="M48.6766 65.2841C48.6766 65.8655 48.2053 66.3368 47.624 66.3368C47.0426 66.3368 46.5713 65.8655 46.5713 65.2841C46.5713 64.7028 47.0426 64.2314 47.624 64.2314C48.2053 64.2314 48.6766 64.7028 48.6766 65.2841ZM51.8347 65.2841C51.8347 65.8655 51.3633 66.3368 50.782 66.3368C50.2007 66.3368 49.7293 65.8655 49.7293 65.2841C49.7293 64.7028 50.2007 64.2314 50.782 64.2314C51.3633 64.2314 51.8347 64.7028 51.8347 65.2841ZM53.94 66.3368C54.5214 66.3368 54.9927 65.8655 54.9927 65.2841C54.9927 64.7028 54.5214 64.2314 53.94 64.2314C53.3587 64.2314 52.8874 64.7028 52.8874 65.2841C52.8874 65.8655 53.3587 66.3368 53.94 66.3368Z" fill="#C8FACD"/>
<path d="M67.3614 64.7578H59.4663C59.3209 64.7578 59.2031 64.8756 59.2031 65.0209V65.5473C59.2031 65.6926 59.3209 65.8104 59.4663 65.8104H67.3614C67.5067 65.8104 67.6245 65.6926 67.6245 65.5473V65.0209C67.6245 64.8756 67.5067 64.7578 67.3614 64.7578Z" fill="#C8FACD"/>
<path d="M73.9404 36.023L76.3579 34.7564L78.6775 36.0162C78.6775 36.0162 78.2464 39.1282 76.415 40.0198C76.4105 40.0198 74.1389 39.1487 73.9404 36.023Z" fill="#005249"/>
<defs>
<linearGradient id="paint0_linear_420_14994" x1="75.3523" y1="97.5228" x2="115.819" y2="6.31813" gradientUnits="userSpaceOnUse">
<stop stop-color="#00AB55"/>
<stop offset="1" stop-color="#00AB55" stop-opacity="0.01"/>
</linearGradient>
</defs>
</svg>
